<svg width="37" height="41" viewBox="0 0 37 41" fill="none" xmlns="http://www.w3.org/2000/svg">
<path d="M0.561563 36.9V37.76H8.84156V36.9H0.561563ZM4.16156 35.04V37.25H5.20156V35.04H4.16156ZM1.53156 30.33V31.17H6.81156V32.39H1.55156V34.92H2.59156V33.22H7.85156V30.33H1.53156ZM1.55156 34.49V35.34H8.06156V34.49H1.55156ZM10.6308 30.6V31.44H16.4708V30.6H10.6308ZM9.76078 36.7V37.56H18.0208V36.7H9.76078ZM15.9108 30.6V31.59C15.9108 32.77 15.9108 34.11 15.5608 35.92L16.6108 36.02C16.9508 34.09 16.9508 32.81 16.9508 31.59V30.6H15.9108ZM21.39 30.36C20.03 30.36 19.05 31.61 19.05 33.58C19.05 35.55 20.03 36.81 21.39 36.81C22.75 36.81 23.73 35.55 23.73 33.58C23.73 31.61 22.75 30.36 21.39 30.36ZM21.39 31.31C22.18 31.31 22.73 32.16 22.73 33.58C22.73 35.01 22.18 35.87 21.39 35.87C20.6 35.87 20.05 35.01 20.05 33.58C20.05 32.16 20.6 31.31 21.39 31.31ZM24.99 29.69V38.83H26.04V29.69H24.99ZM25.8 33.25V34.12H27.46V33.25H25.8ZM28.1492 33.79V34.64H36.4292V33.79H28.1492ZM31.7492 34.16V35.58H32.7792V34.16H31.7492ZM31.7292 35.98V36.21C31.7292 37.06 30.5192 37.83 28.7192 38L29.0592 38.8C31.1692 38.58 32.6192 37.57 32.6192 36.21V35.98H31.7292ZM31.9092 35.98V36.21C31.9092 37.61 33.3792 38.58 35.4692 38.8L35.7992 38C33.9892 37.84 32.7992 37.09 32.7992 36.21V35.98H31.9092ZM32.2792 29.81C30.2792 29.81 29.0292 30.43 29.0292 31.51C29.0292 32.58 30.2792 33.21 32.2792 33.21C34.2892 33.21 35.5392 32.58 35.5392 31.51C35.5392 30.43 34.2892 29.81 32.2792 29.81ZM32.2792 30.6C33.6492 30.6 34.4592 30.92 34.4592 31.51C34.4592 32.08 33.6492 32.41 32.2792 32.41C30.9092 32.41 30.1092 32.08 30.1092 31.51C30.1092 30.92 30.9092 30.6 32.2792 30.6Z" fill="#146DB6"/>
<path d="M23.7397 5.625C25.5663 6.82738 26.9568 8.58762 27.7048 10.6443C28.4528 12.701 28.5183 14.9443 27.8916 17.0413C27.2648 19.1382 25.9793 20.9767 24.226 22.2839C22.4726 23.591 20.345 24.297 18.159 24.297C15.973 24.297 13.8454 23.591 12.092 22.2839C10.3387 20.9767 9.0532 19.1382 8.42648 17.0413C7.79975 14.9443 7.86525 12.701 8.61322 10.6443C9.36118 8.58762 10.7517 6.82738 12.5783 5.625" stroke="#146DB6" stroke-width="2" stroke-miterlimit="10" stroke-linecap="round"/>
<path d="M18.1729 1V8.41888" stroke="#146DB6" stroke-width="2" stroke-linecap="round" stroke-linejoin="round"/>
</svg>
