<svg width="28" height="41" viewBox="0 0 28 41" fill="none" xmlns="http://www.w3.org/2000/svg">
<path d="M0.661172 36.9V37.76H8.94117V36.9H0.661172ZM4.26117 35.04V37.25H5.30117V35.04H4.26117ZM1.63117 30.33V31.17H6.91117V32.39H1.65117V34.92H2.69117V33.22H7.95117V30.33H1.63117ZM1.65117 34.49V35.34H8.16117V34.49H1.65117ZM10.7304 30.6V31.44H16.5704V30.6H10.7304ZM9.86039 36.7V37.56H18.1204V36.7H9.86039ZM16.0104 30.6V31.59C16.0104 32.77 16.0104 34.11 15.6604 35.92L16.7104 36.02C17.0504 34.09 17.0504 32.81 17.0504 31.59V30.6H16.0104ZM25.5396 29.7V36.32H26.5896V29.7H25.5396ZM20.6196 37.8V38.65H26.8496V37.8H20.6196ZM20.6196 35.65V38.12H21.6696V35.65H20.6196ZM21.6596 30.31C20.2796 30.31 19.2296 31.25 19.2296 32.59C19.2296 33.91 20.2796 34.87 21.6596 34.87C23.0396 34.87 24.0796 33.91 24.0796 32.59C24.0796 31.25 23.0396 30.31 21.6596 30.31ZM21.6596 31.21C22.4596 31.21 23.0596 31.75 23.0596 32.59C23.0596 33.41 22.4596 33.95 21.6596 33.95C20.8596 33.95 20.2496 33.41 20.2496 32.59C20.2496 31.75 20.8596 31.21 21.6596 31.21Z" fill="#146DB6"/>
<path d="M19.7397 5.625C21.5663 6.82738 22.9568 8.58762 23.7048 10.6443C24.4528 12.701 24.5183 14.9443 23.8916 17.0413C23.2648 19.1382 21.9793 20.9767 20.226 22.2839C18.4726 23.591 16.345 24.297 14.159 24.297C11.973 24.297 9.84539 23.591 8.09205 22.2839C6.3387 20.9767 5.0532 19.1382 4.42648 17.0413C3.79975 14.9443 3.86525 12.701 4.61322 10.6443C5.36118 8.58762 6.75174 6.82738 8.57834 5.625" stroke="#146DB6" stroke-width="2" stroke-miterlimit="10" stroke-linecap="round"/>
<path d="M14.1729 1V8.41888" stroke="#146DB6" stroke-width="2" stroke-linecap="round" stroke-linejoin="round"/>
</svg>
