<svg width="61" height="49" viewBox="0 0 61 49" fill="none" xmlns="http://www.w3.org/2000/svg">
<g clip-path="url(#clip0_58_20)">
<path d="M57.6398 40.768H54.1039C53.8982 40.768 53.701 40.6854 53.5556 40.5384C53.4102 40.3913 53.3285 40.1919 53.3285 39.984C53.3285 39.7761 53.4102 39.5767 53.5556 39.4296C53.701 39.2826 53.8982 39.2 54.1039 39.2H57.6398C58.1197 39.2 58.5799 39.0073 58.9192 38.6642C59.2585 38.3211 59.4492 37.8558 59.4492 37.3707V3.39733C59.4492 2.91216 59.2585 2.44687 58.9192 2.1038C58.5799 1.76073 58.1197 1.568 57.6398 1.568H3.36017C2.88031 1.568 2.4201 1.76073 2.08079 2.1038C1.74147 2.44687 1.55085 2.91216 1.55085 3.39733V37.3707C1.55085 37.8558 1.74147 38.3211 2.08079 38.6642C2.4201 39.0073 2.88031 39.2 3.36017 39.2H37.9363C38.142 39.2 38.3392 39.2826 38.4846 39.4296C38.63 39.5767 38.7117 39.7761 38.7117 39.984C38.7117 40.1919 38.63 40.3913 38.4846 40.5384C38.3392 40.6854 38.142 40.768 37.9363 40.768H3.36017C2.469 40.768 1.61433 40.4101 0.984171 39.7729C0.354017 39.1358 0 38.2717 0 37.3707L0 3.39733C0 2.4963 0.354017 1.63218 0.984171 0.995056C1.61433 0.357932 2.469 0 3.36017 0L57.6398 0C58.531 0 59.3857 0.357932 60.0158 0.995056C60.646 1.63218 61 2.4963 61 3.39733V37.3707C61 38.2717 60.646 39.1358 60.0158 39.7729C59.3857 40.4101 58.531 40.768 57.6398 40.768V40.768Z" fill="black"/>
<path d="M46.1374 34.8878C44.6548 34.8878 43.2056 34.4433 41.9729 33.6106C40.7403 32.7778 39.7795 31.5942 39.2122 30.2094C38.6448 28.8245 38.4964 27.3007 38.7856 25.8306C39.0749 24.3605 39.7888 23.0101 40.8371 21.9502C41.8854 20.8903 43.221 20.1685 44.675 19.8761C46.1291 19.5837 47.6362 19.7338 49.0059 20.3074C50.3755 20.881 51.5462 21.8524 52.3699 23.0987C53.1935 24.345 53.6331 25.8102 53.6331 27.3091C53.6331 29.3191 52.8434 31.2468 51.4377 32.6681C50.032 34.0893 48.1254 34.8878 46.1374 34.8878V34.8878ZM46.1374 21.2985C44.9616 21.2985 43.8122 21.651 42.8346 22.3115C41.8569 22.9719 41.0949 23.9107 40.645 25.009C40.195 26.1073 40.0773 27.3158 40.3067 28.4818C40.5361 29.6477 41.1023 30.7187 41.9337 31.5593C42.7651 32.3999 43.8244 32.9724 44.9776 33.2043C46.1308 33.4362 47.3261 33.3172 48.4124 32.8623C49.4987 32.4073 50.4272 31.6369 51.0804 30.6485C51.7336 29.66 52.0823 28.4979 52.0823 27.3091C52.0823 25.715 51.456 24.1862 50.3411 23.059C49.2262 21.9317 47.7141 21.2985 46.1374 21.2985Z" fill="black"/>
<path d="M31.1461 11.4752H9.95121C9.74555 11.4752 9.54832 11.3926 9.4029 11.2456C9.25748 11.0986 9.17578 10.8992 9.17578 10.6912C9.17578 10.4833 9.25748 10.2839 9.4029 10.1369C9.54832 9.98983 9.74555 9.90723 9.95121 9.90723H31.1461C31.3518 9.90723 31.549 9.98983 31.6944 10.1369C31.8398 10.2839 31.9215 10.4833 31.9215 10.6912C31.9215 10.8992 31.8398 11.0986 31.6944 11.2456C31.549 11.3926 31.3518 11.4752 31.1461 11.4752Z" fill="black"/>
<path d="M31.1461 18.8551H9.95121C9.74555 18.8551 9.54832 18.7725 9.4029 18.6255C9.25748 18.4785 9.17578 18.279 9.17578 18.0711C9.17578 17.8632 9.25748 17.6638 9.4029 17.5167C9.54832 17.3697 9.74555 17.2871 9.95121 17.2871H31.1461C31.3518 17.2871 31.549 17.3697 31.6944 17.5167C31.8398 17.6638 31.9215 17.8632 31.9215 18.0711C31.9215 18.279 31.8398 18.4785 31.6944 18.6255C31.549 18.7725 31.3518 18.8551 31.1461 18.8551Z" fill="black"/>
<path d="M31.1461 25.9005H9.95121C9.74555 25.9005 9.54832 25.8179 9.4029 25.6709C9.25748 25.5239 9.17578 25.3244 9.17578 25.1165C9.17578 24.9086 9.25748 24.7092 9.4029 24.5621C9.54832 24.4151 9.74555 24.3325 9.95121 24.3325H31.1461C31.3518 24.3325 31.549 24.4151 31.6944 24.5621C31.8398 24.7092 31.9215 24.9086 31.9215 25.1165C31.9215 25.3244 31.8398 25.5239 31.6944 25.6709C31.549 25.8179 31.3518 25.9005 31.1461 25.9005V25.9005Z" fill="black"/>
<path d="M50.5313 49.0001C50.3806 49.0009 50.2331 48.9563 50.1074 48.8721L46.1373 46.2561L42.1671 48.8695C42.0501 48.9467 41.9147 48.9905 41.7752 48.9963C41.6356 49.0021 41.4971 48.9697 41.3743 48.9025C41.2514 48.8354 41.1488 48.7359 41.0772 48.6146C41.0057 48.4933 40.9679 48.3547 40.9678 48.2135V32.5335C40.9678 32.3256 41.0495 32.1262 41.1949 31.9791C41.3403 31.8321 41.5375 31.7495 41.7432 31.7495C41.9489 31.7495 42.1461 31.8321 42.2915 31.9791C42.4369 32.1262 42.5186 32.3256 42.5186 32.5335V46.7788L45.7134 44.6646C45.8394 44.5814 45.9867 44.5371 46.1373 44.5371C46.2878 44.5371 46.4351 44.5814 46.5612 44.6646L49.7559 46.7788V32.5361C49.7559 32.3282 49.8376 32.1288 49.983 31.9818C50.1285 31.8347 50.3257 31.7521 50.5313 31.7521C50.737 31.7521 50.9342 31.8347 51.0796 31.9818C51.2251 32.1288 51.3068 32.3282 51.3068 32.5361V48.2161C51.3069 48.3574 51.2692 48.4961 51.1978 48.6176C51.1264 48.739 51.0238 48.8387 50.901 48.906C50.7874 48.968 50.6604 49.0003 50.5313 49.0001V49.0001Z" fill="black"/>
</g>
<defs>
<clipPath id="clip0_58_20">
<rect width="61" height="49" fill="white"/>
</clipPath>
</defs>
</svg>
