<svg width="57" height="57" viewBox="0 0 57 57" fill="none" xmlns="http://www.w3.org/2000/svg">
<g clip-path="url(#clip0_58_21)">
<path d="M42.4308 14.9244C41.2915 14.9233 40.1992 14.4732 39.3936 13.673C38.588 12.8728 38.1349 11.7878 38.1338 10.6561V4.2683C38.1338 3.13627 38.5865 2.05062 39.3924 1.25016C40.1982 0.449694 41.2912 0 42.4308 0C43.5705 0 44.6634 0.449694 45.4693 1.25016C46.2751 2.05062 46.7279 3.13627 46.7279 4.2683V10.6561C46.7267 11.7878 46.2737 12.8728 45.4681 13.673C44.6624 14.4732 43.5701 14.9233 42.4308 14.9244ZM42.4308 1.67549C41.7389 1.67659 41.0756 1.95012 40.5863 2.43613C40.097 2.92213 39.8217 3.58098 39.8206 4.2683V10.6561C39.8206 11.3437 40.0956 12.0032 40.5851 12.4895C41.0746 12.9757 41.7385 13.2489 42.4308 13.2489C43.1231 13.2489 43.787 12.9757 44.2766 12.4895C44.7661 12.0032 45.0411 11.3437 45.0411 10.6561V4.2683C45.04 3.58098 44.7646 2.92213 44.2753 2.43613C43.7861 1.95012 43.1228 1.67659 42.4308 1.67549V1.67549Z" fill="#231815"/>
<path d="M14.6877 14.9244C13.5484 14.9233 12.456 14.4732 11.6504 13.673C10.8448 12.8728 10.3917 11.7878 10.3906 10.6561V4.2683C10.3906 3.13627 10.8433 2.05062 11.6492 1.25016C12.455 0.449694 13.548 0 14.6877 0C15.8273 0 16.9203 0.449694 17.7261 1.25016C18.532 2.05062 18.9847 3.13627 18.9847 4.2683V10.6561C18.9836 11.7878 18.5305 12.8728 17.7249 13.673C16.9193 14.4732 15.827 14.9233 14.6877 14.9244V14.9244ZM14.6877 1.67548C13.9957 1.67659 13.3324 1.95012 12.8432 2.43613C12.3539 2.92213 12.0785 3.58098 12.0774 4.2683V10.6561C12.0774 10.9966 12.1449 11.3337 12.2761 11.6483C12.4073 11.9629 12.5995 12.2487 12.8419 12.4895C13.0843 12.7302 13.3721 12.9212 13.6888 13.0515C14.0054 13.1818 14.3449 13.2489 14.6877 13.2489C15.0304 13.2489 15.3699 13.1818 15.6866 13.0515C16.0033 12.9212 16.291 12.7302 16.5334 12.4895C16.7758 12.2487 16.9681 11.9629 17.0992 11.6483C17.2304 11.3337 17.2979 10.9966 17.2979 10.6561V4.2683C17.2968 3.58098 17.0214 2.92213 16.5322 2.43613C16.0429 1.95012 15.3796 1.67659 14.6877 1.67548V1.67548Z" fill="#231815"/>
<path d="M50.9276 57.0002H6.07235C4.46255 56.998 2.91932 56.3618 1.78102 55.2311C0.642712 54.1004 0.00223119 52.5675 0 50.9685L0 13.668C0.00223119 12.0689 0.642712 10.536 1.78102 9.40534C2.91932 8.27464 4.46255 7.63845 6.07235 7.63623H9.40793V11.4061C9.40905 12.6722 9.91589 13.8861 10.8172 14.7814C11.7185 15.6766 12.9406 16.1801 14.2152 16.1812H14.9996C16.2742 16.1834 17.4976 15.6832 18.4013 14.7903C19.305 13.8973 19.815 12.6847 19.8195 11.4186V7.6488H37.1932V10.9327C37.1943 12.1989 37.7011 13.4128 38.6024 14.3081C39.5037 15.2033 40.7258 15.7068 42.0004 15.7079H42.7806C44.0552 15.7068 45.2773 15.2033 46.1786 14.3081C47.0799 13.4128 47.5867 12.1989 47.5879 10.9327V7.63623H50.9276C52.5374 7.63845 54.0807 8.27464 55.219 9.40534C56.3573 10.536 56.9978 12.0689 57 13.668V50.9685C56.9978 52.5675 56.3573 54.1004 55.219 55.2311C54.0807 56.3618 52.5374 56.998 50.9276 57.0002V57.0002ZM6.07235 9.31172C4.90957 9.31282 3.79472 9.77214 2.97251 10.5889C2.15029 11.4056 1.68788 12.513 1.68676 13.668V50.9685C1.68788 52.1235 2.15029 53.2309 2.97251 54.0476C3.79472 54.8643 4.90957 55.3236 6.07235 55.3247H50.9276C52.0904 55.3236 53.2053 54.8643 54.0275 54.0476C54.8497 53.2309 55.3121 52.1235 55.3132 50.9685V13.668C55.3121 12.513 54.8497 11.4056 54.0275 10.5889C53.2053 9.77214 52.0904 9.31282 50.9276 9.31172H49.2746V10.9327C49.2724 12.6429 48.5875 14.2823 47.3701 15.4916C46.1527 16.7008 44.5022 17.3811 42.7806 17.3834H42.0004C40.2788 17.3811 38.6283 16.7008 37.4109 15.4916C36.1935 14.2823 35.5086 12.6429 35.5064 10.9327V9.31172H21.5063V11.4061C21.504 13.1162 20.8191 14.7557 19.6017 15.9649C18.3843 17.1741 16.7338 17.8545 15.0122 17.8567H14.2152C12.4936 17.8545 10.8431 17.1741 9.62569 15.9649C8.40831 14.7557 7.7234 13.1162 7.72117 11.4061V9.31172H6.07235Z" fill="#231815"/>
<path d="M56.157 21.5679H0.84375V23.2434H56.157V21.5679Z" fill="#231815"/>
<path d="M24.036 47.8601H19.8191V33.1996H17.0781V29.6392H24.036V47.8601Z" fill="#231815"/>
<path d="M41.4439 29.6392V32.7179L35.6667 47.8601H31.2052L36.877 33.1996H29.6787V29.6392H41.4439Z" fill="#231815"/>
</g>
<defs>
<clipPath id="clip0_58_21">
<rect width="57" height="57" fill="white"/>
</clipPath>
</defs>
</svg>
