<svg width="78" height="106" viewBox="0 0 78 106" fill="none" xmlns="http://www.w3.org/2000/svg">
<g clip-path="url(#clip0_51_239)">
<path d="M19 29H77V100.486C77 102.744 76.1345 104.91 74.5939 106.506C73.0533 108.103 70.9638 109 68.7851 109H19V29Z" fill="#62BDEC"/>
<path d="M50.2454 15.8966H25.6199C24.5182 15.8966 23.4616 15.4559 22.6825 14.6715C21.9035 13.887 21.4658 12.823 21.4658 11.7136V4.18914C21.4658 3.07918 21.9033 2.01458 22.6821 1.22914C23.461 0.4437 24.5176 0.00162752 25.6199 0H50.2637C51.3665 0.00162477 52.4237 0.443501 53.2036 1.22877C53.9834 2.01403 54.4222 3.07861 54.4238 4.18914V11.7136C54.423 12.2648 54.3142 12.8104 54.1037 13.3191C53.8931 13.8279 53.5849 14.2898 53.1967 14.6784C52.8086 15.0669 52.3481 15.3746 51.8416 15.5836C51.3352 15.7927 50.7927 15.899 50.2454 15.8966V15.8966ZM25.6199 2.45697C25.3943 2.45697 25.1709 2.50182 24.9625 2.58894C24.7542 2.67607 24.5649 2.80376 24.4057 2.96468C24.2464 3.12561 24.1203 3.31661 24.0345 3.52673C23.9487 3.73685 23.905 3.96196 23.9058 4.18914V11.7136C23.9058 12.1714 24.0864 12.6104 24.4078 12.9341C24.7293 13.2578 25.1653 13.4396 25.6199 13.4396H50.2637C50.4893 13.4405 50.7128 13.3964 50.9215 13.31C51.1302 13.2237 51.3198 13.0966 51.4797 12.9363C51.6395 12.7759 51.7663 12.5854 51.8528 12.3756C51.9393 12.1658 51.9839 11.9408 51.9839 11.7136V4.18914C51.9839 3.96011 51.9388 3.73335 51.8512 3.52199C51.7636 3.31062 51.6352 3.11884 51.4736 2.95775C51.3119 2.79666 51.1201 2.66946 50.9093 2.5835C50.6985 2.49754 50.4728 2.45454 50.2454 2.45697H25.6199Z" fill="#231815"/>
<path d="M24.8935 44.0352H13.5293V32.5918H24.8935V44.0352ZM15.3593 42.1924H23.0635V34.4345H15.3593V42.1924Z" fill="#231815"/>
<path d="M63.5553 37.0879H35.8555V39.5449H63.5553V37.0879Z" fill="#231815"/>
<path d="M24.8935 67.1492H13.5293V55.6997H24.8935V67.1492ZM15.3593 65.3065H23.0635V57.5424H15.3593V65.3065Z" fill="#231815"/>
<path d="M63.3356 60.1958H35.6357V62.6528H63.3356V60.1958Z" fill="#231815"/>
<path d="M25.0585 89.8147H13.6943V78.3652H25.0585V89.8147ZM15.5243 87.972H23.2286V80.208H15.5243V87.972Z" fill="#231815"/>
<path d="M63.5553 83.3101H35.8555V85.767H63.5553V83.3101Z" fill="#231815"/>
<path d="M18.3482 41.566L11.3882 35.6262C11.2959 35.5487 11.2199 35.4536 11.1644 35.3463C11.1089 35.2391 11.075 35.1218 11.0648 35.0013C11.0546 34.8807 11.0682 34.7594 11.1049 34.6442C11.1415 34.529 11.2005 34.4223 11.2784 34.3302C11.4358 34.1436 11.6601 34.0273 11.9023 34.0066C12.1446 33.9859 12.3851 34.0624 12.5715 34.2196L17.9151 38.7773L24.8873 27.4629C25.016 27.2552 25.2212 27.1075 25.458 27.0522C25.6948 26.9969 25.9438 27.0386 26.15 27.1681C26.3563 27.2976 26.503 27.5043 26.5579 27.7428C26.6128 27.9812 26.5714 28.2319 26.4428 28.4396L18.3482 41.566Z" fill="#231815"/>
<path d="M73.3884 106H4.60546C3.99986 105.999 3.40035 105.879 2.84116 105.644C2.28197 105.41 1.77404 105.068 1.34638 104.636C0.918727 104.204 0.579715 103.692 0.348703 103.128C0.11769 102.564 -0.000797546 101.96 4.04005e-06 101.35V16.0443C0.00161799 14.8148 0.487353 13.6362 1.35069 12.7668C2.21404 11.8975 3.38451 11.4084 4.60546 11.4067H19.2453V15.9706C19.2453 16.5446 19.4714 17.0951 19.8739 17.5016C20.2764 17.9081 20.8225 18.1372 21.3925 18.1388H54.7714C55.0542 18.1388 55.3342 18.0828 55.5954 17.9738C55.8567 17.8648 56.0941 17.7051 56.294 17.5038C56.494 17.3024 56.6526 17.0634 56.7608 16.8003C56.869 16.5373 56.9247 16.2553 56.9247 15.9706V11.4067H73.3945C74.6166 11.4067 75.7886 11.8951 76.6533 12.7647C77.5179 13.6342 78.0045 14.8138 78.0061 16.0443V101.35C78.0069 101.961 77.888 102.566 77.6562 103.131C77.4245 103.695 77.0844 104.208 76.6554 104.64C76.2265 105.072 75.7171 105.415 75.1565 105.648C74.5959 105.881 73.9951 106.001 73.3884 106V106ZM4.60546 13.8637C4.03114 13.8637 3.48034 14.0935 3.07424 14.5024C2.66813 14.9113 2.43998 15.466 2.43998 16.0443V101.35C2.43998 101.929 2.66813 102.483 3.07424 102.892C3.48034 103.301 4.03114 103.531 4.60546 103.531H73.3884C73.9633 103.531 74.5148 103.301 74.9218 102.893C75.3289 102.484 75.5584 101.929 75.56 101.35V16.0443C75.5584 15.4654 75.3289 14.9108 74.9218 14.502C74.5148 14.0933 73.9633 13.8637 73.3884 13.8637H59.3586V15.9706C59.357 17.1968 58.8725 18.3723 58.0115 19.2393C57.1504 20.1064 55.983 20.5942 54.7653 20.5958H21.3803C20.1637 20.5926 18.9978 20.104 18.1381 19.2372C17.2784 18.3703 16.7948 17.1957 16.7932 15.9706V13.8637H4.60546Z" fill="#231815"/>
</g>
<defs>
<clipPath id="clip0_51_239">
<rect width="78" height="106" fill="white"/>
</clipPath>
</defs>
</svg>
