<svg width="68" height="49" viewBox="0 0 68 49" fill="none" xmlns="http://www.w3.org/2000/svg">
<g clip-path="url(#clip0_58_19)">
<ellipse cx="28.652" cy="21.8203" rx="13.3708" ry="13.3984" fill="#C4C4C4"/>
<path d="M64.7513 38.9008H16.9561C16.7572 38.9008 16.5665 38.8219 16.4259 38.6817C16.2853 38.5414 16.2063 38.3511 16.2063 38.1527C16.2063 37.9543 16.2853 37.764 16.4259 37.6237C16.5665 37.4834 16.7572 37.4046 16.9561 37.4046H64.7513C65.2153 37.4046 65.6603 37.2207 65.9884 36.8933C66.3165 36.566 66.5008 36.122 66.5008 35.659V3.24173C66.5008 2.77878 66.3165 2.3348 65.9884 2.00744C65.6603 1.68009 65.2153 1.49618 64.7513 1.49618H12.2648C11.8008 1.49618 11.3558 1.68009 11.0277 2.00744C10.6996 2.3348 10.5152 2.77878 10.5152 3.24173V8.47837C10.5152 8.67678 10.4362 8.86706 10.2956 9.00735C10.155 9.14765 9.96429 9.22646 9.76543 9.22646C9.56657 9.22646 9.37585 9.14765 9.23524 9.00735C9.09462 8.86706 9.01562 8.67678 9.01562 8.47837V3.24173C9.01562 2.38197 9.35795 1.55742 9.96728 0.949481C10.5766 0.341538 11.4031 0 12.2648 0L64.7513 0C65.613 0 66.4395 0.341538 67.0488 0.949481C67.6581 1.55742 68.0004 2.38197 68.0004 3.24173V35.659C68.0004 36.5188 67.6581 37.3433 67.0488 37.9513C66.4395 38.5592 65.613 38.9008 64.7513 38.9008V38.9008Z" fill="black"/>
<path d="M24.5117 35.0355C21.4716 35.0355 18.4997 34.1361 15.972 32.451C13.4442 30.7658 11.4741 28.3707 10.3107 25.5684C9.14728 22.7662 8.84289 19.6826 9.43598 16.7078C10.0291 13.7329 11.493 11.0003 13.6427 8.85555C15.7924 6.71079 18.5312 5.25019 21.5129 4.65845C24.4946 4.06671 27.5852 4.37041 30.3939 5.53115C33.2026 6.69189 35.6032 8.65753 37.2922 11.1795C38.9812 13.7015 39.8827 16.6665 39.8827 19.6997C39.8781 23.7656 38.2572 27.6636 35.3755 30.5387C32.4939 33.4137 28.5869 35.0309 24.5117 35.0355V35.0355ZM24.5117 5.85996C21.7682 5.85996 19.0863 6.67164 16.8051 8.19237C14.524 9.71309 12.746 11.8746 11.6961 14.4034C10.6462 16.9323 10.3715 19.715 10.9068 22.3996C11.442 25.0843 12.7631 27.5503 14.7031 29.4858C16.643 31.4213 19.1147 32.7394 21.8055 33.2734C24.4963 33.8074 27.2854 33.5334 29.82 32.4859C32.3547 31.4384 34.5211 29.6645 36.0453 27.3886C37.5696 25.1127 38.3831 22.4369 38.3831 19.6997C38.3785 16.0306 36.9155 12.5131 34.3151 9.91861C31.7147 7.32417 28.1892 5.86458 24.5117 5.85996Z" fill="black"/>
<path d="M67.125 29.7989H41.3816C41.1828 29.7989 40.9921 29.7201 40.8514 29.5798C40.7108 29.4395 40.6318 29.2492 40.6318 29.0508C40.6318 28.8524 40.7108 28.6621 40.8514 28.5218C40.9921 28.3816 41.1828 28.3027 41.3816 28.3027H67.125C67.3239 28.3027 67.5146 28.3816 67.6552 28.5218C67.7958 28.6621 67.8748 28.8524 67.8748 29.0508C67.8748 29.2492 67.7958 29.4395 67.6552 29.5798C67.5146 29.7201 67.3239 29.7989 67.125 29.7989V29.7989Z" fill="black"/>
<path d="M35.8834 38.0278H34.3838V48.0024H35.8834V38.0278Z" fill="black"/>
<path d="M42.1314 38.1528H40.6318V48.1274H42.1314V38.1528Z" fill="black"/>
<path d="M51.0041 49.0001H26.0105C25.8117 49.0001 25.621 48.9213 25.4804 48.781C25.3397 48.6407 25.2607 48.4504 25.2607 48.252C25.2607 48.0536 25.3397 47.8633 25.4804 47.723C25.621 47.5827 25.8117 47.5039 26.0105 47.5039H51.0041C51.203 47.5039 51.3937 47.5827 51.5343 47.723C51.6749 47.8633 51.7539 48.0536 51.7539 48.252C51.7539 48.4504 51.6749 48.6407 51.5343 48.781C51.3937 48.9213 51.203 49.0001 51.0041 49.0001Z" fill="black"/>
<path d="M12.642 28.7714L8.64258 32.7617L9.70297 33.8197L13.7024 29.8294L12.642 28.7714Z" fill="black"/>
<path d="M14.643 30.7661L10.6436 34.7563L11.7039 35.8143L15.7034 31.824L14.643 30.7661Z" fill="black"/>
<path d="M4.12106 44.4365C3.85841 44.4367 3.59828 44.3853 3.35556 44.2852C3.11283 44.1851 2.89225 44.0382 2.70642 43.853L0.584469 41.7384C0.398564 41.5531 0.251084 41.3331 0.150462 41.091C0.0498388 40.8488 -0.00195312 40.5892 -0.00195312 40.327C-0.00195312 40.0649 0.0498388 39.8053 0.150462 39.5631C0.251084 39.3209 0.398564 39.1009 0.584469 38.9156L6.93034 32.5868C7.30527 32.2129 7.81365 32.0029 8.34372 32.0029C8.87379 32.0029 9.38217 32.2129 9.75711 32.5868L11.8791 34.7039C12.2538 35.0779 12.4642 35.5852 12.4642 36.114C12.4642 36.6429 12.2538 37.1501 11.8791 37.5242L5.5332 43.853C5.15851 44.2264 4.65065 44.4363 4.12106 44.4365ZM8.34247 33.4994C8.21047 33.4993 8.08379 33.5513 7.99006 33.6441L1.6467 39.9754C1.60022 40.0217 1.56335 40.0767 1.53819 40.1373C1.51304 40.1978 1.50009 40.2627 1.50009 40.3283C1.50009 40.3938 1.51304 40.4587 1.53819 40.5192C1.56335 40.5798 1.60022 40.6348 1.6467 40.6811L3.76615 42.7957C3.81258 42.8421 3.86771 42.8789 3.92839 42.904C3.98907 42.9291 4.05412 42.942 4.11981 42.942C4.1855 42.942 4.25055 42.9291 4.31123 42.904C4.37191 42.8789 4.42704 42.8421 4.47347 42.7957L10.8168 36.4669C10.8633 36.4205 10.9002 36.3655 10.9253 36.305C10.9505 36.2445 10.9634 36.1796 10.9634 36.114C10.9634 36.0485 10.9505 35.9836 10.9253 35.923C10.9002 35.8625 10.8633 35.8075 10.8168 35.7612L8.69738 33.6441C8.65067 33.5978 8.59528 33.5613 8.53438 33.5365C8.47347 33.5116 8.40826 33.4991 8.34247 33.4994V33.4994Z" fill="black"/>
<path d="M54.8786 13.5905C54.7772 13.5872 54.6775 13.5634 54.5855 13.5205C54.4936 13.4777 54.4113 13.4166 54.3437 13.3411L50.8446 9.60067C50.7773 9.52879 50.7249 9.44439 50.6903 9.35229C50.6557 9.2602 50.6397 9.1622 50.643 9.06391C50.6464 8.96561 50.6691 8.86894 50.7099 8.77941C50.7507 8.68988 50.8088 8.60925 50.8809 8.54212C50.9529 8.47499 51.0375 8.42267 51.1298 8.38816C51.2221 8.35364 51.3203 8.33761 51.4189 8.34096C51.5174 8.34432 51.6143 8.36701 51.704 8.40773C51.7937 8.44844 51.8746 8.5064 51.9418 8.57828L54.9111 11.7527L61.1095 5.56846C61.2516 5.43631 61.4396 5.36437 61.6339 5.36779C61.8281 5.37121 62.0135 5.44972 62.1508 5.58679C62.2882 5.72385 62.3669 5.90876 62.3703 6.10257C62.3738 6.29638 62.3017 6.48394 62.1692 6.62576L55.421 13.3586C55.351 13.4318 55.2668 13.4901 55.1736 13.53C55.0804 13.5699 54.98 13.5904 54.8786 13.5905V13.5905Z" fill="black"/>
<path d="M22.5415 25.6844C22.3562 25.6826 22.1782 25.6124 22.0417 25.4874L16.4481 20.3605C16.3707 20.2954 16.3074 20.2153 16.2618 20.1251C16.2163 20.0349 16.1895 19.9365 16.1831 19.8357C16.1768 19.7349 16.1909 19.6339 16.2247 19.5387C16.2585 19.4435 16.3113 19.3561 16.3798 19.2819C16.4484 19.2076 16.5313 19.1479 16.6236 19.1064C16.7159 19.065 16.8156 19.0426 16.9168 19.0406C17.018 19.0386 17.1186 19.0571 17.2124 19.095C17.3062 19.1328 17.3914 19.1892 17.4628 19.2608L22.559 23.9388L32.8289 15.1438C32.98 15.0145 33.1765 14.9504 33.375 14.9656C33.5735 14.9808 33.7578 15.074 33.8874 15.2248C34.017 15.3756 34.0812 15.5716 34.066 15.7696C34.0507 15.9677 33.9573 16.1516 33.8061 16.2809L23.0314 25.5073C22.8946 25.6229 22.7208 25.6857 22.5415 25.6844V25.6844Z" fill="black"/>
<path d="M60.0017 26.308C59.8029 26.3079 59.6124 26.2289 59.4719 26.0886L52.3487 18.9817C52.2163 18.8399 52.1442 18.6523 52.1476 18.4585C52.151 18.2647 52.2297 18.0798 52.3671 17.9427C52.5045 17.8057 52.6898 17.7272 52.884 17.7237C53.0783 17.7203 53.2663 17.7923 53.4084 17.9244L60.5316 25.0313C60.6363 25.1359 60.7076 25.2691 60.7365 25.4142C60.7654 25.5592 60.7505 25.7095 60.6938 25.8461C60.6371 25.9827 60.5411 26.0995 60.418 26.1817C60.2948 26.264 60.1499 26.3079 60.0017 26.308V26.308Z" fill="black"/>
<path d="M52.8161 26.3105C52.6677 26.3109 52.5225 26.2673 52.3989 26.1853C52.2754 26.1032 52.179 25.9865 52.122 25.8498C52.065 25.713 52.0499 25.5625 52.0787 25.4173C52.1075 25.272 52.1789 25.1385 52.2837 25.0338L59.4069 17.9269C59.4765 17.8573 59.5591 17.8021 59.6501 17.7643C59.7411 17.7266 59.8386 17.7071 59.9372 17.707C60.0357 17.7069 60.1332 17.7262 60.2243 17.7637C60.3154 17.8012 60.3982 17.8562 60.4679 17.9256C60.5376 17.9951 60.593 18.0775 60.6308 18.1683C60.6686 18.2591 60.6881 18.3564 60.6883 18.4547C60.6884 18.553 60.6691 18.6503 60.6315 18.7412C60.5939 18.832 60.5387 18.9146 60.4691 18.9842L53.346 26.0911C53.2055 26.2314 53.0149 26.3103 52.8161 26.3105V26.3105Z" fill="black"/>
</g>
<defs>
<clipPath id="clip0_58_19">
<rect width="68" height="49" fill="white"/>
</clipPath>
</defs>
</svg>
