<svg width="367" height="55" viewBox="0 0 367 55" fill="none" xmlns="http://www.w3.org/2000/svg">
<path d="M3.72293 40.635V42.195C3.72293 44.475 2.59793 47.07 0.30293 48.15L1.42793 49.725C3.97793 48.525 5.29793 45.33 5.29793 42.195V40.635H3.72293ZM4.14293 40.635V42.195C4.14293 45.15 5.43293 48.195 7.98293 49.38L9.07793 47.805C6.79793 46.755 5.71793 44.295 5.71793 42.195V40.635H4.14293ZM0.84293 39.78V41.415H8.46293V39.78H0.84293ZM9.48293 38.445V52.335H11.4929V38.445H9.48293ZM11.0429 43.74V45.39H13.5029V43.74H11.0429ZM19.6818 39.315V40.305C19.6818 42.435 17.9568 44.235 14.5518 45.12L15.3018 46.68C19.4568 45.585 21.7668 43.05 21.7668 39.315H19.6818ZM15.3318 39.315V40.905H20.9718V39.315H15.3318ZM16.5618 47.28V48.84H24.0318V52.29H26.0268V47.28H16.5618ZM24.0318 38.445V46.695H26.0268V38.445H24.0318ZM21.1068 40.68V42.255H24.3618V40.68H21.1068ZM20.9718 43.635V45.225H24.2418V43.635H20.9718ZM28.2006 44.85V46.425H40.7556V44.85H28.2006ZM34.4556 47.19C31.4556 47.19 29.6256 48.135 29.6256 49.77C29.6256 51.405 31.4556 52.335 34.4556 52.335C37.4556 52.335 39.2706 51.405 39.2706 49.77C39.2706 48.135 37.4556 47.19 34.4556 47.19ZM34.4556 48.735C36.3156 48.735 37.2606 49.05 37.2606 49.77C37.2606 50.475 36.3156 50.805 34.4556 50.805C32.5956 50.805 31.6506 50.475 31.6506 49.77C31.6506 49.05 32.5956 48.735 34.4556 48.735ZM33.1056 39.87V40.215C33.1056 41.295 31.7706 42.51 28.7256 42.78L29.4156 44.325C33.0006 44.01 34.8756 42.285 34.8756 40.215V39.87H33.1056ZM34.0806 39.87V40.215C34.0806 42.3 35.9706 44.01 39.5406 44.325L40.2306 42.78C37.1706 42.51 35.8506 41.295 35.8506 40.215V39.87H34.0806ZM29.3406 39.09V40.665H39.6306V39.09H29.3406ZM49.0944 41.4V43.005H52.3194V41.4H49.0944ZM45.1794 39.3V40.8C45.1794 42.765 44.2194 44.685 41.9244 45.45L42.9744 47.01C45.5994 46.05 46.7844 43.635 46.7844 40.8V39.3H45.1794ZM45.6144 39.3V40.815C45.6144 43.44 46.7544 45.765 49.2444 46.665L50.3094 45.135C48.1194 44.385 47.2044 42.6 47.2044 40.815V39.3H45.6144ZM51.6294 38.46V48.705H53.6244V38.46H51.6294ZM44.4294 50.505V52.095H53.9244V50.505H44.4294ZM44.4294 47.67V51.39H46.4394V47.67H44.4294ZM56.2632 44.775V46.395H57.2232C59.2932 46.395 60.6432 46.35 62.2332 46.08L62.0532 44.49C60.5232 44.745 59.2332 44.775 57.2232 44.775H56.2632ZM56.2632 39.375V45.66H58.1832V40.965H61.7382V39.375H56.2632ZM57.6132 42.09V43.59H61.5882V42.09H57.6132ZM65.7432 38.445V46.92H67.6332V38.445H65.7432ZM64.0782 41.85V43.44H66.2832V41.85H64.0782ZM62.7732 38.7V46.83H64.6332V38.7H62.7732ZM58.0932 47.52V49.11H65.6532V52.335H67.6332V47.52H58.0932Z" fill="#333333"/>
<path d="M116.097 41.4V43.005H119.322V41.4H116.097ZM112.182 39.3V40.8C112.182 42.765 111.222 44.685 108.927 45.45L109.977 47.01C112.602 46.05 113.787 43.635 113.787 40.8V39.3H112.182ZM112.617 39.3V40.815C112.617 43.44 113.757 45.765 116.247 46.665L117.312 45.135C115.122 44.385 114.207 42.6 114.207 40.815V39.3H112.617ZM118.632 38.46V48.705H120.627V38.46H118.632ZM111.432 50.505V52.095H120.927V50.505H111.432ZM111.432 47.67V51.39H113.442V47.67H111.432ZM123.266 44.775V46.395H124.226C126.296 46.395 127.646 46.35 129.236 46.08L129.056 44.49C127.526 44.745 126.236 44.775 124.226 44.775H123.266ZM123.266 39.375V45.66H125.186V40.965H128.741V39.375H123.266ZM124.616 42.09V43.59H128.591V42.09H124.616ZM132.746 38.445V46.92H134.636V38.445H132.746ZM131.081 41.85V43.44H133.286V41.85H131.081ZM129.776 38.7V46.83H131.636V38.7H129.776ZM125.096 47.52V49.11H132.656V52.335H134.636V47.52H125.096ZM139.75 44.79V46.785H141.745V44.79H139.75ZM145.63 38.46V47.91H147.625V38.46H145.63ZM146.92 42.42V44.055H149.365V42.42H146.92ZM136.66 47.64C139.09 47.625 142.27 47.595 145.165 47.1L145.015 45.735C142.21 46.08 138.925 46.095 136.435 46.095L136.66 47.64ZM138.205 48.465V49.995H145.63V52.335H147.625V48.465H138.205ZM136.795 39.465V40.89H144.67V39.465H136.795ZM140.74 41.22C138.685 41.22 137.35 42.015 137.35 43.29C137.35 44.565 138.685 45.36 140.74 45.36C142.78 45.36 144.115 44.565 144.115 43.29C144.115 42.015 142.78 41.22 140.74 41.22ZM140.74 42.525C141.67 42.525 142.225 42.765 142.225 43.29C142.225 43.785 141.67 44.055 140.74 44.055C139.795 44.055 139.24 43.785 139.24 43.29C139.24 42.765 139.795 42.525 140.74 42.525ZM139.75 38.34V40.11H141.745V38.34H139.75ZM159.939 38.46V48.435H161.949V38.46H159.939ZM152.694 50.505V52.095H162.294V50.505H152.694ZM152.694 47.43V51.15H154.689V47.43H152.694ZM154.389 39.33C152.259 39.33 150.609 40.8 150.609 42.855C150.609 44.895 152.259 46.38 154.389 46.38C156.519 46.38 158.154 44.895 158.154 42.855C158.154 40.8 156.519 39.33 154.389 39.33ZM154.389 41.055C155.409 41.055 156.204 41.715 156.204 42.855C156.204 43.98 155.409 44.64 154.389 44.64C153.354 44.64 152.559 43.98 152.559 42.855C152.559 41.715 153.354 41.055 154.389 41.055Z" fill="#333333"/>
<path d="M213.143 38.46V48.585H215.153V38.46H213.143ZM205.898 50.505V52.095H215.498V50.505H205.898ZM205.898 47.61V51.33H207.893V47.61H205.898ZM206.858 39.21V40.56C206.858 42.405 205.883 44.34 203.558 45.135L204.563 46.725C207.263 45.78 208.508 43.275 208.508 40.56V39.21H206.858ZM207.263 39.21V40.56C207.263 43.245 208.478 45.6 211.103 46.485L212.123 44.895C209.843 44.16 208.898 42.375 208.898 40.56V39.21H207.263ZM220.522 40.875V41.385C220.522 42.96 219.547 44.55 217.312 45.18L218.242 46.74C220.897 45.975 222.127 43.8 222.127 41.385V40.875H220.522ZM220.897 40.875V41.385C220.897 43.665 222.172 45.69 224.842 46.395L225.742 44.85C223.507 44.265 222.517 42.81 222.517 41.385V40.875H220.897ZM217.792 39.885V41.445H225.247V39.885H217.792ZM220.522 38.4V40.5H222.517V38.4H220.522ZM224.857 42.15V43.755H227.512V42.15H224.857ZM227.032 38.445V46.83H229.027V38.445H227.032ZM224.317 47.07C221.377 47.07 219.562 48.03 219.562 49.695C219.562 51.36 221.377 52.335 224.317 52.335C227.257 52.335 229.072 51.36 229.072 49.695C229.072 48.03 227.257 47.07 224.317 47.07ZM224.317 48.585C226.147 48.585 227.092 48.945 227.092 49.695C227.092 50.445 226.147 50.82 224.317 50.82C222.502 50.82 221.557 50.445 221.557 49.695C221.557 48.945 222.502 48.585 224.317 48.585ZM238.206 42.78V44.385H241.866V42.78H238.206ZM234.426 39.51V41.52C234.426 44.16 233.376 46.845 231.006 47.94L232.251 49.545C234.861 48.24 236.046 45.015 236.046 41.52V39.51H234.426ZM234.846 39.51V41.52C234.846 44.985 235.941 48.045 238.551 49.305L239.736 47.715C237.441 46.695 236.436 44.16 236.436 41.52V39.51H234.846ZM240.876 38.43V52.365H242.856V38.43H240.876ZM248.089 39.87V40.74C248.089 42.48 247.114 44.28 244.789 45.03L245.824 46.575C248.479 45.72 249.724 43.365 249.724 40.74V39.87H248.089ZM248.494 39.87V40.74C248.494 43.23 249.694 45.495 252.289 46.335L253.309 44.79C251.059 44.07 250.114 42.375 250.114 40.74V39.87H248.494ZM245.329 39.255V40.845H252.829V39.255H245.329ZM253.939 38.445V46.815H255.934V38.445H253.939ZM255.379 41.805V43.44H257.779V41.805H255.379ZM246.664 47.415V49.02H253.939V52.335H255.934V47.415H246.664ZM262.023 39.165V40.41C262.023 42.315 261.048 44.19 258.678 44.955L259.713 46.56C262.443 45.645 263.688 43.2 263.688 40.41V39.165H262.023ZM262.443 39.165V40.32C262.443 43.02 263.553 45.255 266.118 46.14L267.153 44.58C264.948 43.875 264.048 42.165 264.048 40.32V39.165H262.443ZM268.428 38.445V46.575H270.423V38.445H268.428ZM265.713 46.935C262.773 46.935 260.958 47.94 260.958 49.635C260.958 51.345 262.773 52.335 265.713 52.335C268.653 52.335 270.468 51.345 270.468 49.635C270.468 47.94 268.653 46.935 265.713 46.935ZM265.713 48.48C267.528 48.48 268.488 48.855 268.488 49.635C268.488 50.415 267.528 50.805 265.713 50.805C263.913 50.805 262.953 50.415 262.953 49.635C262.953 48.855 263.913 48.48 265.713 48.48ZM265.893 40.965V42.585H268.713V40.965H265.893Z" fill="#333333"/>
<path d="M321.632 38.445V45.42H323.627V38.445H321.632ZM316.997 38.97V40.05C316.997 41.91 315.647 43.44 312.167 44.13L312.827 45.735C317.042 44.82 319.172 42.66 319.172 38.97H316.997ZM312.962 38.97V40.56H317.837V38.97H312.962ZM318.632 40.17V41.685H321.887V40.17H318.632ZM318.542 42.87V44.37H321.812V42.87H318.542ZM314.447 45.93V47.49H321.632V48.285H314.477V51.48H316.472V49.755H323.627V45.93H314.447ZM314.477 50.64V52.2H323.912V50.64H314.477ZM335.836 38.445V52.335H337.726V38.445H335.836ZM331.261 43.185V44.805H333.556V43.185H331.261ZM333.031 38.67V51.705H334.891V38.67H333.031ZM328.261 40.71V42.135C328.261 44.505 327.556 46.995 325.516 48.27L326.701 49.74C328.906 48.36 329.761 45.255 329.761 42.135V40.71H328.261ZM328.711 40.71V42.135C328.711 45.195 329.521 48.105 331.726 49.41L332.896 47.955C330.886 46.785 330.196 44.445 330.196 42.135V40.71H328.711ZM326.041 39.84V41.445H332.236V39.84H326.041ZM348.51 38.445V52.335H350.49V38.445H348.51ZM350.04 43.86V45.525H352.5V43.86H350.04ZM339.54 40.5V42.09H347.625V40.5H339.54ZM343.605 42.87C341.58 42.87 340.08 44.25 340.08 46.185C340.08 48.12 341.58 49.5 343.605 49.5C345.63 49.5 347.13 48.12 347.13 46.185C347.13 44.25 345.63 42.87 343.605 42.87ZM343.605 44.49C344.55 44.49 345.225 45.12 345.225 46.185C345.225 47.25 344.55 47.88 343.605 47.88C342.66 47.88 341.985 47.25 341.985 46.185C341.985 45.12 342.66 44.49 343.605 44.49ZM342.6 38.67V41.1H344.595V38.67H342.6ZM362.969 38.445V52.335H364.979V38.445H362.969ZM358.874 39.885V40.245C358.874 43.965 357.434 46.485 353.444 48.405L354.479 49.995C359.414 47.61 360.854 44.13 360.854 39.885H358.874ZM354.179 39.885V41.46H359.819V39.885H354.179Z" fill="#333333"/>
<path d="M33.5971 29.0196C31.2081 29.0107 28.8576 28.4235 26.7503 27.3091C24.643 26.1947 22.8428 24.587 21.5065 22.626C20.1703 20.6649 19.3385 18.4101 19.0836 16.0578C18.8288 13.7056 19.1586 11.3273 20.0443 9.13013C20.93 6.93299 22.3448 4.98364 24.1654 3.45191C25.986 1.92017 28.1572 0.852516 30.4899 0.341944C32.8225 -0.168628 35.2458 -0.106627 37.5487 0.522545C39.8517 1.15172 41.9643 2.32898 43.7026 3.95176C43.8347 4.07991 43.9396 4.23286 44.0112 4.40166C44.0828 4.57046 44.1197 4.75172 44.1197 4.93481C44.1197 5.11791 44.0828 5.29917 44.0112 5.46797C43.9396 5.63677 43.8347 5.78972 43.7026 5.91787C43.5763 6.05401 43.4229 6.16274 43.252 6.23719C43.0812 6.31164 42.8966 6.35019 42.7099 6.35041C42.35 6.34981 42.0033 6.21665 41.7371 5.97685C39.5421 3.9098 36.626 2.76173 33.5971 2.7721C31.241 2.7721 28.9379 3.46396 26.979 4.76019C25.02 6.05642 23.4932 7.8988 22.5916 10.0543C21.69 12.2099 21.4541 14.5818 21.9137 16.8701C22.3734 19.1584 23.5079 21.2604 25.1738 22.9102C26.8398 24.56 28.9624 25.6835 31.2731 26.1387C33.5838 26.5938 35.979 26.3602 38.1557 25.4674C40.3323 24.5745 42.1928 23.0625 43.5017 21.1226C44.8106 19.1826 45.5093 16.9019 45.5093 14.5687C45.5093 14.2037 45.6557 13.8536 45.9163 13.5955C46.177 13.3374 46.5305 13.1924 46.899 13.1924C47.2676 13.1924 47.6211 13.3374 47.8818 13.5955C48.1424 13.8536 48.2888 14.2037 48.2888 14.5687C48.273 18.4136 46.7169 22.095 43.9623 24.8045C41.2076 27.514 37.4796 29.03 33.5971 29.0196Z" fill="#333333"/>
<path d="M33.5975 28.6262C31.268 28.6171 28.9763 28.0429 26.9228 26.9536C24.8693 25.8644 23.1166 24.2934 21.8182 22.3781C20.5197 20.4628 19.7151 18.2615 19.4746 15.9669C19.2341 13.6724 19.5652 11.3544 20.4387 9.21583C21.3123 7.07727 22.7019 5.18332 24.4857 3.6997C26.2696 2.21607 28.3934 1.18799 30.6714 0.705402C32.9494 0.222816 35.3121 0.300436 37.5527 0.93147C39.7934 1.5625 41.8438 2.72772 43.5244 4.32516C43.6174 4.41655 43.6913 4.52528 43.7417 4.64507C43.7921 4.76486 43.818 4.89335 43.818 5.02313C43.818 5.1529 43.7921 5.28139 43.7417 5.40119C43.6913 5.52098 43.6174 5.62971 43.5244 5.72109C43.3355 5.90247 43.0827 6.00389 42.8196 6.00389C42.5565 6.00389 42.3037 5.90247 42.1148 5.72109C40.0739 3.79212 37.4233 2.61989 34.6106 2.40242C31.798 2.18495 28.9957 2.93558 26.6773 4.52749C24.3588 6.11941 22.6663 8.45503 21.8857 11.1398C21.105 13.8245 21.2841 16.6939 22.3926 19.263C23.5011 21.8321 25.4712 23.9436 27.9699 25.2407C30.4687 26.5378 33.3429 26.941 36.1071 26.3822C38.8714 25.8234 41.3561 24.3369 43.1416 22.1737C44.927 20.0106 45.9038 17.3034 45.9068 14.5096C45.9068 14.2488 46.0114 13.9988 46.1976 13.8144C46.3838 13.6301 46.6363 13.5265 46.8995 13.5265C47.1628 13.5265 47.4153 13.6301 47.6015 13.8144C47.7876 13.9988 47.8922 14.2488 47.8922 14.5096C47.8922 16.3667 47.5222 18.2056 46.8033 19.9209C46.0845 21.6361 45.0309 23.1941 43.703 24.5054C42.3751 25.8168 40.799 26.8558 39.0649 27.5629C37.3308 28.27 35.4729 28.6314 33.5975 28.6262Z" fill="#333333"/>
<path d="M33.3986 23.0428H32.9817C31.6317 22.8588 30.4106 22.1516 29.5867 21.0767L25.0601 15.375C24.9385 15.2341 24.8473 15.07 24.7922 14.8929C24.7371 14.7158 24.7192 14.5293 24.7397 14.3451C24.7601 14.1609 24.8185 13.9828 24.9112 13.8217C25.0038 13.6607 25.1288 13.5202 25.2785 13.4089C25.5264 13.2135 25.8352 13.1092 26.152 13.1139C26.3585 13.1109 26.5629 13.1555 26.749 13.2442C26.9351 13.3329 27.0978 13.4634 27.2241 13.6251L31.8302 19.3268C32.1699 19.8209 32.6891 20.166 33.2795 20.2902C33.6594 20.2727 34.0316 20.1781 34.3731 20.0124C34.7146 19.8467 35.0181 19.6134 35.2649 19.3268C38.501 16.1417 47.5345 6.5275 47.6337 6.4292C47.7652 6.26812 47.9316 6.1385 48.1207 6.04999C48.3098 5.96148 48.5166 5.91637 48.7257 5.91801C49.0813 5.92696 49.4208 6.0669 49.6778 6.3105C49.9348 6.5541 50.0909 6.88384 50.1155 7.2353C50.1229 7.60486 49.988 7.96336 49.7382 8.23801C49.361 8.63123 40.5261 18.0685 37.2105 21.2339C36.7306 21.7738 36.1457 22.2122 35.4907 22.523C34.8357 22.8338 34.1242 23.0106 33.3986 23.0428Z" fill="#146DB6"/>
<path d="M33.3991 22.6493H33.0219C32.3966 22.551 31.7985 22.3256 31.2655 21.9872C30.7325 21.6489 30.276 21.2049 29.9247 20.6832L25.3782 15.1388C25.2244 14.9369 25.1532 14.685 25.179 14.4335C25.2048 14.1819 25.3256 13.9493 25.5172 13.7822C25.7203 13.6318 25.9722 13.5607 26.2249 13.5824C26.4775 13.6042 26.7132 13.7173 26.8871 13.9001L31.513 19.6805C31.9242 20.2539 32.5429 20.6483 33.2403 20.7815C33.6723 20.7689 34.0964 20.6641 34.4836 20.474C34.8709 20.284 35.212 20.0133 35.4838 19.6805C38.7993 16.3971 47.8328 6.80249 47.9122 6.70419C48.1011 6.52281 48.3539 6.42139 48.617 6.42139C48.8801 6.42139 49.1329 6.52281 49.3218 6.70419C49.4148 6.79557 49.4887 6.9043 49.5391 7.02409C49.5895 7.14389 49.6154 7.27238 49.6154 7.40215C49.6154 7.53193 49.5895 7.66042 49.5391 7.78021C49.4887 7.9 49.4148 8.00873 49.3218 8.10012C49.3218 8.10012 40.2288 17.7144 36.814 21.0174C36.3812 21.4986 35.8568 21.8904 35.2708 22.1704C34.6848 22.4505 34.0487 22.6132 33.3991 22.6493Z" fill="#146DB6"/>
<path d="M135.667 29.0197C133.317 29.0221 131.001 28.4647 128.914 27.3946C126.828 26.3244 125.031 24.7729 123.677 22.8709C122.323 20.969 121.451 18.7723 121.134 16.4664C120.817 14.1605 121.065 11.8129 121.856 9.62171C122.648 7.43055 123.96 5.46011 125.683 3.87665C127.405 2.2932 129.486 1.14318 131.751 0.52363C134.017 -0.0959163 136.399 -0.166811 138.698 0.316926C140.996 0.800664 143.144 1.82484 144.959 3.30304C145.179 3.48281 145.338 3.7253 145.414 3.99758C145.49 4.26987 145.48 4.55876 145.384 4.82502C145.289 5.09128 145.113 5.32201 144.881 5.48588C144.648 5.64976 144.371 5.73883 144.085 5.74101C143.763 5.74245 143.449 5.63882 143.192 5.44609C141.721 4.22048 139.973 3.3654 138.097 2.95385C136.22 2.54231 134.271 2.58651 132.416 3.08268C130.56 3.57886 128.853 4.51227 127.441 5.80326C126.029 7.09424 124.953 8.70445 124.305 10.4965C123.658 12.2885 123.458 14.209 123.722 16.0942C123.987 17.9794 124.708 19.7733 125.824 21.3227C126.94 22.8721 128.418 24.131 130.132 24.992C131.846 25.853 133.745 26.2905 135.667 26.2671C136.036 26.2671 136.389 26.4121 136.65 26.6702C136.911 26.9283 137.057 27.2784 137.057 27.6434C137.057 28.0084 136.911 28.3585 136.65 28.6166C136.389 28.8747 136.036 29.0197 135.667 29.0197Z" fill="#333333"/>
<path d="M135.667 28.6262C133.379 28.6317 131.124 28.0918 129.091 27.052C127.058 26.0123 125.308 24.5033 123.989 22.6526C122.669 20.8018 121.818 18.6637 121.509 16.4189C121.199 14.174 121.44 11.8884 122.211 9.75513C122.981 7.62184 124.259 5.70356 125.936 4.16236C127.613 2.62117 129.64 1.50233 131.846 0.900395C134.051 0.298457 136.371 0.231096 138.608 0.704006C140.846 1.17692 142.935 2.1762 144.701 3.61743C144.803 3.69758 144.888 3.79721 144.95 3.91041C145.012 4.02362 145.051 4.14809 145.064 4.27645C145.077 4.4048 145.064 4.53443 145.026 4.65764C144.987 4.78085 144.924 4.89513 144.84 4.9937C144.759 5.09478 144.658 5.17873 144.544 5.24058C144.43 5.30242 144.304 5.34091 144.174 5.35374C144.045 5.36658 143.914 5.35351 143.789 5.3153C143.665 5.27709 143.55 5.21453 143.45 5.13133C141.924 3.93077 140.132 3.10796 138.22 2.73123C136.309 2.35449 134.335 2.43471 132.461 2.96521C130.588 3.49571 128.869 4.46119 127.448 5.78148C126.027 7.10176 124.944 8.73875 124.29 10.5565C123.636 12.3743 123.429 14.3203 123.687 16.2331C123.945 18.1459 124.659 19.9702 125.772 21.5545C126.884 23.1388 128.363 24.4374 130.084 25.3425C131.805 26.2476 133.719 26.733 135.667 26.7584C135.931 26.7584 136.183 26.862 136.369 27.0464C136.555 27.2307 136.66 27.4808 136.66 27.7415C136.66 28.0022 136.555 28.2523 136.369 28.4366C136.183 28.621 135.931 28.7246 135.667 28.7246V28.6262Z" fill="#333333"/>
<path d="M143.31 26.6211C143.015 26.6227 142.727 26.5311 142.488 26.3597C142.249 26.1882 142.071 25.9459 141.98 25.6677C141.89 25.3895 141.891 25.0899 141.983 24.8124C142.076 24.5349 142.256 24.2938 142.496 24.1242C144.049 23.0391 145.316 21.6021 146.193 19.933C147.071 18.2639 147.532 16.4112 147.539 14.5296C147.539 14.1646 147.685 13.8145 147.946 13.5564C148.207 13.2983 148.56 13.1533 148.929 13.1533C149.297 13.1533 149.651 13.2983 149.911 13.5564C150.172 13.8145 150.319 14.1646 150.319 14.5296C150.31 16.8445 149.741 19.1236 148.66 21.176C147.578 23.2284 146.016 24.9944 144.104 26.3262C143.88 26.509 143.601 26.6127 143.31 26.6211Z" fill="#333333"/>
<path d="M143.31 26.2277C143.151 26.2302 142.993 26.1939 142.851 26.1219C142.709 26.0499 142.587 25.9445 142.496 25.8148C142.42 25.7092 142.366 25.5896 142.337 25.4631C142.307 25.3365 142.304 25.2055 142.326 25.0775C142.348 24.9496 142.395 24.8272 142.466 24.7176C142.536 24.6079 142.627 24.5131 142.735 24.4386C144.329 23.328 145.632 21.8567 146.537 20.1469C147.442 18.4372 147.922 16.5383 147.936 14.6081C147.936 14.3473 148.041 14.0973 148.227 13.9129C148.413 13.7286 148.666 13.625 148.929 13.625C149.192 13.625 149.445 13.7286 149.631 13.9129C149.817 14.0973 149.922 14.3473 149.922 14.6081C149.925 16.8591 149.387 19.0786 148.351 21.0823C147.315 23.0861 145.812 24.8163 143.965 26.1294C143.764 26.2326 143.534 26.2671 143.31 26.2277Z" fill="#333333"/>
<path d="M147.281 9.5749C147.034 9.57424 146.791 9.5083 146.578 9.38389C146.366 9.25947 146.19 9.08108 146.07 8.8671C145.341 7.55447 144.363 6.39302 143.191 5.44609C142.904 5.21404 142.722 4.87861 142.685 4.51358C142.648 4.14856 142.758 3.78383 142.993 3.49964C143.227 3.21546 143.566 3.03509 143.934 2.99822C144.303 2.96135 144.671 3.07099 144.958 3.30303C146.398 4.48086 147.603 5.91444 148.512 7.53015C148.689 7.84832 148.732 8.22289 148.631 8.57219C148.517 8.92094 148.277 9.21532 147.956 9.39795C147.751 9.51541 147.518 9.5765 147.281 9.5749Z" fill="#333333"/>
<path d="M147.281 9.1814C147.103 9.17602 146.93 9.12634 146.778 9.03697C146.625 8.94759 146.498 8.82143 146.407 8.67021C145.658 7.31445 144.654 6.11318 143.449 5.13123C143.247 4.96621 143.12 4.72909 143.094 4.47139C143.068 4.21369 143.145 3.95623 143.31 3.75496C143.391 3.65388 143.492 3.56993 143.606 3.50808C143.72 3.44624 143.846 3.40775 143.976 3.39492C144.105 3.38208 144.236 3.39515 144.36 3.43336C144.485 3.47157 144.6 3.53413 144.7 3.61733C146.112 4.75024 147.285 6.14629 148.154 7.72648C148.237 7.87639 148.279 8.04508 148.276 8.21593C148.273 8.38678 148.225 8.55389 148.137 8.70076C148.049 8.84764 147.923 8.96921 147.773 9.0535C147.623 9.13778 147.453 9.18186 147.281 9.1814Z" fill="#333333"/>
<path d="M237.667 29.0197C235.317 29.0221 233.001 28.4647 230.914 27.3946C228.828 26.3244 227.031 24.7729 225.677 22.8709C224.323 20.969 223.451 18.7723 223.134 16.4664C222.817 14.1605 223.065 11.8129 223.856 9.62171C224.648 7.43055 225.96 5.46011 227.683 3.87665C229.405 2.2932 231.486 1.14318 233.751 0.52363C236.017 -0.0959163 238.399 -0.166811 240.698 0.316926C242.996 0.800664 245.144 1.82484 246.959 3.30304C247.179 3.48281 247.338 3.7253 247.414 3.99758C247.49 4.26987 247.48 4.55876 247.384 4.82502C247.289 5.09128 247.113 5.32201 246.881 5.48588C246.648 5.64976 246.371 5.73883 246.085 5.74101C245.763 5.74245 245.449 5.63882 245.192 5.44609C243.721 4.22048 241.973 3.3654 240.097 2.95385C238.22 2.54231 236.271 2.58651 234.416 3.08268C232.56 3.57886 230.853 4.51227 229.441 5.80326C228.029 7.09424 226.953 8.70445 226.305 10.4965C225.658 12.2885 225.458 14.209 225.722 16.0942C225.987 17.9794 226.708 19.7733 227.824 21.3227C228.94 22.8721 230.418 24.131 232.132 24.992C233.846 25.853 235.745 26.2905 237.667 26.2671C238.036 26.2671 238.389 26.4121 238.65 26.6702C238.911 26.9283 239.057 27.2784 239.057 27.6434C239.057 28.0084 238.911 28.3585 238.65 28.6166C238.389 28.8747 238.036 29.0197 237.667 29.0197Z" fill="#333333"/>
<path d="M237.668 28.6262C235.379 28.6348 233.122 28.0976 231.087 27.0599C229.052 26.0222 227.3 24.5146 225.978 22.6646C224.655 20.8145 223.803 18.6764 223.491 16.431C223.18 14.1857 223.419 11.899 224.188 9.76439C224.957 7.6298 226.234 5.71003 227.911 4.1674C229.588 2.62477 231.615 1.50464 233.821 0.901716C236.028 0.29879 238.348 0.230794 240.586 0.703478C242.825 1.17616 244.915 2.17563 246.681 3.61737C246.783 3.69752 246.868 3.79715 246.93 3.91035C246.993 4.02356 247.032 4.14803 247.045 4.27638C247.058 4.40474 247.044 4.53437 247.006 4.65758C246.967 4.78078 246.904 4.89507 246.82 4.99364C246.739 5.09472 246.639 5.17867 246.524 5.24052C246.41 5.30236 246.284 5.34085 246.155 5.35368C246.025 5.36652 245.894 5.35344 245.77 5.31524C245.645 5.27703 245.53 5.21447 245.43 5.13127C243.905 3.93071 242.112 3.1079 240.201 2.73117C238.29 2.35443 236.315 2.43465 234.442 2.96515C232.568 3.49565 230.849 4.46113 229.428 5.78142C228.007 7.1017 226.925 8.73869 226.27 10.5564C225.616 12.3742 225.409 14.3203 225.667 16.233C225.925 18.1458 226.64 19.9701 227.752 21.5544C228.865 23.1387 230.343 24.4373 232.064 25.3424C233.785 26.2475 235.699 26.7329 237.648 26.7584C237.911 26.7584 238.163 26.862 238.35 27.0463C238.536 27.2307 238.64 27.4807 238.64 27.7414C238.64 28.0022 238.536 28.2522 238.35 28.4366C238.163 28.6209 237.911 28.7245 237.648 28.7245L237.668 28.6262Z" fill="#333333"/>
<path d="M245.311 26.6211C245.016 26.6227 244.728 26.5311 244.489 26.3597C244.25 26.1882 244.072 25.9459 243.981 25.6677C243.891 25.3895 243.892 25.0899 243.984 24.8124C244.077 24.5349 244.257 24.2938 244.497 24.1242C246.049 23.0391 247.317 21.6021 248.194 19.933C249.072 18.2639 249.533 16.4112 249.54 14.5296C249.54 14.1646 249.686 13.8145 249.947 13.5564C250.208 13.2983 250.561 13.1533 250.93 13.1533C251.298 13.1533 251.652 13.2983 251.912 13.5564C252.173 13.8145 252.32 14.1646 252.32 14.5296C252.311 16.8445 251.742 19.1236 250.66 21.176C249.579 23.2284 248.017 24.9944 246.105 26.3262C245.881 26.509 245.602 26.6127 245.311 26.6211Z" fill="#333333"/>
<path d="M245.311 26.2277C245.152 26.2302 244.994 26.1939 244.852 26.1219C244.71 26.0499 244.588 25.9445 244.497 25.8148C244.421 25.7092 244.367 25.5896 244.338 25.4631C244.308 25.3365 244.305 25.2055 244.327 25.0775C244.349 24.9496 244.396 24.8272 244.467 24.7176C244.537 24.6079 244.628 24.5131 244.736 24.4386C246.33 23.328 247.633 21.8567 248.538 20.1469C249.443 18.4372 249.922 16.5383 249.937 14.6081C249.937 14.3473 250.042 14.0973 250.228 13.9129C250.414 13.7286 250.667 13.625 250.93 13.625C251.193 13.625 251.446 13.7286 251.632 13.9129C251.818 14.0973 251.923 14.3473 251.923 14.6081C251.926 16.8591 251.388 19.0786 250.352 21.0823C249.316 23.0861 247.813 24.8163 245.966 26.1294C245.765 26.2326 245.535 26.2671 245.311 26.2277Z" fill="#333333"/>
<path d="M249.282 9.5749C249.035 9.57424 248.792 9.5083 248.579 9.38389C248.366 9.25947 248.191 9.08108 248.071 8.8671C247.342 7.55447 246.364 6.39302 245.192 5.44609C244.905 5.21404 244.723 4.87861 244.686 4.51358C244.649 4.14856 244.759 3.78383 244.994 3.49964C245.228 3.21546 245.567 3.03509 245.935 2.99822C246.304 2.96135 246.672 3.07099 246.959 3.30303C248.399 4.48086 249.604 5.91444 250.513 7.53015C250.587 7.6941 250.625 7.87163 250.625 8.05117C250.625 8.23071 250.587 8.40824 250.513 8.57219C250.413 8.92238 250.178 9.21927 249.858 9.39795C249.682 9.49979 249.485 9.56033 249.282 9.5749Z" fill="#333333"/>
<path d="M249.282 9.1814C249.104 9.17602 248.931 9.12634 248.779 9.03697C248.626 8.94759 248.499 8.82143 248.408 8.67021C247.659 7.31445 246.655 6.11318 245.45 5.13123C245.248 4.96621 245.121 4.72909 245.095 4.47139C245.069 4.21369 245.146 3.95623 245.311 3.75496C245.392 3.65388 245.493 3.56993 245.607 3.50808C245.721 3.44624 245.847 3.40775 245.977 3.39492C246.106 3.38208 246.237 3.39515 246.361 3.43336C246.486 3.47157 246.601 3.53413 246.701 3.61733C248.113 4.75024 249.286 6.14629 250.155 7.72648C250.238 7.87639 250.28 8.04508 250.277 8.21593C250.274 8.38678 250.226 8.55389 250.138 8.70076C250.05 8.84764 249.924 8.96921 249.774 9.0535C249.624 9.13778 249.454 9.18186 249.282 9.1814Z" fill="#333333"/>
<path d="M58.5987 16.5292C58.1599 16.4831 57.7537 16.2779 57.4585 15.953C57.1633 15.6281 57 15.2065 57 14.7695C57 14.3324 57.1633 13.9109 57.4585 13.586C57.7537 13.2611 58.1599 13.0558 58.5987 13.0098H62.1129C62.362 12.9837 62.6139 13.0098 62.8522 13.0863C63.0905 13.1628 63.3098 13.2881 63.4961 13.4541C63.6823 13.62 63.8312 13.8229 63.9332 14.0495C64.0351 14.2761 64.0878 14.5214 64.0878 14.7695C64.0878 15.0176 64.0351 15.2629 63.9332 15.4895C63.8312 15.7161 63.6823 15.919 63.4961 16.0849C63.3098 16.2509 63.0905 16.3761 62.8522 16.4527C62.6139 16.5292 62.362 16.5553 62.1129 16.5292H58.5987Z" fill="#5FBEE6"/>
<path d="M62.1324 13.4033H58.5984C57.8418 13.4033 57.2285 14.0107 57.2285 14.7599V14.7796C57.2285 15.5288 57.8418 16.1362 58.5984 16.1362H62.1324C62.889 16.1362 63.5023 15.5288 63.5023 14.7796V14.7599C63.5023 14.0107 62.889 13.4033 62.1324 13.4033Z" fill="#5FBEE6"/>
<path d="M66.9571 16.5292C66.5183 16.4831 66.1121 16.2779 65.8169 15.953C65.5217 15.6281 65.3584 15.2065 65.3584 14.7695C65.3584 14.3324 65.5217 13.9109 65.8169 13.586C66.1121 13.2611 66.5183 13.0558 66.9571 13.0098H70.4713C70.7204 12.9837 70.9723 13.0098 71.2106 13.0863C71.4489 13.1628 71.6682 13.2881 71.8545 13.4541C72.0407 13.62 72.1896 13.8229 72.2916 14.0495C72.3935 14.2761 72.4462 14.5214 72.4462 14.7695C72.4462 15.0176 72.3935 15.2629 72.2916 15.4895C72.1896 15.7161 72.0407 15.919 71.8545 16.0849C71.6682 16.2509 71.4489 16.3761 71.2106 16.4527C70.9723 16.5292 70.7204 16.5553 70.4713 16.5292H66.9571Z" fill="#5FBEE6"/>
<path d="M70.4908 13.4033H66.9568C66.2002 13.4033 65.5869 14.0107 65.5869 14.7599V14.7796C65.5869 15.5288 66.2002 16.1362 66.9568 16.1362H70.4908C71.2474 16.1362 71.8607 15.5288 71.8607 14.7796V14.7599C71.8607 14.0107 71.2474 13.4033 70.4908 13.4033Z" fill="#5FBEE6"/>
<path d="M75.3546 16.5292C74.9157 16.4831 74.5096 16.2779 74.2144 15.953C73.9192 15.6281 73.7559 15.2065 73.7559 14.7695C73.7559 14.3324 73.9192 13.9109 74.2144 13.586C74.5096 13.2611 74.9157 13.0558 75.3546 13.0098H78.8687C79.1178 12.9837 79.3697 13.0098 79.608 13.0863C79.8463 13.1628 80.0657 13.2881 80.2519 13.4541C80.4382 13.62 80.5871 13.8229 80.689 14.0495C80.791 14.2761 80.8436 14.5214 80.8436 14.7695C80.8436 15.0176 80.791 15.2629 80.689 15.4895C80.5871 15.7161 80.4382 15.919 80.2519 16.0849C80.0657 16.2509 79.8463 16.3761 79.608 16.4527C79.3697 16.5292 79.1178 16.5553 78.8687 16.5292H75.3546Z" fill="#5FBEE6"/>
<path d="M78.8492 13.4033H75.3152C74.5586 13.4033 73.9453 14.0107 73.9453 14.7599V14.7796C73.9453 15.5288 74.5586 16.1362 75.3152 16.1362H78.8492C79.6058 16.1362 80.2191 15.5288 80.2191 14.7796V14.7599C80.2191 14.0107 79.6058 13.4033 78.8492 13.4033Z" fill="#5FBEE6"/>
<path d="M83.6739 16.5292C83.2351 16.4831 82.8289 16.2779 82.5337 15.953C82.2385 15.6281 82.0752 15.2065 82.0752 14.7695C82.0752 14.3324 82.2385 13.9109 82.5337 13.586C82.8289 13.2611 83.2351 13.0558 83.6739 13.0098H87.2675C87.5166 12.9837 87.7685 13.0098 88.0068 13.0863C88.2451 13.1628 88.4645 13.2881 88.6507 13.4541C88.8369 13.62 88.9858 13.8229 89.0878 14.0495C89.1897 14.2761 89.2424 14.5214 89.2424 14.7695C89.2424 15.0176 89.1897 15.2629 89.0878 15.4895C88.9858 15.7161 88.8369 15.919 88.6507 16.0849C88.4645 16.2509 88.2451 16.3761 88.0068 16.4527C87.7685 16.5292 87.5166 16.5553 87.2675 16.5292H83.6739Z" fill="#5FBEE6"/>
<path d="M87.2076 13.4033H83.6736C82.917 13.4033 82.3037 14.0107 82.3037 14.7599V14.7796C82.3037 15.5288 82.917 16.1362 83.6736 16.1362H87.2076C87.9642 16.1362 88.5775 15.5288 88.5775 14.7796V14.7599C88.5775 14.0107 87.9642 13.4033 87.2076 13.4033Z" fill="#5FBEE6"/>
<path d="M92.0323 16.5292C91.5935 16.4831 91.1873 16.2779 90.8921 15.953C90.5969 15.6281 90.4336 15.2065 90.4336 14.7695C90.4336 14.3324 90.5969 13.9109 90.8921 13.586C91.1873 13.2611 91.5935 13.0558 92.0323 13.0098H95.5464C95.7956 12.9837 96.0474 13.0098 96.2857 13.0863C96.524 13.1628 96.7434 13.2881 96.9297 13.4541C97.1159 13.62 97.2648 13.8229 97.3667 14.0495C97.4687 14.2761 97.5214 14.5214 97.5214 14.7695C97.5214 15.0176 97.4687 15.2629 97.3667 15.4895C97.2648 15.7161 97.1159 15.919 96.9297 16.0849C96.7434 16.2509 96.524 16.3761 96.2857 16.4527C96.0474 16.5292 95.7956 16.5553 95.5464 16.5292H92.0323Z" fill="#5FBEE6"/>
<path d="M95.566 13.4033H92.032C91.2754 13.4033 90.6621 14.0107 90.6621 14.7599V14.7796C90.6621 15.5288 91.2754 16.1362 92.032 16.1362H95.566C96.3226 16.1362 96.9359 15.5288 96.9359 14.7796V14.7599C96.9359 14.0107 96.3226 13.4033 95.566 13.4033Z" fill="#5FBEE6"/>
<path d="M100.391 16.5292C99.9519 16.4831 99.5457 16.2779 99.2505 15.953C98.9553 15.6281 98.792 15.2065 98.792 14.7695C98.792 14.3324 98.9553 13.9109 99.2505 13.586C99.5457 13.2611 99.9519 13.0558 100.391 13.0098H103.905C104.154 12.9837 104.406 13.0098 104.644 13.0863C104.882 13.1628 105.102 13.2881 105.288 13.4541C105.474 13.62 105.623 13.8229 105.725 14.0495C105.827 14.2761 105.88 14.5214 105.88 14.7695C105.88 15.0176 105.827 15.2629 105.725 15.4895C105.623 15.7161 105.474 15.919 105.288 16.0849C105.102 16.2509 104.882 16.3761 104.644 16.4527C104.406 16.5292 104.154 16.5553 103.905 16.5292H100.391Z" fill="#5FBEE6"/>
<path d="M103.924 13.4033H100.39C99.6338 13.4033 99.0205 14.0107 99.0205 14.7599V14.7796C99.0205 15.5288 99.6338 16.1362 100.39 16.1362H103.924C104.681 16.1362 105.294 15.5288 105.294 14.7796V14.7599C105.294 14.0107 104.681 13.4033 103.924 13.4033Z" fill="#5FBEE6"/>
<path d="M108.749 16.5292C108.31 16.4831 107.904 16.2779 107.609 15.953C107.314 15.6281 107.15 15.2065 107.15 14.7695C107.15 14.3324 107.314 13.9109 107.609 13.586C107.904 13.2611 108.31 13.0558 108.749 13.0098H112.263C112.512 12.9837 112.764 13.0098 113.003 13.0863C113.241 13.1628 113.46 13.2881 113.646 13.4541C113.833 13.62 113.982 13.8229 114.084 14.0495C114.185 14.2761 114.238 14.5214 114.238 14.7695C114.238 15.0176 114.185 15.2629 114.084 15.4895C113.982 15.7161 113.833 15.919 113.646 16.0849C113.46 16.2509 113.241 16.3761 113.003 16.4527C112.764 16.5292 112.512 16.5553 112.263 16.5292H108.749Z" fill="#5FBEE6"/>
<path d="M112.283 13.4033H108.749C107.992 13.4033 107.379 14.0107 107.379 14.7599V14.7796C107.379 15.5288 107.992 16.1362 108.749 16.1362H112.283C113.039 16.1362 113.653 15.5288 113.653 14.7796V14.7599C113.653 14.0107 113.039 13.4033 112.283 13.4033Z" fill="#5FBEE6"/>
<path d="M159.599 16.5292C159.16 16.4831 158.754 16.2779 158.459 15.953C158.163 15.6281 158 15.2065 158 14.7695C158 14.3324 158.163 13.9109 158.459 13.586C158.754 13.2611 159.16 13.0558 159.599 13.0098H163.113C163.362 12.9837 163.614 13.0098 163.852 13.0863C164.09 13.1628 164.31 13.2881 164.496 13.4541C164.682 13.62 164.831 13.8229 164.933 14.0495C165.035 14.2761 165.088 14.5214 165.088 14.7695C165.088 15.0176 165.035 15.2629 164.933 15.4895C164.831 15.7161 164.682 15.919 164.496 16.0849C164.31 16.2509 164.09 16.3761 163.852 16.4527C163.614 16.5292 163.362 16.5553 163.113 16.5292H159.599Z" fill="#333333"/>
<path d="M163.133 13.4033H159.599C158.843 13.4033 158.229 14.0107 158.229 14.7599V14.7796C158.229 15.5288 158.843 16.1362 159.599 16.1362H163.133C163.89 16.1362 164.503 15.5288 164.503 14.7796V14.7599C164.503 14.0107 163.89 13.4033 163.133 13.4033Z" fill="#333333"/>
<path d="M167.957 16.5292C167.518 16.4831 167.112 16.2779 166.817 15.953C166.522 15.6281 166.358 15.2065 166.358 14.7695C166.358 14.3324 166.522 13.9109 166.817 13.586C167.112 13.2611 167.518 13.0558 167.957 13.0098H171.471C171.72 12.9837 171.972 13.0098 172.211 13.0863C172.449 13.1628 172.668 13.2881 172.854 13.4541C173.041 13.62 173.19 13.8229 173.292 14.0495C173.393 14.2761 173.446 14.5214 173.446 14.7695C173.446 15.0176 173.393 15.2629 173.292 15.4895C173.19 15.7161 173.041 15.919 172.854 16.0849C172.668 16.2509 172.449 16.3761 172.211 16.4527C171.972 16.5292 171.72 16.5553 171.471 16.5292H167.957Z" fill="#333333"/>
<path d="M171.492 13.4033H167.958C167.201 13.4033 166.588 14.0107 166.588 14.7599V14.7796C166.588 15.5288 167.201 16.1362 167.958 16.1362H171.492C172.248 16.1362 172.862 15.5288 172.862 14.7796V14.7599C172.862 14.0107 172.248 13.4033 171.492 13.4033Z" fill="#333333"/>
<path d="M176.316 16.5292C175.877 16.4831 175.47 16.2779 175.175 15.953C174.88 15.6281 174.717 15.2065 174.717 14.7695C174.717 14.3324 174.88 13.9109 175.175 13.586C175.47 13.2611 175.877 13.0558 176.316 13.0098H179.83C180.079 12.9837 180.331 13.0098 180.569 13.0863C180.807 13.1628 181.027 13.2881 181.213 13.4541C181.399 13.62 181.548 13.8229 181.65 14.0495C181.752 14.2761 181.805 14.5214 181.805 14.7695C181.805 15.0176 181.752 15.2629 181.65 15.4895C181.548 15.7161 181.399 15.919 181.213 16.0849C181.027 16.2509 180.807 16.3761 180.569 16.4527C180.331 16.5292 180.079 16.5553 179.83 16.5292H176.316Z" fill="#333333"/>
<path d="M179.85 13.4033H176.316C175.56 13.4033 174.946 14.0107 174.946 14.7599V14.7796C174.946 15.5288 175.56 16.1362 176.316 16.1362H179.85C180.607 16.1362 181.22 15.5288 181.22 14.7796V14.7599C181.22 14.0107 180.607 13.4033 179.85 13.4033Z" fill="#333333"/>
<path d="M184.674 16.5292C184.235 16.4831 183.829 16.2779 183.534 15.953C183.239 15.6281 183.075 15.2065 183.075 14.7695C183.075 14.3324 183.239 13.9109 183.534 13.586C183.829 13.2611 184.235 13.0558 184.674 13.0098H188.188C188.437 12.9837 188.689 13.0098 188.927 13.0863C189.166 13.1628 189.385 13.2881 189.571 13.4541C189.757 13.62 189.906 13.8229 190.008 14.0495C190.11 14.2761 190.163 14.5214 190.163 14.7695C190.163 15.0176 190.11 15.2629 190.008 15.4895C189.906 15.7161 189.757 15.919 189.571 16.0849C189.385 16.2509 189.166 16.3761 188.927 16.4527C188.689 16.5292 188.437 16.5553 188.188 16.5292H184.674Z" fill="#333333"/>
<path d="M188.209 13.4033H184.675C183.918 13.4033 183.305 14.0107 183.305 14.7599V14.7796C183.305 15.5288 183.918 16.1362 184.675 16.1362H188.209C188.965 16.1362 189.578 15.5288 189.578 14.7796V14.7599C189.578 14.0107 188.965 13.4033 188.209 13.4033Z" fill="#333333"/>
<path d="M193.053 16.5292C192.614 16.4831 192.208 16.2779 191.913 15.953C191.617 15.6281 191.454 15.2065 191.454 14.7695C191.454 14.3324 191.617 13.9109 191.913 13.586C192.208 13.2611 192.614 13.0558 193.053 13.0098H196.567C196.816 12.9837 197.068 13.0098 197.306 13.0863C197.545 13.1628 197.764 13.2881 197.95 13.4541C198.136 13.62 198.285 13.8229 198.387 14.0495C198.489 14.2761 198.542 14.5214 198.542 14.7695C198.542 15.0176 198.489 15.2629 198.387 15.4895C198.285 15.7161 198.136 15.919 197.95 16.0849C197.764 16.2509 197.545 16.3761 197.306 16.4527C197.068 16.5292 196.816 16.5553 196.567 16.5292H193.053Z" fill="#333333"/>
<path d="M196.567 13.4033H193.033C192.276 13.4033 191.663 14.0107 191.663 14.7599V14.7796C191.663 15.5288 192.276 16.1362 193.033 16.1362H196.567C197.324 16.1362 197.937 15.5288 197.937 14.7796V14.7599C197.937 14.0107 197.324 13.4033 196.567 13.4033Z" fill="#333333"/>
<path d="M201.391 16.5292C200.952 16.4831 200.546 16.2779 200.251 15.953C199.955 15.6281 199.792 15.2065 199.792 14.7695C199.792 14.3324 199.955 13.9109 200.251 13.586C200.546 13.2611 200.952 13.0558 201.391 13.0098H204.964C205.214 12.9837 205.465 13.0098 205.704 13.0863C205.942 13.1628 206.161 13.2881 206.348 13.4541C206.534 13.62 206.683 13.8229 206.785 14.0495C206.887 14.2761 206.939 14.5214 206.939 14.7695C206.939 15.0176 206.887 15.2629 206.785 15.4895C206.683 15.7161 206.534 15.919 206.348 16.0849C206.161 16.2509 205.942 16.3761 205.704 16.4527C205.465 16.5292 205.214 16.5553 204.964 16.5292H201.391Z" fill="#333333"/>
<path d="M204.925 13.4033H201.391C200.635 13.4033 200.021 14.0107 200.021 14.7599V14.7796C200.021 15.5288 200.635 16.1362 201.391 16.1362H204.925C205.682 16.1362 206.295 15.5288 206.295 14.7796V14.7599C206.295 14.0107 205.682 13.4033 204.925 13.4033Z" fill="#333333"/>
<path d="M209.749 16.5292C209.31 16.4831 208.904 16.2779 208.609 15.953C208.314 15.6281 208.15 15.2065 208.15 14.7695C208.15 14.3324 208.314 13.9109 208.609 13.586C208.904 13.2611 209.31 13.0558 209.749 13.0098H213.263C213.512 12.9837 213.764 13.0098 214.003 13.0863C214.241 13.1628 214.46 13.2881 214.646 13.4541C214.833 13.62 214.982 13.8229 215.084 14.0495C215.185 14.2761 215.238 14.5214 215.238 14.7695C215.238 15.0176 215.185 15.2629 215.084 15.4895C214.982 15.7161 214.833 15.919 214.646 16.0849C214.46 16.2509 214.241 16.3761 214.003 16.4527C213.764 16.5292 213.512 16.5553 213.263 16.5292H209.749Z" fill="#333333"/>
<path d="M213.284 13.4033H209.75C208.993 13.4033 208.38 14.0107 208.38 14.7599V14.7796C208.38 15.5288 208.993 16.1362 209.75 16.1362H213.284C214.04 16.1362 214.654 15.5288 214.654 14.7796V14.7599C214.654 14.0107 214.04 13.4033 213.284 13.4033Z" fill="#333333"/>
<path d="M338.667 29.0197C336.317 29.0221 334.001 28.4647 331.914 27.3946C329.828 26.3244 328.031 24.7729 326.677 22.8709C325.323 20.969 324.451 18.7723 324.134 16.4664C323.817 14.1605 324.065 11.8129 324.856 9.62171C325.648 7.43055 326.96 5.46011 328.683 3.87665C330.405 2.2932 332.486 1.14318 334.751 0.52363C337.017 -0.0959163 339.399 -0.166811 341.698 0.316926C343.996 0.800664 346.144 1.82484 347.959 3.30304C348.179 3.48281 348.338 3.7253 348.414 3.99758C348.49 4.26987 348.48 4.55876 348.384 4.82502C348.289 5.09128 348.113 5.32201 347.881 5.48588C347.648 5.64976 347.371 5.73883 347.085 5.74101C346.763 5.74245 346.449 5.63882 346.192 5.44609C344.721 4.22048 342.973 3.3654 341.097 2.95385C339.22 2.54231 337.271 2.58651 335.416 3.08268C333.56 3.57886 331.853 4.51227 330.441 5.80326C329.029 7.09424 327.953 8.70445 327.305 10.4965C326.658 12.2885 326.458 14.209 326.722 16.0942C326.987 17.9794 327.708 19.7733 328.824 21.3227C329.94 22.8721 331.418 24.131 333.132 24.992C334.846 25.853 336.745 26.2905 338.667 26.2671C339.036 26.2671 339.389 26.4121 339.65 26.6702C339.911 26.9283 340.057 27.2784 340.057 27.6434C340.057 28.0084 339.911 28.3585 339.65 28.6166C339.389 28.8747 339.036 29.0197 338.667 29.0197Z" fill="#333333"/>
<path d="M338.668 28.6262C336.379 28.6348 334.122 28.0976 332.087 27.0599C330.052 26.0222 328.3 24.5146 326.978 22.6646C325.655 20.8145 324.803 18.6764 324.491 16.431C324.18 14.1857 324.419 11.899 325.188 9.76439C325.957 7.6298 327.234 5.71003 328.911 4.1674C330.588 2.62477 332.615 1.50464 334.821 0.901716C337.028 0.29879 339.348 0.230794 341.586 0.703478C343.825 1.17616 345.915 2.17563 347.681 3.61737C347.783 3.69752 347.868 3.79715 347.93 3.91035C347.993 4.02356 348.032 4.14803 348.045 4.27638C348.058 4.40474 348.044 4.53437 348.006 4.65758C347.967 4.78078 347.904 4.89507 347.82 4.99364C347.739 5.09472 347.639 5.17867 347.524 5.24052C347.41 5.30236 347.284 5.34085 347.155 5.35368C347.025 5.36652 346.894 5.35344 346.77 5.31524C346.645 5.27703 346.53 5.21447 346.43 5.13127C344.905 3.93071 343.112 3.1079 341.201 2.73117C339.29 2.35443 337.315 2.43465 335.442 2.96515C333.568 3.49565 331.849 4.46113 330.428 5.78142C329.007 7.1017 327.925 8.73869 327.27 10.5564C326.616 12.3742 326.409 14.3203 326.667 16.233C326.925 18.1458 327.64 19.9701 328.752 21.5544C329.865 23.1387 331.343 24.4373 333.064 25.3424C334.785 26.2475 336.699 26.7329 338.648 26.7584C338.911 26.7584 339.163 26.862 339.35 27.0463C339.536 27.2307 339.64 27.4807 339.64 27.7414C339.64 28.0022 339.536 28.2522 339.35 28.4366C339.163 28.6209 338.911 28.7245 338.648 28.7245L338.668 28.6262Z" fill="#333333"/>
<path d="M346.311 26.6211C346.016 26.6227 345.728 26.5311 345.489 26.3597C345.25 26.1882 345.072 25.9459 344.981 25.6677C344.891 25.3895 344.892 25.0899 344.984 24.8124C345.077 24.5349 345.257 24.2938 345.497 24.1242C347.049 23.0391 348.317 21.6021 349.194 19.933C350.072 18.2639 350.533 16.4112 350.54 14.5296C350.54 14.1646 350.686 13.8145 350.947 13.5564C351.208 13.2983 351.561 13.1533 351.93 13.1533C352.298 13.1533 352.652 13.2983 352.912 13.5564C353.173 13.8145 353.32 14.1646 353.32 14.5296C353.311 16.8445 352.742 19.1236 351.66 21.176C350.579 23.2284 349.017 24.9944 347.105 26.3262C346.881 26.509 346.602 26.6127 346.311 26.6211Z" fill="#333333"/>
<path d="M346.311 26.2277C346.152 26.2302 345.994 26.1939 345.852 26.1219C345.71 26.0499 345.588 25.9445 345.497 25.8148C345.421 25.7092 345.367 25.5896 345.338 25.4631C345.308 25.3365 345.305 25.2055 345.327 25.0775C345.349 24.9496 345.396 24.8272 345.467 24.7176C345.537 24.6079 345.628 24.5131 345.736 24.4386C347.33 23.328 348.633 21.8567 349.538 20.1469C350.443 18.4372 350.922 16.5383 350.937 14.6081C350.937 14.3473 351.042 14.0973 351.228 13.9129C351.414 13.7286 351.667 13.625 351.93 13.625C352.193 13.625 352.446 13.7286 352.632 13.9129C352.818 14.0973 352.923 14.3473 352.923 14.6081C352.926 16.8591 352.388 19.0786 351.352 21.0823C350.316 23.0861 348.813 24.8163 346.966 26.1294C346.765 26.2326 346.535 26.2671 346.311 26.2277Z" fill="#333333"/>
<path d="M350.282 9.5749C350.035 9.57424 349.792 9.5083 349.579 9.38389C349.366 9.25947 349.191 9.08108 349.071 8.8671C348.342 7.55447 347.364 6.39302 346.192 5.44609C345.905 5.21404 345.723 4.87861 345.686 4.51358C345.649 4.14856 345.759 3.78383 345.994 3.49964C346.228 3.21546 346.567 3.03509 346.935 2.99822C347.304 2.96135 347.672 3.07099 347.959 3.30303C349.399 4.48086 350.604 5.91444 351.513 7.53015C351.587 7.6941 351.625 7.87163 351.625 8.05117C351.625 8.23071 351.587 8.40824 351.513 8.57219C351.413 8.92238 351.178 9.21927 350.858 9.39795C350.682 9.49979 350.485 9.56033 350.282 9.5749Z" fill="#333333"/>
<path d="M350.282 9.1814C350.104 9.17602 349.931 9.12634 349.779 9.03697C349.626 8.94759 349.499 8.82143 349.408 8.67021C348.659 7.31445 347.655 6.11318 346.45 5.13123C346.248 4.96621 346.121 4.72909 346.095 4.47139C346.069 4.21369 346.146 3.95623 346.311 3.75496C346.392 3.65388 346.493 3.56993 346.607 3.50808C346.721 3.44624 346.847 3.40775 346.977 3.39492C347.106 3.38208 347.237 3.39515 347.361 3.43336C347.486 3.47157 347.601 3.53413 347.701 3.61733C349.113 4.75024 350.286 6.14629 351.155 7.72648C351.238 7.87639 351.28 8.04508 351.277 8.21593C351.274 8.38678 351.226 8.55389 351.138 8.70076C351.05 8.84764 350.924 8.96921 350.774 9.0535C350.624 9.13778 350.454 9.18186 350.282 9.1814Z" fill="#333333"/>
<path d="M261.599 16.5292C261.16 16.4831 260.754 16.2779 260.459 15.953C260.163 15.6281 260 15.2065 260 14.7695C260 14.3324 260.163 13.9109 260.459 13.586C260.754 13.2611 261.16 13.0558 261.599 13.0098H265.113C265.362 12.9837 265.614 13.0098 265.852 13.0863C266.09 13.1628 266.31 13.2881 266.496 13.4541C266.682 13.62 266.831 13.8229 266.933 14.0495C267.035 14.2761 267.088 14.5214 267.088 14.7695C267.088 15.0176 267.035 15.2629 266.933 15.4895C266.831 15.7161 266.682 15.919 266.496 16.0849C266.31 16.2509 266.09 16.3761 265.852 16.4527C265.614 16.5292 265.362 16.5553 265.113 16.5292H261.599Z" fill="#333333"/>
<path d="M265.133 13.4033H261.599C260.843 13.4033 260.229 14.0107 260.229 14.7599V14.7796C260.229 15.5288 260.843 16.1362 261.599 16.1362H265.133C265.89 16.1362 266.503 15.5288 266.503 14.7796V14.7599C266.503 14.0107 265.89 13.4033 265.133 13.4033Z" fill="#333333"/>
<path d="M269.957 16.5292C269.518 16.4831 269.112 16.2779 268.817 15.953C268.522 15.6281 268.358 15.2065 268.358 14.7695C268.358 14.3324 268.522 13.9109 268.817 13.586C269.112 13.2611 269.518 13.0558 269.957 13.0098H273.471C273.72 12.9837 273.972 13.0098 274.211 13.0863C274.449 13.1628 274.668 13.2881 274.854 13.4541C275.041 13.62 275.19 13.8229 275.292 14.0495C275.393 14.2761 275.446 14.5214 275.446 14.7695C275.446 15.0176 275.393 15.2629 275.292 15.4895C275.19 15.7161 275.041 15.919 274.854 16.0849C274.668 16.2509 274.449 16.3761 274.211 16.4527C273.972 16.5292 273.72 16.5553 273.471 16.5292H269.957Z" fill="#333333"/>
<path d="M273.492 13.4033H269.958C269.201 13.4033 268.588 14.0107 268.588 14.7599V14.7796C268.588 15.5288 269.201 16.1362 269.958 16.1362H273.492C274.248 16.1362 274.862 15.5288 274.862 14.7796V14.7599C274.862 14.0107 274.248 13.4033 273.492 13.4033Z" fill="#333333"/>
<path d="M278.316 16.5292C277.877 16.4831 277.47 16.2779 277.175 15.953C276.88 15.6281 276.717 15.2065 276.717 14.7695C276.717 14.3324 276.88 13.9109 277.175 13.586C277.47 13.2611 277.877 13.0558 278.316 13.0098H281.83C282.079 12.9837 282.331 13.0098 282.569 13.0863C282.807 13.1628 283.027 13.2881 283.213 13.4541C283.399 13.62 283.548 13.8229 283.65 14.0495C283.752 14.2761 283.805 14.5214 283.805 14.7695C283.805 15.0176 283.752 15.2629 283.65 15.4895C283.548 15.7161 283.399 15.919 283.213 16.0849C283.027 16.2509 282.807 16.3761 282.569 16.4527C282.331 16.5292 282.079 16.5553 281.83 16.5292H278.316Z" fill="#333333"/>
<path d="M281.85 13.4033H278.316C277.56 13.4033 276.946 14.0107 276.946 14.7599V14.7796C276.946 15.5288 277.56 16.1362 278.316 16.1362H281.85C282.607 16.1362 283.22 15.5288 283.22 14.7796V14.7599C283.22 14.0107 282.607 13.4033 281.85 13.4033Z" fill="#333333"/>
<path d="M286.674 16.5292C286.235 16.4831 285.829 16.2779 285.534 15.953C285.239 15.6281 285.075 15.2065 285.075 14.7695C285.075 14.3324 285.239 13.9109 285.534 13.586C285.829 13.2611 286.235 13.0558 286.674 13.0098H290.188C290.437 12.9837 290.689 13.0098 290.927 13.0863C291.166 13.1628 291.385 13.2881 291.571 13.4541C291.757 13.62 291.906 13.8229 292.008 14.0495C292.11 14.2761 292.163 14.5214 292.163 14.7695C292.163 15.0176 292.11 15.2629 292.008 15.4895C291.906 15.7161 291.757 15.919 291.571 16.0849C291.385 16.2509 291.166 16.3761 290.927 16.4527C290.689 16.5292 290.437 16.5553 290.188 16.5292H286.674Z" fill="#333333"/>
<path d="M290.209 13.4033H286.675C285.918 13.4033 285.305 14.0107 285.305 14.7599V14.7796C285.305 15.5288 285.918 16.1362 286.675 16.1362H290.209C290.965 16.1362 291.578 15.5288 291.578 14.7796V14.7599C291.578 14.0107 290.965 13.4033 290.209 13.4033Z" fill="#333333"/>
<path d="M295.053 16.5292C294.614 16.4831 294.208 16.2779 293.913 15.953C293.617 15.6281 293.454 15.2065 293.454 14.7695C293.454 14.3324 293.617 13.9109 293.913 13.586C294.208 13.2611 294.614 13.0558 295.053 13.0098H298.567C298.816 12.9837 299.068 13.0098 299.306 13.0863C299.545 13.1628 299.764 13.2881 299.95 13.4541C300.136 13.62 300.285 13.8229 300.387 14.0495C300.489 14.2761 300.542 14.5214 300.542 14.7695C300.542 15.0176 300.489 15.2629 300.387 15.4895C300.285 15.7161 300.136 15.919 299.95 16.0849C299.764 16.2509 299.545 16.3761 299.306 16.4527C299.068 16.5292 298.816 16.5553 298.567 16.5292H295.053Z" fill="#333333"/>
<path d="M298.567 13.4033H295.033C294.276 13.4033 293.663 14.0107 293.663 14.7599V14.7796C293.663 15.5288 294.276 16.1362 295.033 16.1362H298.567C299.324 16.1362 299.937 15.5288 299.937 14.7796V14.7599C299.937 14.0107 299.324 13.4033 298.567 13.4033Z" fill="#333333"/>
<path d="M303.391 16.5292C302.952 16.4831 302.546 16.2779 302.251 15.953C301.955 15.6281 301.792 15.2065 301.792 14.7695C301.792 14.3324 301.955 13.9109 302.251 13.586C302.546 13.2611 302.952 13.0558 303.391 13.0098H306.964C307.214 12.9837 307.465 13.0098 307.704 13.0863C307.942 13.1628 308.161 13.2881 308.348 13.4541C308.534 13.62 308.683 13.8229 308.785 14.0495C308.887 14.2761 308.939 14.5214 308.939 14.7695C308.939 15.0176 308.887 15.2629 308.785 15.4895C308.683 15.7161 308.534 15.919 308.348 16.0849C308.161 16.2509 307.942 16.3761 307.704 16.4527C307.465 16.5292 307.214 16.5553 306.964 16.5292H303.391Z" fill="#333333"/>
<path d="M306.925 13.4033H303.391C302.635 13.4033 302.021 14.0107 302.021 14.7599V14.7796C302.021 15.5288 302.635 16.1362 303.391 16.1362H306.925C307.682 16.1362 308.295 15.5288 308.295 14.7796V14.7599C308.295 14.0107 307.682 13.4033 306.925 13.4033Z" fill="#333333"/>
<path d="M311.749 16.5292C311.31 16.4831 310.904 16.2779 310.609 15.953C310.314 15.6281 310.15 15.2065 310.15 14.7695C310.15 14.3324 310.314 13.9109 310.609 13.586C310.904 13.2611 311.31 13.0558 311.749 13.0098H315.263C315.512 12.9837 315.764 13.0098 316.003 13.0863C316.241 13.1628 316.46 13.2881 316.646 13.4541C316.833 13.62 316.982 13.8229 317.084 14.0495C317.185 14.2761 317.238 14.5214 317.238 14.7695C317.238 15.0176 317.185 15.2629 317.084 15.4895C316.982 15.7161 316.833 15.919 316.646 16.0849C316.46 16.2509 316.241 16.3761 316.003 16.4527C315.764 16.5292 315.512 16.5553 315.263 16.5292H311.749Z" fill="#333333"/>
<path d="M315.284 13.4033H311.75C310.993 13.4033 310.38 14.0107 310.38 14.7599V14.7796C310.38 15.5288 310.993 16.1362 311.75 16.1362H315.284C316.04 16.1362 316.654 15.5288 316.654 14.7796V14.7599C316.654 14.0107 316.04 13.4033 315.284 13.4033Z" fill="#333333"/>
</svg>
