<svg width="371" height="55" viewBox="0 0 371 55" fill="none" xmlns="http://www.w3.org/2000/svg">
<path d="M8.09734 40.47V42.06H11.5173V40.47H8.09734ZM10.6323 38.445V45.495H12.6273V38.445H10.6323ZM3.44734 46.08V47.61H10.6473V48.375H3.47734V51.555H5.44234V49.815H12.6273V46.08H3.44734ZM3.47734 50.64V52.185H13.0173V50.64H3.47734ZM4.18234 38.895V39.885C4.18234 41.655 3.20734 43.35 0.897344 44.04L1.91734 45.615C4.57234 44.775 5.80234 42.51 5.80234 39.885V38.895H4.18234ZM4.57234 38.895V39.885C4.57234 42.375 5.75734 44.52 8.29234 45.345L9.31234 43.8C7.12234 43.14 6.19234 41.535 6.19234 39.885V38.895H4.57234ZM14.8012 45.3V46.89H27.3712V45.3H14.8012ZM20.2462 46.305V49.23H22.2562V46.305H20.2462ZM16.3462 39.03V44.19H25.7812V39.03H16.3462ZM23.8162 40.59V42.63H18.2962V40.59H23.8162ZM16.2562 50.505V52.095H25.9912V50.505H16.2562ZM16.2562 48.06V51.03H18.2362V48.06H16.2562ZM28.615 49.11V50.73H41.185V49.11H28.615ZM33.895 46.035V49.56H35.89V46.035H33.895ZM33.835 40.26V40.755C33.835 42.675 32.185 44.595 29.095 45.075L29.875 46.65C33.415 46.005 35.515 43.68 35.515 40.755V40.26H33.835ZM34.24 40.26V40.755C34.24 43.68 36.37 45.945 39.97 46.575L40.735 45C37.57 44.535 35.92 42.675 35.92 40.755V40.26H34.24ZM29.65 39.495V41.085H40.105V39.495H29.65ZM45.5188 39.51V41.535C45.5188 44.115 44.4538 46.785 42.1138 47.88L43.3138 49.485C45.9388 48.195 47.1388 44.97 47.1388 41.535V39.51H45.5188ZM45.9238 39.51V41.535C45.9238 44.865 47.0188 47.955 49.5238 49.23L50.7238 47.64C48.5038 46.56 47.5138 44.025 47.5138 41.535V39.51H45.9238ZM51.2788 38.445V52.335H53.2888V38.445H51.2788ZM52.8388 43.785V45.45H55.2988V43.785H52.8388Z" fill="black"/>
<path d="M106.002 44.925V46.5H118.557V44.925H106.002ZM112.257 47.25C109.242 47.25 107.427 48.165 107.427 49.8C107.427 51.435 109.242 52.35 112.257 52.35C115.257 52.35 117.072 51.435 117.072 49.8C117.072 48.165 115.257 47.25 112.257 47.25ZM112.257 48.765C114.117 48.765 115.062 49.095 115.062 49.8C115.062 50.52 114.117 50.835 112.257 50.835C110.397 50.835 109.452 50.52 109.452 49.8C109.452 49.095 110.397 48.765 112.257 48.765ZM112.287 38.73C109.227 38.73 107.262 39.78 107.262 41.46C107.262 43.155 109.227 44.19 112.287 44.19C115.332 44.19 117.312 43.155 117.312 41.46C117.312 39.78 115.332 38.73 112.287 38.73ZM112.287 40.275C114.177 40.275 115.257 40.665 115.257 41.46C115.257 42.27 114.177 42.645 112.287 42.645C110.382 42.645 109.317 42.27 109.317 41.46C109.317 40.665 110.382 40.275 112.287 40.275ZM123.191 39.51V41.535C123.191 44.235 122.051 46.905 119.636 47.955L120.821 49.605C123.581 48.33 124.811 45.105 124.811 41.535V39.51H123.191ZM123.581 39.51V41.535C123.581 44.955 124.811 48.045 127.496 49.275L128.666 47.67C126.296 46.65 125.201 44.1 125.201 41.535V39.51H123.581ZM129.326 38.43V52.365H131.336V38.43H129.326ZM136.435 47.22V52.335H138.475V47.22H136.435ZM141.235 47.22V52.335H143.275V47.22H141.235ZM133.6 46.17V47.775H146.185V46.17H133.6ZM139.855 38.91C136.9 38.91 134.845 40.125 134.845 42.03C134.845 43.905 136.9 45.12 139.855 45.12C142.825 45.12 144.88 43.905 144.88 42.03C144.88 40.125 142.825 38.91 139.855 38.91ZM139.855 40.5C141.685 40.5 142.825 41.04 142.825 42.03C142.825 43.005 141.685 43.545 139.855 43.545C138.04 43.545 136.885 43.005 136.885 42.03C136.885 41.04 138.04 40.5 139.855 40.5ZM155.244 41.49V43.08H157.794V41.49H155.244ZM155.214 44.265V45.855H157.749V44.265H155.214ZM147.444 39.69V41.265H155.064V39.69H147.444ZM151.344 41.745C149.439 41.745 148.089 42.795 148.089 44.34C148.089 45.885 149.439 46.935 151.344 46.935C153.249 46.935 154.599 45.885 154.599 44.34C154.599 42.795 153.249 41.745 151.344 41.745ZM151.344 43.23C152.169 43.23 152.754 43.605 152.754 44.34C152.754 45.075 152.169 45.45 151.344 45.45C150.504 45.45 149.949 45.075 149.949 44.34C149.949 43.605 150.504 43.23 151.344 43.23ZM150.354 38.325V40.785H152.349V38.325H150.354ZM157.029 38.445V47.295H159.024V38.445H157.029ZM154.329 47.46C151.389 47.46 149.574 48.375 149.574 49.905C149.574 51.435 151.389 52.335 154.329 52.335C157.254 52.335 159.084 51.435 159.084 49.905C159.084 48.375 157.254 47.46 154.329 47.46ZM154.329 48.99C156.039 48.99 156.969 49.26 156.969 49.905C156.969 50.535 156.039 50.835 154.329 50.835C152.619 50.835 151.674 50.535 151.674 49.905C151.674 49.26 152.619 48.99 154.329 48.99Z" fill="black"/>
<path d="M214.092 39.99V40.86C214.092 42.63 213.117 44.445 210.807 45.21L211.797 46.785C214.482 45.9 215.727 43.515 215.727 40.86V39.99H214.092ZM214.497 39.99V40.86C214.497 43.335 215.697 45.51 218.337 46.305L219.282 44.745C217.047 44.07 216.117 42.48 216.117 40.86V39.99H214.497ZM211.332 39.375V40.965H218.832V39.375H211.332ZM219.942 38.445V46.68H221.937V38.445H219.942ZM221.382 41.64V43.275H223.782V41.64H221.382ZM217.407 46.935C214.512 46.935 212.697 47.94 212.697 49.635C212.697 51.33 214.512 52.335 217.407 52.335C220.287 52.335 222.102 51.33 222.102 49.635C222.102 47.94 220.287 46.935 217.407 46.935ZM217.407 48.495C219.177 48.495 220.122 48.855 220.122 49.635C220.122 50.415 219.177 50.805 217.407 50.805C215.637 50.805 214.677 50.415 214.677 49.635C214.677 48.855 215.637 48.495 217.407 48.495ZM224.816 49.08V50.715H237.386V49.08H224.816ZM230.036 45.99V49.515H232.016V45.99H230.036ZM229.961 39.21V40.215C229.961 42.135 228.266 44.265 225.101 44.775L225.926 46.44C229.556 45.78 231.701 43.17 231.701 40.215V39.21H229.961ZM230.351 39.21V40.215C230.351 43.215 232.496 45.765 236.141 46.44L236.966 44.775C233.786 44.265 232.091 42.18 232.091 40.215V39.21H230.351ZM245.695 41.4V43.005H248.92V41.4H245.695ZM241.78 39.3V40.8C241.78 42.765 240.82 44.685 238.525 45.45L239.575 47.01C242.2 46.05 243.385 43.635 243.385 40.8V39.3H241.78ZM242.215 39.3V40.815C242.215 43.44 243.355 45.765 245.845 46.665L246.91 45.135C244.72 44.385 243.805 42.6 243.805 40.815V39.3H242.215ZM248.23 38.46V48.705H250.225V38.46H248.23ZM241.03 50.505V52.095H250.525V50.505H241.03ZM241.03 47.67V51.39H243.04V47.67H241.03ZM252.864 44.775V46.395H253.824C255.894 46.395 257.244 46.35 258.834 46.08L258.654 44.49C257.124 44.745 255.834 44.775 253.824 44.775H252.864ZM252.864 39.375V45.66H254.784V40.965H258.339V39.375H252.864ZM254.214 42.09V43.59H258.189V42.09H254.214ZM262.344 38.445V46.92H264.234V38.445H262.344ZM260.679 41.85V43.44H262.884V41.85H260.679ZM259.374 38.7V46.83H261.234V38.7H259.374ZM254.694 47.52V49.11H262.254V52.335H264.234V47.52H254.694Z" fill="black"/>
<path d="M325.632 38.445V45.42H327.627V38.445H325.632ZM320.997 38.97V40.05C320.997 41.91 319.647 43.44 316.167 44.13L316.827 45.735C321.042 44.82 323.172 42.66 323.172 38.97H320.997ZM316.962 38.97V40.56H321.837V38.97H316.962ZM322.632 40.17V41.685H325.887V40.17H322.632ZM322.542 42.87V44.37H325.812V42.87H322.542ZM318.447 45.93V47.49H325.632V48.285H318.477V51.48H320.472V49.755H327.627V45.93H318.447ZM318.477 50.64V52.2H327.912V50.64H318.477ZM339.836 38.445V52.335H341.726V38.445H339.836ZM335.261 43.185V44.805H337.556V43.185H335.261ZM337.031 38.67V51.705H338.891V38.67H337.031ZM332.261 40.71V42.135C332.261 44.505 331.556 46.995 329.516 48.27L330.701 49.74C332.906 48.36 333.761 45.255 333.761 42.135V40.71H332.261ZM332.711 40.71V42.135C332.711 45.195 333.521 48.105 335.726 49.41L336.896 47.955C334.886 46.785 334.196 44.445 334.196 42.135V40.71H332.711ZM330.041 39.84V41.445H336.236V39.84H330.041ZM352.51 38.445V52.335H354.49V38.445H352.51ZM354.04 43.86V45.525H356.5V43.86H354.04ZM343.54 40.5V42.09H351.625V40.5H343.54ZM347.605 42.87C345.58 42.87 344.08 44.25 344.08 46.185C344.08 48.12 345.58 49.5 347.605 49.5C349.63 49.5 351.13 48.12 351.13 46.185C351.13 44.25 349.63 42.87 347.605 42.87ZM347.605 44.49C348.55 44.49 349.225 45.12 349.225 46.185C349.225 47.25 348.55 47.88 347.605 47.88C346.66 47.88 345.985 47.25 345.985 46.185C345.985 45.12 346.66 44.49 347.605 44.49ZM346.6 38.67V41.1H348.595V38.67H346.6ZM366.969 38.445V52.335H368.979V38.445H366.969ZM362.874 39.885V40.245C362.874 43.965 361.434 46.485 357.444 48.405L358.479 49.995C363.414 47.61 364.854 44.13 364.854 39.885H362.874ZM358.179 39.885V41.46H363.819V39.885H358.179Z" fill="black"/>
<path d="M29.5971 29.0196C27.2081 29.0107 24.8576 28.4235 22.7503 27.3091C20.643 26.1947 18.8428 24.587 17.5065 22.626C16.1703 20.6649 15.3385 18.4101 15.0836 16.0578C14.8288 13.7056 15.1586 11.3273 16.0443 9.13013C16.93 6.93299 18.3448 4.98364 20.1654 3.45191C21.986 1.92017 24.1572 0.852516 26.4899 0.341944C28.8225 -0.168628 31.2458 -0.106627 33.5487 0.522545C35.8517 1.15172 37.9643 2.32898 39.7026 3.95176C39.8347 4.07991 39.9396 4.23286 40.0112 4.40166C40.0828 4.57046 40.1197 4.75172 40.1197 4.93481C40.1197 5.11791 40.0828 5.29917 40.0112 5.46797C39.9396 5.63677 39.8347 5.78972 39.7026 5.91787C39.5763 6.05401 39.4229 6.16274 39.252 6.23719C39.0812 6.31164 38.8966 6.35019 38.7099 6.35041C38.35 6.34981 38.0033 6.21665 37.7371 5.97685C35.5421 3.9098 32.626 2.76173 29.5971 2.7721C27.241 2.7721 24.9379 3.46396 22.979 4.76019C21.02 6.05642 19.4932 7.8988 18.5916 10.0543C17.69 12.2099 17.4541 14.5818 17.9137 16.8701C18.3734 19.1584 19.5079 21.2604 21.1738 22.9102C22.8398 24.56 24.9624 25.6835 27.2731 26.1387C29.5838 26.5938 31.979 26.3602 34.1557 25.4674C36.3323 24.5745 38.1928 23.0625 39.5017 21.1226C40.8106 19.1826 41.5093 16.9019 41.5093 14.5687C41.5093 14.2037 41.6557 13.8536 41.9163 13.5955C42.177 13.3374 42.5305 13.1924 42.899 13.1924C43.2676 13.1924 43.6211 13.3374 43.8818 13.5955C44.1424 13.8536 44.2888 14.2037 44.2888 14.5687C44.273 18.4136 42.7169 22.095 39.9623 24.8045C37.2076 27.514 33.4796 29.03 29.5971 29.0196Z" fill="#231815"/>
<path d="M29.5975 28.6262C27.268 28.6171 24.9763 28.0429 22.9228 26.9536C20.8693 25.8644 19.1166 24.2934 17.8182 22.3781C16.5197 20.4628 15.7151 18.2615 15.4746 15.9669C15.2341 13.6724 15.5652 11.3544 16.4387 9.21583C17.3123 7.07727 18.7019 5.18332 20.4857 3.6997C22.2696 2.21607 24.3934 1.18799 26.6714 0.705402C28.9494 0.222816 31.3121 0.300436 33.5527 0.93147C35.7934 1.5625 37.8438 2.72772 39.5244 4.32516C39.6174 4.41655 39.6913 4.52528 39.7417 4.64507C39.7921 4.76486 39.818 4.89335 39.818 5.02313C39.818 5.1529 39.7921 5.28139 39.7417 5.40119C39.6913 5.52098 39.6174 5.62971 39.5244 5.72109C39.3355 5.90247 39.0827 6.00389 38.8196 6.00389C38.5565 6.00389 38.3037 5.90247 38.1148 5.72109C36.0739 3.79212 33.4233 2.61989 30.6106 2.40242C27.798 2.18495 24.9957 2.93558 22.6773 4.52749C20.3588 6.11941 18.6663 8.45503 17.8857 11.1398C17.105 13.8245 17.2841 16.6939 18.3926 19.263C19.5011 21.8321 21.4712 23.9436 23.9699 25.2407C26.4687 26.5378 29.3429 26.941 32.1071 26.3822C34.8714 25.8234 37.3561 24.3369 39.1416 22.1737C40.927 20.0106 41.9038 17.3034 41.9068 14.5096C41.9068 14.2488 42.0114 13.9988 42.1976 13.8144C42.3838 13.6301 42.6363 13.5265 42.8995 13.5265C43.1628 13.5265 43.4153 13.6301 43.6015 13.8144C43.7876 13.9988 43.8922 14.2488 43.8922 14.5096C43.8922 16.3667 43.5222 18.2056 42.8033 19.9209C42.0845 21.6361 41.0309 23.1941 39.703 24.5054C38.3751 25.8168 36.799 26.8558 35.0649 27.5629C33.3308 28.27 31.4729 28.6314 29.5975 28.6262Z" fill="#231815"/>
<path d="M29.3986 23.0428H28.9817C27.6317 22.8588 26.4106 22.1516 25.5867 21.0767L21.0601 15.375C20.9385 15.2341 20.8473 15.07 20.7922 14.8929C20.7371 14.7158 20.7192 14.5293 20.7397 14.3451C20.7601 14.1609 20.8185 13.9828 20.9112 13.8217C21.0038 13.6607 21.1288 13.5202 21.2785 13.4089C21.5264 13.2135 21.8352 13.1092 22.152 13.1139C22.3585 13.1109 22.5629 13.1555 22.749 13.2442C22.9351 13.3329 23.0978 13.4634 23.2241 13.6251L27.8302 19.3268C28.1699 19.8209 28.6891 20.166 29.2795 20.2902C29.6594 20.2727 30.0316 20.1781 30.3731 20.0124C30.7146 19.8467 31.0181 19.6134 31.2649 19.3268C34.501 16.1417 43.5345 6.5275 43.6337 6.4292C43.7652 6.26812 43.9316 6.1385 44.1207 6.04999C44.3098 5.96148 44.5166 5.91637 44.7257 5.91801C45.0813 5.92696 45.4208 6.0669 45.6778 6.3105C45.9348 6.5541 46.0909 6.88384 46.1155 7.2353C46.1229 7.60486 45.988 7.96336 45.7382 8.23801C45.361 8.63123 36.5261 18.0685 33.2105 21.2339C32.7306 21.7738 32.1457 22.2122 31.4907 22.523C30.8357 22.8338 30.1242 23.0106 29.3986 23.0428Z" fill="#1767AA"/>
<path d="M29.3991 22.6493H29.0219C28.3966 22.551 27.7985 22.3256 27.2655 21.9872C26.7325 21.6489 26.276 21.2049 25.9247 20.6832L21.3782 15.1388C21.2244 14.9369 21.1532 14.685 21.179 14.4335C21.2048 14.1819 21.3256 13.9493 21.5172 13.7822C21.7203 13.6318 21.9722 13.5607 22.2249 13.5824C22.4775 13.6042 22.7132 13.7173 22.8871 13.9001L27.513 19.6805C27.9242 20.2539 28.5429 20.6483 29.2403 20.7815C29.6723 20.7689 30.0964 20.6641 30.4836 20.474C30.8709 20.284 31.212 20.0133 31.4838 19.6805C34.7993 16.3971 43.8328 6.80249 43.9122 6.70419C44.1011 6.52281 44.3539 6.42139 44.617 6.42139C44.8801 6.42139 45.1329 6.52281 45.3218 6.70419C45.4148 6.79557 45.4887 6.9043 45.5391 7.02409C45.5895 7.14389 45.6154 7.27238 45.6154 7.40215C45.6154 7.53193 45.5895 7.66042 45.5391 7.78021C45.4887 7.9 45.4148 8.00873 45.3218 8.10012C45.3218 8.10012 36.2288 17.7144 32.814 21.0174C32.3812 21.4986 31.8568 21.8904 31.2708 22.1704C30.6848 22.4505 30.0487 22.6132 29.3991 22.6493Z" fill="#1767AA"/>
<path d="M135.597 29.0196C133.208 29.0107 130.858 28.4235 128.75 27.3091C126.643 26.1947 124.843 24.587 123.507 22.626C122.17 20.6649 121.338 18.4101 121.084 16.0578C120.829 13.7056 121.159 11.3273 122.044 9.13013C122.93 6.93299 124.345 4.98364 126.165 3.45191C127.986 1.92017 130.157 0.852516 132.49 0.341944C134.823 -0.168628 137.246 -0.106627 139.549 0.522545C141.852 1.15172 143.964 2.32898 145.703 3.95176C145.835 4.07991 145.94 4.23286 146.011 4.40166C146.083 4.57046 146.12 4.75172 146.12 4.93481C146.12 5.11791 146.083 5.29917 146.011 5.46797C145.94 5.63677 145.835 5.78972 145.703 5.91787C145.576 6.05401 145.423 6.16274 145.252 6.23719C145.081 6.31164 144.897 6.35019 144.71 6.35041C144.35 6.34981 144.003 6.21665 143.737 5.97685C141.542 3.9098 138.626 2.76173 135.597 2.7721C133.241 2.7721 130.938 3.46396 128.979 4.76019C127.02 6.05642 125.493 7.8988 124.592 10.0543C123.69 12.2099 123.454 14.5818 123.914 16.8701C124.373 19.1584 125.508 21.2604 127.174 22.9102C128.84 24.56 130.962 25.6835 133.273 26.1387C135.584 26.5938 137.979 26.3602 140.156 25.4674C142.332 24.5745 144.193 23.0625 145.502 21.1226C146.811 19.1826 147.509 16.9019 147.509 14.5687C147.509 14.2037 147.656 13.8536 147.916 13.5955C148.177 13.3374 148.53 13.1924 148.899 13.1924C149.268 13.1924 149.621 13.3374 149.882 13.5955C150.142 13.8536 150.289 14.2037 150.289 14.5687C150.273 18.4136 148.717 22.095 145.962 24.8045C143.208 27.514 139.48 29.03 135.597 29.0196Z" fill="#231815"/>
<path d="M135.598 28.6262C133.268 28.6171 130.976 28.0429 128.923 26.9536C126.869 25.8644 125.117 24.2934 123.818 22.3781C122.52 20.4628 121.715 18.2615 121.475 15.9669C121.234 13.6724 121.565 11.3544 122.439 9.21583C123.312 7.07727 124.702 5.18332 126.486 3.6997C128.27 2.21607 130.393 1.18799 132.671 0.705402C134.949 0.222816 137.312 0.300436 139.553 0.93147C141.793 1.5625 143.844 2.72772 145.524 4.32516C145.617 4.41655 145.691 4.52528 145.742 4.64507C145.792 4.76486 145.818 4.89335 145.818 5.02313C145.818 5.1529 145.792 5.28139 145.742 5.40119C145.691 5.52098 145.617 5.62971 145.524 5.72109C145.335 5.90247 145.083 6.00389 144.82 6.00389C144.556 6.00389 144.304 5.90247 144.115 5.72109C142.074 3.79212 139.423 2.61989 136.611 2.40242C133.798 2.18495 130.996 2.93558 128.677 4.52749C126.359 6.11941 124.666 8.45503 123.886 11.1398C123.105 13.8245 123.284 16.6939 124.393 19.263C125.501 21.8321 127.471 23.9436 129.97 25.2407C132.469 26.5378 135.343 26.941 138.107 26.3822C140.871 25.8234 143.356 24.3369 145.142 22.1737C146.927 20.0106 147.904 17.3034 147.907 14.5096C147.907 14.2488 148.011 13.9988 148.198 13.8144C148.384 13.6301 148.636 13.5265 148.9 13.5265C149.163 13.5265 149.415 13.6301 149.601 13.8144C149.788 13.9988 149.892 14.2488 149.892 14.5096C149.892 16.3667 149.522 18.2056 148.803 19.9209C148.084 21.6361 147.031 23.1941 145.703 24.5054C144.375 25.8168 142.799 26.8558 141.065 27.5629C139.331 28.27 137.473 28.6314 135.598 28.6262Z" fill="#231815"/>
<path d="M135.399 23.0428H134.982C133.632 22.8588 132.411 22.1516 131.587 21.0767L127.06 15.375C126.938 15.2341 126.847 15.07 126.792 14.8929C126.737 14.7158 126.719 14.5293 126.74 14.3451C126.76 14.1609 126.818 13.9828 126.911 13.8217C127.004 13.6607 127.129 13.5202 127.278 13.4089C127.526 13.2135 127.835 13.1092 128.152 13.1139C128.359 13.1109 128.563 13.1555 128.749 13.2442C128.935 13.3329 129.098 13.4634 129.224 13.6251L133.83 19.3268C134.17 19.8209 134.689 20.166 135.28 20.2902C135.659 20.2727 136.032 20.1781 136.373 20.0124C136.715 19.8467 137.018 19.6134 137.265 19.3268C140.501 16.1417 149.534 6.5275 149.634 6.4292C149.765 6.26812 149.932 6.1385 150.121 6.04999C150.31 5.96148 150.517 5.91637 150.726 5.91801C151.081 5.92696 151.421 6.0669 151.678 6.3105C151.935 6.5541 152.091 6.88384 152.115 7.2353C152.123 7.60486 151.988 7.96336 151.738 8.23801C151.361 8.63123 142.526 18.0685 139.211 21.2339C138.731 21.7738 138.146 22.2122 137.491 22.523C136.836 22.8338 136.124 23.0106 135.399 23.0428Z" fill="#1767AA"/>
<path d="M135.399 22.6493H135.022C134.397 22.551 133.799 22.3256 133.266 21.9872C132.732 21.6489 132.276 21.2049 131.925 20.6832L127.378 15.1388C127.224 14.9369 127.153 14.685 127.179 14.4335C127.205 14.1819 127.326 13.9493 127.517 13.7822C127.72 13.6318 127.972 13.5607 128.225 13.5824C128.478 13.6042 128.713 13.7173 128.887 13.9001L133.513 19.6805C133.924 20.2539 134.543 20.6483 135.24 20.7815C135.672 20.7689 136.096 20.6641 136.484 20.474C136.871 20.284 137.212 20.0133 137.484 19.6805C140.799 16.3971 149.833 6.80249 149.912 6.70419C150.101 6.52281 150.354 6.42139 150.617 6.42139C150.88 6.42139 151.133 6.52281 151.322 6.70419C151.415 6.79557 151.489 6.9043 151.539 7.02409C151.589 7.14389 151.615 7.27238 151.615 7.40215C151.615 7.53193 151.589 7.66042 151.539 7.78021C151.489 7.9 151.415 8.00873 151.322 8.10012C151.322 8.10012 142.229 17.7144 138.814 21.0174C138.381 21.4986 137.857 21.8904 137.271 22.1704C136.685 22.4505 136.049 22.6132 135.399 22.6493Z" fill="#1767AA"/>
<path d="M239.667 29.0197C237.317 29.0221 235.001 28.4647 232.914 27.3946C230.828 26.3244 229.031 24.7729 227.677 22.8709C226.323 20.969 225.451 18.7723 225.134 16.4664C224.817 14.1605 225.065 11.8129 225.856 9.62171C226.648 7.43055 227.96 5.46011 229.683 3.87665C231.405 2.2932 233.486 1.14318 235.751 0.52363C238.017 -0.0959163 240.399 -0.166811 242.698 0.316926C244.996 0.800664 247.144 1.82484 248.959 3.30304C249.179 3.48281 249.338 3.7253 249.414 3.99758C249.49 4.26987 249.48 4.55876 249.384 4.82502C249.289 5.09128 249.113 5.32201 248.881 5.48588C248.648 5.64976 248.371 5.73883 248.085 5.74101C247.763 5.74245 247.449 5.63882 247.192 5.44609C245.721 4.22048 243.973 3.3654 242.097 2.95385C240.22 2.54231 238.271 2.58651 236.416 3.08268C234.56 3.57886 232.853 4.51227 231.441 5.80326C230.029 7.09424 228.953 8.70445 228.305 10.4965C227.658 12.2885 227.458 14.209 227.722 16.0942C227.987 17.9794 228.708 19.7733 229.824 21.3227C230.94 22.8721 232.418 24.131 234.132 24.992C235.846 25.853 237.745 26.2905 239.667 26.2671C240.036 26.2671 240.389 26.4121 240.65 26.6702C240.911 26.9283 241.057 27.2784 241.057 27.6434C241.057 28.0084 240.911 28.3585 240.65 28.6166C240.389 28.8747 240.036 29.0197 239.667 29.0197Z" fill="#231815"/>
<path d="M239.668 28.6262C237.379 28.6348 235.122 28.0976 233.087 27.0599C231.052 26.0222 229.3 24.5146 227.978 22.6646C226.655 20.8145 225.803 18.6764 225.491 16.431C225.18 14.1857 225.419 11.899 226.188 9.76439C226.957 7.6298 228.234 5.71003 229.911 4.1674C231.588 2.62477 233.615 1.50464 235.821 0.901716C238.028 0.29879 240.348 0.230794 242.586 0.703478C244.825 1.17616 246.915 2.17563 248.681 3.61737C248.783 3.69752 248.868 3.79715 248.93 3.91035C248.993 4.02356 249.032 4.14803 249.045 4.27638C249.058 4.40474 249.044 4.53437 249.006 4.65758C248.967 4.78078 248.904 4.89507 248.82 4.99364C248.739 5.09472 248.639 5.17867 248.524 5.24052C248.41 5.30236 248.284 5.34085 248.155 5.35368C248.025 5.36652 247.894 5.35344 247.77 5.31524C247.645 5.27703 247.53 5.21447 247.43 5.13127C245.905 3.93071 244.112 3.1079 242.201 2.73117C240.29 2.35443 238.315 2.43465 236.442 2.96515C234.568 3.49565 232.849 4.46113 231.428 5.78142C230.007 7.1017 228.925 8.73869 228.27 10.5564C227.616 12.3742 227.409 14.3203 227.667 16.233C227.925 18.1458 228.64 19.9701 229.752 21.5544C230.865 23.1387 232.343 24.4373 234.064 25.3424C235.785 26.2475 237.699 26.7329 239.648 26.7584C239.911 26.7584 240.163 26.862 240.35 27.0463C240.536 27.2307 240.64 27.4807 240.64 27.7414C240.64 28.0022 240.536 28.2522 240.35 28.4366C240.163 28.6209 239.911 28.7245 239.648 28.7245L239.668 28.6262Z" fill="#231815"/>
<path d="M247.311 26.6211C247.016 26.6227 246.728 26.5311 246.489 26.3597C246.25 26.1882 246.072 25.9459 245.981 25.6677C245.891 25.3895 245.892 25.0899 245.984 24.8124C246.077 24.5349 246.257 24.2938 246.497 24.1242C248.049 23.0391 249.317 21.6021 250.194 19.933C251.072 18.2639 251.533 16.4112 251.54 14.5296C251.54 14.1646 251.686 13.8145 251.947 13.5564C252.208 13.2983 252.561 13.1533 252.93 13.1533C253.298 13.1533 253.652 13.2983 253.912 13.5564C254.173 13.8145 254.32 14.1646 254.32 14.5296C254.311 16.8445 253.742 19.1236 252.66 21.176C251.579 23.2284 250.017 24.9944 248.105 26.3262C247.881 26.509 247.602 26.6127 247.311 26.6211Z" fill="#231815"/>
<path d="M247.311 26.2277C247.152 26.2302 246.994 26.1939 246.852 26.1219C246.71 26.0499 246.588 25.9445 246.497 25.8148C246.421 25.7092 246.367 25.5896 246.338 25.4631C246.308 25.3365 246.305 25.2055 246.327 25.0775C246.349 24.9496 246.396 24.8272 246.467 24.7176C246.537 24.6079 246.628 24.5131 246.736 24.4386C248.33 23.328 249.633 21.8567 250.538 20.1469C251.443 18.4372 251.922 16.5383 251.937 14.6081C251.937 14.3473 252.042 14.0973 252.228 13.9129C252.414 13.7286 252.667 13.625 252.93 13.625C253.193 13.625 253.446 13.7286 253.632 13.9129C253.818 14.0973 253.923 14.3473 253.923 14.6081C253.926 16.8591 253.388 19.0786 252.352 21.0823C251.316 23.0861 249.813 24.8163 247.966 26.1294C247.765 26.2326 247.535 26.2671 247.311 26.2277Z" fill="#231815"/>
<path d="M251.282 9.5749C251.035 9.57424 250.792 9.5083 250.579 9.38389C250.366 9.25947 250.191 9.08108 250.071 8.8671C249.342 7.55447 248.364 6.39302 247.192 5.44609C246.905 5.21404 246.723 4.87861 246.686 4.51358C246.649 4.14856 246.759 3.78383 246.994 3.49964C247.228 3.21546 247.567 3.03509 247.935 2.99822C248.304 2.96135 248.672 3.07099 248.959 3.30303C250.399 4.48086 251.604 5.91444 252.513 7.53015C252.587 7.6941 252.625 7.87163 252.625 8.05117C252.625 8.23071 252.587 8.40824 252.513 8.57219C252.413 8.92238 252.178 9.21927 251.858 9.39795C251.682 9.49979 251.485 9.56033 251.282 9.5749Z" fill="#231815"/>
<path d="M251.282 9.1814C251.104 9.17602 250.931 9.12634 250.779 9.03697C250.626 8.94759 250.499 8.82143 250.408 8.67021C249.659 7.31445 248.655 6.11318 247.45 5.13123C247.248 4.96621 247.121 4.72909 247.095 4.47139C247.069 4.21369 247.146 3.95623 247.311 3.75496C247.392 3.65388 247.493 3.56993 247.607 3.50808C247.721 3.44624 247.847 3.40775 247.977 3.39492C248.106 3.38208 248.237 3.39515 248.361 3.43336C248.486 3.47157 248.601 3.53413 248.701 3.61733C250.113 4.75024 251.286 6.14629 252.155 7.72648C252.238 7.87639 252.28 8.04508 252.277 8.21593C252.274 8.38678 252.226 8.55389 252.138 8.70076C252.05 8.84764 251.924 8.96921 251.774 9.0535C251.624 9.13778 251.454 9.18186 251.282 9.1814Z" fill="#231815"/>
<path d="M56.5987 16.5292C56.1599 16.4831 55.7537 16.2779 55.4585 15.953C55.1633 15.6281 55 15.2065 55 14.7695C55 14.3324 55.1633 13.9109 55.4585 13.586C55.7537 13.2611 56.1599 13.0558 56.5987 13.0098H60.1129C60.362 12.9837 60.6139 13.0098 60.8522 13.0863C61.0905 13.1628 61.3098 13.2881 61.4961 13.4541C61.6823 13.62 61.8312 13.8229 61.9332 14.0495C62.0351 14.2761 62.0878 14.5214 62.0878 14.7695C62.0878 15.0176 62.0351 15.2629 61.9332 15.4895C61.8312 15.7161 61.6823 15.919 61.4961 16.0849C61.3098 16.2509 61.0905 16.3761 60.8522 16.4527C60.6139 16.5292 60.362 16.5553 60.1129 16.5292H56.5987Z" fill="#60B5D9"/>
<path d="M60.1324 13.4033H56.5984C55.8418 13.4033 55.2285 14.0107 55.2285 14.7599V14.7796C55.2285 15.5288 55.8418 16.1362 56.5984 16.1362H60.1324C60.889 16.1362 61.5023 15.5288 61.5023 14.7796V14.7599C61.5023 14.0107 60.889 13.4033 60.1324 13.4033Z" fill="#60B5D9"/>
<path d="M64.9571 16.5292C64.5183 16.4831 64.1121 16.2779 63.8169 15.953C63.5217 15.6281 63.3584 15.2065 63.3584 14.7695C63.3584 14.3324 63.5217 13.9109 63.8169 13.586C64.1121 13.2611 64.5183 13.0558 64.9571 13.0098H68.4713C68.7204 12.9837 68.9723 13.0098 69.2106 13.0863C69.4489 13.1628 69.6682 13.2881 69.8545 13.4541C70.0407 13.62 70.1896 13.8229 70.2916 14.0495C70.3935 14.2761 70.4462 14.5214 70.4462 14.7695C70.4462 15.0176 70.3935 15.2629 70.2916 15.4895C70.1896 15.7161 70.0407 15.919 69.8545 16.0849C69.6682 16.2509 69.4489 16.3761 69.2106 16.4527C68.9723 16.5292 68.7204 16.5553 68.4713 16.5292H64.9571Z" fill="#60B5D9"/>
<path d="M68.4908 13.4033H64.9568C64.2002 13.4033 63.5869 14.0107 63.5869 14.7599V14.7796C63.5869 15.5288 64.2002 16.1362 64.9568 16.1362H68.4908C69.2474 16.1362 69.8607 15.5288 69.8607 14.7796V14.7599C69.8607 14.0107 69.2474 13.4033 68.4908 13.4033Z" fill="#60B5D9"/>
<path d="M73.3546 16.5292C72.9157 16.4831 72.5096 16.2779 72.2144 15.953C71.9192 15.6281 71.7559 15.2065 71.7559 14.7695C71.7559 14.3324 71.9192 13.9109 72.2144 13.586C72.5096 13.2611 72.9157 13.0558 73.3546 13.0098H76.8687C77.1178 12.9837 77.3697 13.0098 77.608 13.0863C77.8463 13.1628 78.0657 13.2881 78.2519 13.4541C78.4382 13.62 78.5871 13.8229 78.689 14.0495C78.791 14.2761 78.8436 14.5214 78.8436 14.7695C78.8436 15.0176 78.791 15.2629 78.689 15.4895C78.5871 15.7161 78.4382 15.919 78.2519 16.0849C78.0657 16.2509 77.8463 16.3761 77.608 16.4527C77.3697 16.5292 77.1178 16.5553 76.8687 16.5292H73.3546Z" fill="#60B5D9"/>
<path d="M76.8492 13.4033H73.3152C72.5586 13.4033 71.9453 14.0107 71.9453 14.7599V14.7796C71.9453 15.5288 72.5586 16.1362 73.3152 16.1362H76.8492C77.6058 16.1362 78.2191 15.5288 78.2191 14.7796V14.7599C78.2191 14.0107 77.6058 13.4033 76.8492 13.4033Z" fill="#60B5D9"/>
<path d="M81.6739 16.5292C81.2351 16.4831 80.8289 16.2779 80.5337 15.953C80.2385 15.6281 80.0752 15.2065 80.0752 14.7695C80.0752 14.3324 80.2385 13.9109 80.5337 13.586C80.8289 13.2611 81.2351 13.0558 81.6739 13.0098H85.2675C85.5166 12.9837 85.7685 13.0098 86.0068 13.0863C86.2451 13.1628 86.4645 13.2881 86.6507 13.4541C86.8369 13.62 86.9858 13.8229 87.0878 14.0495C87.1897 14.2761 87.2424 14.5214 87.2424 14.7695C87.2424 15.0176 87.1897 15.2629 87.0878 15.4895C86.9858 15.7161 86.8369 15.919 86.6507 16.0849C86.4645 16.2509 86.2451 16.3761 86.0068 16.4527C85.7685 16.5292 85.5166 16.5553 85.2675 16.5292H81.6739Z" fill="#60B5D9"/>
<path d="M85.2076 13.4033H81.6736C80.917 13.4033 80.3037 14.0107 80.3037 14.7599V14.7796C80.3037 15.5288 80.917 16.1362 81.6736 16.1362H85.2076C85.9642 16.1362 86.5775 15.5288 86.5775 14.7796V14.7599C86.5775 14.0107 85.9642 13.4033 85.2076 13.4033Z" fill="#60B5D9"/>
<path d="M90.0323 16.5292C89.5935 16.4831 89.1873 16.2779 88.8921 15.953C88.5969 15.6281 88.4336 15.2065 88.4336 14.7695C88.4336 14.3324 88.5969 13.9109 88.8921 13.586C89.1873 13.2611 89.5935 13.0558 90.0323 13.0098H93.5464C93.7956 12.9837 94.0474 13.0098 94.2857 13.0863C94.524 13.1628 94.7434 13.2881 94.9297 13.4541C95.1159 13.62 95.2648 13.8229 95.3667 14.0495C95.4687 14.2761 95.5214 14.5214 95.5214 14.7695C95.5214 15.0176 95.4687 15.2629 95.3667 15.4895C95.2648 15.7161 95.1159 15.919 94.9297 16.0849C94.7434 16.2509 94.524 16.3761 94.2857 16.4527C94.0474 16.5292 93.7956 16.5553 93.5464 16.5292H90.0323Z" fill="#60B5D9"/>
<path d="M93.566 13.4033H90.032C89.2754 13.4033 88.6621 14.0107 88.6621 14.7599V14.7796C88.6621 15.5288 89.2754 16.1362 90.032 16.1362H93.566C94.3226 16.1362 94.9359 15.5288 94.9359 14.7796V14.7599C94.9359 14.0107 94.3226 13.4033 93.566 13.4033Z" fill="#60B5D9"/>
<path d="M98.3907 16.5292C97.9519 16.4831 97.5457 16.2779 97.2505 15.953C96.9553 15.6281 96.792 15.2065 96.792 14.7695C96.792 14.3324 96.9553 13.9109 97.2505 13.586C97.5457 13.2611 97.9519 13.0558 98.3907 13.0098H101.905C102.154 12.9837 102.406 13.0098 102.644 13.0863C102.882 13.1628 103.102 13.2881 103.288 13.4541C103.474 13.62 103.623 13.8229 103.725 14.0495C103.827 14.2761 103.88 14.5214 103.88 14.7695C103.88 15.0176 103.827 15.2629 103.725 15.4895C103.623 15.7161 103.474 15.919 103.288 16.0849C103.102 16.2509 102.882 16.3761 102.644 16.4527C102.406 16.5292 102.154 16.5553 101.905 16.5292H98.3907Z" fill="#60B5D9"/>
<path d="M101.924 13.4033H98.3904C97.6338 13.4033 97.0205 14.0107 97.0205 14.7599V14.7796C97.0205 15.5288 97.6338 16.1362 98.3904 16.1362H101.924C102.681 16.1362 103.294 15.5288 103.294 14.7796V14.7599C103.294 14.0107 102.681 13.4033 101.924 13.4033Z" fill="#60B5D9"/>
<path d="M106.749 16.5292C106.31 16.4831 105.904 16.2779 105.609 15.953C105.314 15.6281 105.15 15.2065 105.15 14.7695C105.15 14.3324 105.314 13.9109 105.609 13.586C105.904 13.2611 106.31 13.0558 106.749 13.0098H110.263C110.512 12.9837 110.764 13.0098 111.003 13.0863C111.241 13.1628 111.46 13.2881 111.646 13.4541C111.833 13.62 111.982 13.8229 112.084 14.0495C112.185 14.2761 112.238 14.5214 112.238 14.7695C112.238 15.0176 112.185 15.2629 112.084 15.4895C111.982 15.7161 111.833 15.919 111.646 16.0849C111.46 16.2509 111.241 16.3761 111.003 16.4527C110.764 16.5292 110.512 16.5553 110.263 16.5292H106.749Z" fill="#60B5D9"/>
<path d="M110.283 13.4033H106.749C105.992 13.4033 105.379 14.0107 105.379 14.7599V14.7796C105.379 15.5288 105.992 16.1362 106.749 16.1362H110.283C111.039 16.1362 111.653 15.5288 111.653 14.7796V14.7599C111.653 14.0107 111.039 13.4033 110.283 13.4033Z" fill="#60B5D9"/>
<path d="M161.599 16.5292C161.16 16.4831 160.754 16.2779 160.459 15.953C160.163 15.6281 160 15.2065 160 14.7695C160 14.3324 160.163 13.9109 160.459 13.586C160.754 13.2611 161.16 13.0558 161.599 13.0098H165.113C165.362 12.9837 165.614 13.0098 165.852 13.0863C166.09 13.1628 166.31 13.2881 166.496 13.4541C166.682 13.62 166.831 13.8229 166.933 14.0495C167.035 14.2761 167.088 14.5214 167.088 14.7695C167.088 15.0176 167.035 15.2629 166.933 15.4895C166.831 15.7161 166.682 15.919 166.496 16.0849C166.31 16.2509 166.09 16.3761 165.852 16.4527C165.614 16.5292 165.362 16.5553 165.113 16.5292H161.599Z" fill="#60B5D9"/>
<path d="M165.132 13.4033H161.598C160.842 13.4033 160.229 14.0107 160.229 14.7599V14.7796C160.229 15.5288 160.842 16.1362 161.598 16.1362H165.132C165.889 16.1362 166.502 15.5288 166.502 14.7796V14.7599C166.502 14.0107 165.889 13.4033 165.132 13.4033Z" fill="#60B5D9"/>
<path d="M169.957 16.5292C169.518 16.4831 169.112 16.2779 168.817 15.953C168.522 15.6281 168.358 15.2065 168.358 14.7695C168.358 14.3324 168.522 13.9109 168.817 13.586C169.112 13.2611 169.518 13.0558 169.957 13.0098H173.471C173.72 12.9837 173.972 13.0098 174.211 13.0863C174.449 13.1628 174.668 13.2881 174.854 13.4541C175.041 13.62 175.19 13.8229 175.292 14.0495C175.393 14.2761 175.446 14.5214 175.446 14.7695C175.446 15.0176 175.393 15.2629 175.292 15.4895C175.19 15.7161 175.041 15.919 174.854 16.0849C174.668 16.2509 174.449 16.3761 174.211 16.4527C173.972 16.5292 173.72 16.5553 173.471 16.5292H169.957Z" fill="#60B5D9"/>
<path d="M173.491 13.4033H169.957C169.2 13.4033 168.587 14.0107 168.587 14.7599V14.7796C168.587 15.5288 169.2 16.1362 169.957 16.1362H173.491C174.247 16.1362 174.861 15.5288 174.861 14.7796V14.7599C174.861 14.0107 174.247 13.4033 173.491 13.4033Z" fill="#60B5D9"/>
<path d="M178.355 16.5292C177.916 16.4831 177.51 16.2779 177.214 15.953C176.919 15.6281 176.756 15.2065 176.756 14.7695C176.756 14.3324 176.919 13.9109 177.214 13.586C177.51 13.2611 177.916 13.0558 178.355 13.0098H181.869C182.118 12.9837 182.37 13.0098 182.608 13.0863C182.846 13.1628 183.066 13.2881 183.252 13.4541C183.438 13.62 183.587 13.8229 183.689 14.0495C183.791 14.2761 183.844 14.5214 183.844 14.7695C183.844 15.0176 183.791 15.2629 183.689 15.4895C183.587 15.7161 183.438 15.919 183.252 16.0849C183.066 16.2509 182.846 16.3761 182.608 16.4527C182.37 16.5292 182.118 16.5553 181.869 16.5292H178.355Z" fill="#60B5D9"/>
<path d="M181.849 13.4033H178.315C177.559 13.4033 176.945 14.0107 176.945 14.7599V14.7796C176.945 15.5288 177.559 16.1362 178.315 16.1362H181.849C182.606 16.1362 183.219 15.5288 183.219 14.7796V14.7599C183.219 14.0107 182.606 13.4033 181.849 13.4033Z" fill="#60B5D9"/>
<path d="M186.674 16.5292C186.235 16.4831 185.829 16.2779 185.534 15.953C185.239 15.6281 185.075 15.2065 185.075 14.7695C185.075 14.3324 185.239 13.9109 185.534 13.586C185.829 13.2611 186.235 13.0558 186.674 13.0098H190.267C190.517 12.9837 190.768 13.0098 191.007 13.0863C191.245 13.1628 191.464 13.2881 191.651 13.4541C191.837 13.62 191.986 13.8229 192.088 14.0495C192.19 14.2761 192.242 14.5214 192.242 14.7695C192.242 15.0176 192.19 15.2629 192.088 15.4895C191.986 15.7161 191.837 15.919 191.651 16.0849C191.464 16.2509 191.245 16.3761 191.007 16.4527C190.768 16.5292 190.517 16.5553 190.267 16.5292H186.674Z" fill="#60B5D9"/>
<path d="M190.208 13.4033H186.674C185.917 13.4033 185.304 14.0107 185.304 14.7599V14.7796C185.304 15.5288 185.917 16.1362 186.674 16.1362H190.208C190.964 16.1362 191.577 15.5288 191.577 14.7796V14.7599C191.577 14.0107 190.964 13.4033 190.208 13.4033Z" fill="#60B5D9"/>
<path d="M195.032 16.5292C194.593 16.4831 194.187 16.2779 193.892 15.953C193.597 15.6281 193.434 15.2065 193.434 14.7695C193.434 14.3324 193.597 13.9109 193.892 13.586C194.187 13.2611 194.593 13.0558 195.032 13.0098H198.546C198.796 12.9837 199.047 13.0098 199.286 13.0863C199.524 13.1628 199.743 13.2881 199.93 13.4541C200.116 13.62 200.265 13.8229 200.367 14.0495C200.469 14.2761 200.521 14.5214 200.521 14.7695C200.521 15.0176 200.469 15.2629 200.367 15.4895C200.265 15.7161 200.116 15.919 199.93 16.0849C199.743 16.2509 199.524 16.3761 199.286 16.4527C199.047 16.5292 198.796 16.5553 198.546 16.5292H195.032Z" fill="#60B5D9"/>
<path d="M198.566 13.4033H195.032C194.275 13.4033 193.662 14.0107 193.662 14.7599V14.7796C193.662 15.5288 194.275 16.1362 195.032 16.1362H198.566C199.323 16.1362 199.936 15.5288 199.936 14.7796V14.7599C199.936 14.0107 199.323 13.4033 198.566 13.4033Z" fill="#60B5D9"/>
<path d="M203.391 16.5292C202.952 16.4831 202.546 16.2779 202.251 15.953C201.955 15.6281 201.792 15.2065 201.792 14.7695C201.792 14.3324 201.955 13.9109 202.251 13.586C202.546 13.2611 202.952 13.0558 203.391 13.0098H206.905C207.154 12.9837 207.406 13.0098 207.644 13.0863C207.882 13.1628 208.102 13.2881 208.288 13.4541C208.474 13.62 208.623 13.8229 208.725 14.0495C208.827 14.2761 208.88 14.5214 208.88 14.7695C208.88 15.0176 208.827 15.2629 208.725 15.4895C208.623 15.7161 208.474 15.919 208.288 16.0849C208.102 16.2509 207.882 16.3761 207.644 16.4527C207.406 16.5292 207.154 16.5553 206.905 16.5292H203.391Z" fill="#60B5D9"/>
<path d="M206.924 13.4033H203.39C202.634 13.4033 202.021 14.0107 202.021 14.7599V14.7796C202.021 15.5288 202.634 16.1362 203.39 16.1362H206.924C207.681 16.1362 208.294 15.5288 208.294 14.7796V14.7599C208.294 14.0107 207.681 13.4033 206.924 13.4033Z" fill="#60B5D9"/>
<path d="M211.749 16.5292C211.31 16.4831 210.904 16.2779 210.609 15.953C210.314 15.6281 210.15 15.2065 210.15 14.7695C210.15 14.3324 210.314 13.9109 210.609 13.586C210.904 13.2611 211.31 13.0558 211.749 13.0098H215.263C215.512 12.9837 215.764 13.0098 216.003 13.0863C216.241 13.1628 216.46 13.2881 216.646 13.4541C216.833 13.62 216.982 13.8229 217.084 14.0495C217.185 14.2761 217.238 14.5214 217.238 14.7695C217.238 15.0176 217.185 15.2629 217.084 15.4895C216.982 15.7161 216.833 15.919 216.646 16.0849C216.46 16.2509 216.241 16.3761 216.003 16.4527C215.764 16.5292 215.512 16.5553 215.263 16.5292H211.749Z" fill="#60B5D9"/>
<path d="M215.283 13.4033H211.749C210.992 13.4033 210.379 14.0107 210.379 14.7599V14.7796C210.379 15.5288 210.992 16.1362 211.749 16.1362H215.283C216.039 16.1362 216.653 15.5288 216.653 14.7796V14.7599C216.653 14.0107 216.039 13.4033 215.283 13.4033Z" fill="#60B5D9"/>
<path d="M343.667 29.0197C341.317 29.0221 339.001 28.4647 336.914 27.3946C334.828 26.3244 333.031 24.7729 331.677 22.8709C330.323 20.969 329.451 18.7723 329.134 16.4664C328.817 14.1605 329.065 11.8129 329.856 9.62171C330.648 7.43055 331.96 5.46011 333.683 3.87665C335.405 2.2932 337.486 1.14318 339.751 0.52363C342.017 -0.0959163 344.399 -0.166811 346.698 0.316926C348.996 0.800664 351.144 1.82484 352.959 3.30304C353.179 3.48281 353.338 3.7253 353.414 3.99758C353.49 4.26987 353.48 4.55876 353.384 4.82502C353.289 5.09128 353.113 5.32201 352.881 5.48588C352.648 5.64976 352.371 5.73883 352.085 5.74101C351.763 5.74245 351.449 5.63882 351.192 5.44609C349.721 4.22048 347.973 3.3654 346.097 2.95385C344.22 2.54231 342.271 2.58651 340.416 3.08268C338.56 3.57886 336.853 4.51227 335.441 5.80326C334.029 7.09424 332.953 8.70445 332.305 10.4965C331.658 12.2885 331.458 14.209 331.722 16.0942C331.987 17.9794 332.708 19.7733 333.824 21.3227C334.94 22.8721 336.418 24.131 338.132 24.992C339.846 25.853 341.745 26.2905 343.667 26.2671C344.036 26.2671 344.389 26.4121 344.65 26.6702C344.911 26.9283 345.057 27.2784 345.057 27.6434C345.057 28.0084 344.911 28.3585 344.65 28.6166C344.389 28.8747 344.036 29.0197 343.667 29.0197Z" fill="#231815"/>
<path d="M343.668 28.6262C341.379 28.6348 339.122 28.0976 337.087 27.0599C335.052 26.0222 333.3 24.5146 331.978 22.6646C330.655 20.8145 329.803 18.6764 329.491 16.431C329.18 14.1857 329.419 11.899 330.188 9.76439C330.957 7.6298 332.234 5.71003 333.911 4.1674C335.588 2.62477 337.615 1.50464 339.821 0.901716C342.028 0.29879 344.348 0.230794 346.586 0.703478C348.825 1.17616 350.915 2.17563 352.681 3.61737C352.783 3.69752 352.868 3.79715 352.93 3.91035C352.993 4.02356 353.032 4.14803 353.045 4.27638C353.058 4.40474 353.044 4.53437 353.006 4.65758C352.967 4.78078 352.904 4.89507 352.82 4.99364C352.739 5.09472 352.639 5.17867 352.524 5.24052C352.41 5.30236 352.284 5.34085 352.155 5.35368C352.025 5.36652 351.894 5.35344 351.77 5.31524C351.645 5.27703 351.53 5.21447 351.43 5.13127C349.905 3.93071 348.112 3.1079 346.201 2.73117C344.29 2.35443 342.315 2.43465 340.442 2.96515C338.568 3.49565 336.849 4.46113 335.428 5.78142C334.007 7.1017 332.925 8.73869 332.27 10.5564C331.616 12.3742 331.409 14.3203 331.667 16.233C331.925 18.1458 332.64 19.9701 333.752 21.5544C334.865 23.1387 336.343 24.4373 338.064 25.3424C339.785 26.2475 341.699 26.7329 343.648 26.7584C343.911 26.7584 344.163 26.862 344.35 27.0463C344.536 27.2307 344.64 27.4807 344.64 27.7414C344.64 28.0022 344.536 28.2522 344.35 28.4366C344.163 28.6209 343.911 28.7245 343.648 28.7245L343.668 28.6262Z" fill="#231815"/>
<path d="M351.311 26.6211C351.016 26.6227 350.728 26.5311 350.489 26.3597C350.25 26.1882 350.072 25.9459 349.981 25.6677C349.891 25.3895 349.892 25.0899 349.984 24.8124C350.077 24.5349 350.257 24.2938 350.497 24.1242C352.049 23.0391 353.317 21.6021 354.194 19.933C355.072 18.2639 355.533 16.4112 355.54 14.5296C355.54 14.1646 355.686 13.8145 355.947 13.5564C356.208 13.2983 356.561 13.1533 356.93 13.1533C357.298 13.1533 357.652 13.2983 357.912 13.5564C358.173 13.8145 358.32 14.1646 358.32 14.5296C358.311 16.8445 357.742 19.1236 356.66 21.176C355.579 23.2284 354.017 24.9944 352.105 26.3262C351.881 26.509 351.602 26.6127 351.311 26.6211Z" fill="#231815"/>
<path d="M351.311 26.2277C351.152 26.2302 350.994 26.1939 350.852 26.1219C350.71 26.0499 350.588 25.9445 350.497 25.8148C350.421 25.7092 350.367 25.5896 350.338 25.4631C350.308 25.3365 350.305 25.2055 350.327 25.0775C350.349 24.9496 350.396 24.8272 350.467 24.7176C350.537 24.6079 350.628 24.5131 350.736 24.4386C352.33 23.328 353.633 21.8567 354.538 20.1469C355.443 18.4372 355.922 16.5383 355.937 14.6081C355.937 14.3473 356.042 14.0973 356.228 13.9129C356.414 13.7286 356.667 13.625 356.93 13.625C357.193 13.625 357.446 13.7286 357.632 13.9129C357.818 14.0973 357.923 14.3473 357.923 14.6081C357.926 16.8591 357.388 19.0786 356.352 21.0823C355.316 23.0861 353.813 24.8163 351.966 26.1294C351.765 26.2326 351.535 26.2671 351.311 26.2277Z" fill="#231815"/>
<path d="M355.282 9.5749C355.035 9.57424 354.792 9.5083 354.579 9.38389C354.366 9.25947 354.191 9.08108 354.071 8.8671C353.342 7.55447 352.364 6.39302 351.192 5.44609C350.905 5.21404 350.723 4.87861 350.686 4.51358C350.649 4.14856 350.759 3.78383 350.994 3.49964C351.228 3.21546 351.567 3.03509 351.935 2.99822C352.304 2.96135 352.672 3.07099 352.959 3.30303C354.399 4.48086 355.604 5.91444 356.513 7.53015C356.587 7.6941 356.625 7.87163 356.625 8.05117C356.625 8.23071 356.587 8.40824 356.513 8.57219C356.413 8.92238 356.178 9.21927 355.858 9.39795C355.682 9.49979 355.485 9.56033 355.282 9.5749Z" fill="#231815"/>
<path d="M355.282 9.1814C355.104 9.17602 354.931 9.12634 354.779 9.03697C354.626 8.94759 354.499 8.82143 354.408 8.67021C353.659 7.31445 352.655 6.11318 351.45 5.13123C351.248 4.96621 351.121 4.72909 351.095 4.47139C351.069 4.21369 351.146 3.95623 351.311 3.75496C351.392 3.65388 351.493 3.56993 351.607 3.50808C351.721 3.44624 351.847 3.40775 351.977 3.39492C352.106 3.38208 352.237 3.39515 352.361 3.43336C352.486 3.47157 352.601 3.53413 352.701 3.61733C354.113 4.75024 355.286 6.14629 356.155 7.72648C356.238 7.87639 356.28 8.04508 356.277 8.21593C356.274 8.38678 356.226 8.55389 356.138 8.70076C356.05 8.84764 355.924 8.96921 355.774 9.0535C355.624 9.13778 355.454 9.18186 355.282 9.1814Z" fill="#231815"/>
<path d="M264.599 16.5292C264.16 16.4831 263.754 16.2779 263.459 15.953C263.163 15.6281 263 15.2065 263 14.7695C263 14.3324 263.163 13.9109 263.459 13.586C263.754 13.2611 264.16 13.0558 264.599 13.0098H268.113C268.362 12.9837 268.614 13.0098 268.852 13.0863C269.09 13.1628 269.31 13.2881 269.496 13.4541C269.682 13.62 269.831 13.8229 269.933 14.0495C270.035 14.2761 270.088 14.5214 270.088 14.7695C270.088 15.0176 270.035 15.2629 269.933 15.4895C269.831 15.7161 269.682 15.919 269.496 16.0849C269.31 16.2509 269.09 16.3761 268.852 16.4527C268.614 16.5292 268.362 16.5553 268.113 16.5292H264.599Z" fill="#231815"/>
<path d="M268.133 13.4033H264.599C263.843 13.4033 263.229 14.0107 263.229 14.7599V14.7796C263.229 15.5288 263.843 16.1362 264.599 16.1362H268.133C268.89 16.1362 269.503 15.5288 269.503 14.7796V14.7599C269.503 14.0107 268.89 13.4033 268.133 13.4033Z" fill="#231815"/>
<path d="M272.957 16.5292C272.518 16.4831 272.112 16.2779 271.817 15.953C271.522 15.6281 271.358 15.2065 271.358 14.7695C271.358 14.3324 271.522 13.9109 271.817 13.586C272.112 13.2611 272.518 13.0558 272.957 13.0098H276.471C276.72 12.9837 276.972 13.0098 277.211 13.0863C277.449 13.1628 277.668 13.2881 277.854 13.4541C278.041 13.62 278.19 13.8229 278.292 14.0495C278.393 14.2761 278.446 14.5214 278.446 14.7695C278.446 15.0176 278.393 15.2629 278.292 15.4895C278.19 15.7161 278.041 15.919 277.854 16.0849C277.668 16.2509 277.449 16.3761 277.211 16.4527C276.972 16.5292 276.72 16.5553 276.471 16.5292H272.957Z" fill="#231815"/>
<path d="M276.492 13.4033H272.958C272.201 13.4033 271.588 14.0107 271.588 14.7599V14.7796C271.588 15.5288 272.201 16.1362 272.958 16.1362H276.492C277.248 16.1362 277.862 15.5288 277.862 14.7796V14.7599C277.862 14.0107 277.248 13.4033 276.492 13.4033Z" fill="#231815"/>
<path d="M281.316 16.5292C280.877 16.4831 280.47 16.2779 280.175 15.953C279.88 15.6281 279.717 15.2065 279.717 14.7695C279.717 14.3324 279.88 13.9109 280.175 13.586C280.47 13.2611 280.877 13.0558 281.316 13.0098H284.83C285.079 12.9837 285.331 13.0098 285.569 13.0863C285.807 13.1628 286.027 13.2881 286.213 13.4541C286.399 13.62 286.548 13.8229 286.65 14.0495C286.752 14.2761 286.805 14.5214 286.805 14.7695C286.805 15.0176 286.752 15.2629 286.65 15.4895C286.548 15.7161 286.399 15.919 286.213 16.0849C286.027 16.2509 285.807 16.3761 285.569 16.4527C285.331 16.5292 285.079 16.5553 284.83 16.5292H281.316Z" fill="#231815"/>
<path d="M284.85 13.4033H281.316C280.56 13.4033 279.946 14.0107 279.946 14.7599V14.7796C279.946 15.5288 280.56 16.1362 281.316 16.1362H284.85C285.607 16.1362 286.22 15.5288 286.22 14.7796V14.7599C286.22 14.0107 285.607 13.4033 284.85 13.4033Z" fill="#231815"/>
<path d="M289.674 16.5292C289.235 16.4831 288.829 16.2779 288.534 15.953C288.239 15.6281 288.075 15.2065 288.075 14.7695C288.075 14.3324 288.239 13.9109 288.534 13.586C288.829 13.2611 289.235 13.0558 289.674 13.0098H293.188C293.437 12.9837 293.689 13.0098 293.927 13.0863C294.166 13.1628 294.385 13.2881 294.571 13.4541C294.757 13.62 294.906 13.8229 295.008 14.0495C295.11 14.2761 295.163 14.5214 295.163 14.7695C295.163 15.0176 295.11 15.2629 295.008 15.4895C294.906 15.7161 294.757 15.919 294.571 16.0849C294.385 16.2509 294.166 16.3761 293.927 16.4527C293.689 16.5292 293.437 16.5553 293.188 16.5292H289.674Z" fill="#231815"/>
<path d="M293.209 13.4033H289.675C288.918 13.4033 288.305 14.0107 288.305 14.7599V14.7796C288.305 15.5288 288.918 16.1362 289.675 16.1362H293.209C293.965 16.1362 294.578 15.5288 294.578 14.7796V14.7599C294.578 14.0107 293.965 13.4033 293.209 13.4033Z" fill="#231815"/>
<path d="M298.053 16.5292C297.614 16.4831 297.208 16.2779 296.913 15.953C296.617 15.6281 296.454 15.2065 296.454 14.7695C296.454 14.3324 296.617 13.9109 296.913 13.586C297.208 13.2611 297.614 13.0558 298.053 13.0098H301.567C301.816 12.9837 302.068 13.0098 302.306 13.0863C302.545 13.1628 302.764 13.2881 302.95 13.4541C303.136 13.62 303.285 13.8229 303.387 14.0495C303.489 14.2761 303.542 14.5214 303.542 14.7695C303.542 15.0176 303.489 15.2629 303.387 15.4895C303.285 15.7161 303.136 15.919 302.95 16.0849C302.764 16.2509 302.545 16.3761 302.306 16.4527C302.068 16.5292 301.816 16.5553 301.567 16.5292H298.053Z" fill="#231815"/>
<path d="M301.567 13.4033H298.033C297.276 13.4033 296.663 14.0107 296.663 14.7599V14.7796C296.663 15.5288 297.276 16.1362 298.033 16.1362H301.567C302.324 16.1362 302.937 15.5288 302.937 14.7796V14.7599C302.937 14.0107 302.324 13.4033 301.567 13.4033Z" fill="#231815"/>
<path d="M306.391 16.5292C305.952 16.4831 305.546 16.2779 305.251 15.953C304.955 15.6281 304.792 15.2065 304.792 14.7695C304.792 14.3324 304.955 13.9109 305.251 13.586C305.546 13.2611 305.952 13.0558 306.391 13.0098H309.964C310.214 12.9837 310.465 13.0098 310.704 13.0863C310.942 13.1628 311.161 13.2881 311.348 13.4541C311.534 13.62 311.683 13.8229 311.785 14.0495C311.887 14.2761 311.939 14.5214 311.939 14.7695C311.939 15.0176 311.887 15.2629 311.785 15.4895C311.683 15.7161 311.534 15.919 311.348 16.0849C311.161 16.2509 310.942 16.3761 310.704 16.4527C310.465 16.5292 310.214 16.5553 309.964 16.5292H306.391Z" fill="#231815"/>
<path d="M309.925 13.4033H306.391C305.635 13.4033 305.021 14.0107 305.021 14.7599V14.7796C305.021 15.5288 305.635 16.1362 306.391 16.1362H309.925C310.682 16.1362 311.295 15.5288 311.295 14.7796V14.7599C311.295 14.0107 310.682 13.4033 309.925 13.4033Z" fill="#231815"/>
<path d="M314.749 16.5292C314.31 16.4831 313.904 16.2779 313.609 15.953C313.314 15.6281 313.15 15.2065 313.15 14.7695C313.15 14.3324 313.314 13.9109 313.609 13.586C313.904 13.2611 314.31 13.0558 314.749 13.0098H318.263C318.512 12.9837 318.764 13.0098 319.003 13.0863C319.241 13.1628 319.46 13.2881 319.646 13.4541C319.833 13.62 319.982 13.8229 320.084 14.0495C320.185 14.2761 320.238 14.5214 320.238 14.7695C320.238 15.0176 320.185 15.2629 320.084 15.4895C319.982 15.7161 319.833 15.919 319.646 16.0849C319.46 16.2509 319.241 16.3761 319.003 16.4527C318.764 16.5292 318.512 16.5553 318.263 16.5292H314.749Z" fill="#231815"/>
<path d="M318.284 13.4033H314.75C313.993 13.4033 313.38 14.0107 313.38 14.7599V14.7796C313.38 15.5288 313.993 16.1362 314.75 16.1362H318.284C319.04 16.1362 319.654 15.5288 319.654 14.7796V14.7599C319.654 14.0107 319.04 13.4033 318.284 13.4033Z" fill="#231815"/>
</svg>
