<svg width="23" height="23" viewBox="0 0 23 23" fill="none" xmlns="http://www.w3.org/2000/svg">
<g clip-path="url(#clip0_213_132)">
<path d="M22.7196 21.364L16.9993 15.6437C18.5582 13.7372 19.3246 11.3045 19.1401 8.84874C18.9556 6.39298 17.8342 4.10209 16.008 2.44991C14.1818 0.797735 11.7904 -0.0893151 9.32847 -0.0277597C6.86656 0.0337958 4.52249 1.03925 2.78111 2.78063C1.03974 4.522 0.0342841 6.86607 -0.0272714 9.32798C-0.0888268 11.7899 0.798224 14.1813 2.4504 16.0075C4.10258 17.8337 6.39347 18.9551 8.84923 19.1396C11.305 19.3241 13.7377 18.5577 15.6442 16.9988L21.3645 22.7191C21.5453 22.8937 21.7873 22.9903 22.0386 22.9881C22.2899 22.9859 22.5302 22.8851 22.7079 22.7074C22.8856 22.5298 22.9864 22.2894 22.9886 22.0381C22.9908 21.7869 22.8942 21.5448 22.7196 21.364ZM9.58373 17.2499C8.06741 17.2499 6.58514 16.8003 5.32436 15.9578C4.06358 15.1154 3.08093 13.918 2.50066 12.5171C1.92039 11.1162 1.76856 9.57474 2.06438 8.08755C2.3602 6.60036 3.09038 5.2343 4.16258 4.16209C5.23478 3.08989 6.60085 2.35971 8.08804 2.06389C9.57523 1.76807 11.1167 1.9199 12.5176 2.50017C13.9185 3.08044 15.1159 4.0631 15.9583 5.32387C16.8008 6.58465 17.2504 8.06692 17.2504 9.58324C17.2481 11.6159 16.4396 13.5646 15.0024 15.0019C13.5651 16.4392 11.6164 17.2476 9.58373 17.2499Z" fill="#146DB6"/>
</g>
<defs>
<clipPath id="clip0_213_132">
<rect width="23" height="23" fill="white"/>
</clipPath>
</defs>
</svg>
