<svg width="28" height="34" viewBox="0 0 28 34" fill="none" xmlns="http://www.w3.org/2000/svg">
<path d="M7.5 13C8.32843 13 9 12.5523 9 12C9 11.4477 8.32843 11 7.5 11C6.67157 11 6 11.4477 6 12C6 12.5523 6.67157 13 7.5 13Z" fill="white"/>
<path d="M20.2083 0H6.79167C5.5213 0.00149964 4.30341 0.4995 3.40513 1.38476C2.50685 2.27003 2.00152 3.47027 2 4.72222L2 12.2778C2.00152 13.5297 2.50685 14.73 3.40513 15.6152C4.30341 16.5005 5.5213 16.9985 6.79167 17H20.2083C21.4787 16.9985 22.6966 16.5005 23.5949 15.6152C24.4932 14.73 24.9985 13.5297 25 12.2778V4.72222C24.9985 3.47027 24.4932 2.27003 23.5949 1.38476C22.6966 0.4995 21.4787 0.00149964 20.2083 0ZM6.79167 1.88889H20.2083C20.9708 1.88889 21.7021 2.1874 22.2413 2.71875C22.7804 3.25011 23.0833 3.97078 23.0833 4.72222H3.91667C3.91667 3.97078 4.21957 3.25011 4.75873 2.71875C5.2979 2.1874 6.02917 1.88889 6.79167 1.88889ZM20.2083 15.1111H6.79167C6.02917 15.1111 5.2979 14.8126 4.75873 14.2812C4.21957 13.7499 3.91667 13.0292 3.91667 12.2778V6.61111H23.0833V12.2778C23.0833 13.0292 22.7804 13.7499 22.2413 14.2812C21.7021 14.8126 20.9708 15.1111 20.2083 15.1111Z" fill="white"/>
<path d="M4.24117 22.99V23.46C4.24117 24.66 2.88117 25.8 1.03117 26.06L1.44117 26.91C3.55117 26.57 5.16117 25.21 5.16117 23.46V22.99H4.24117ZM4.43117 22.99V23.46C4.43117 25.2 6.04117 26.57 8.15117 26.91L8.56117 26.06C6.71117 25.8 5.34117 24.64 5.34117 23.46V22.99H4.43117ZM4.24117 28.41V31.83H5.28117V28.41H4.24117ZM0.661172 27.75V28.61H8.92117V27.75H0.661172ZM16.3804 22.69V28.22H17.4304V22.69H16.3804ZM15.0304 25.42V26.28H16.8204V25.42H15.0304ZM11.4304 28.66V31.72H17.4304V28.66H11.4304ZM16.4004 29.49V30.88H12.4604V29.49H16.4004ZM9.87039 23.57V24.41H15.1804V23.57H9.87039ZM12.5304 24.8C11.2804 24.8 10.3804 25.47 10.3804 26.44C10.3804 27.41 11.2804 28.07 12.5304 28.07C13.7804 28.07 14.6704 27.41 14.6704 26.44C14.6704 25.47 13.7804 24.8 12.5304 24.8ZM12.5304 25.59C13.2004 25.59 13.6704 25.91 13.6704 26.44C13.6704 26.96 13.2004 27.29 12.5304 27.29C11.8504 27.29 11.3804 26.96 11.3804 26.44C11.3804 25.91 11.8504 25.59 12.5304 25.59ZM12.0104 22.61V24.17H13.0504V22.61H12.0104ZM21.2296 27.65V30.19H22.2796V27.65H21.2296ZM24.0696 27.66V30.2H25.1096V27.66H24.0696ZM19.0596 29.91V30.77H27.3396V29.91H19.0596ZM19.7396 23.48V24.33H26.5996V23.48H19.7396ZM19.7696 27.11V27.95H26.5796V27.11H19.7696ZM21.0796 24.17V27.26H22.1296V24.17H21.0796ZM24.2196 24.17V27.26H25.2596V24.17H24.2196Z" fill="white"/>
</svg>
