<svg width="40" height="37" viewBox="0 0 40 37" fill="none" xmlns="http://www.w3.org/2000/svg">
<g clip-path="url(#clip0_115_77)">
<path d="M20 11C21.0878 11 22.1512 10.6774 23.0556 10.0731C23.9601 9.46874 24.6651 8.60975 25.0813 7.60476C25.4976 6.59977 25.6065 5.4939 25.3943 4.42701C25.1821 3.36011 24.6583 2.3801 23.8891 1.61091C23.1199 0.841726 22.1399 0.317902 21.073 0.105683C20.0061 -0.106535 18.9002 0.00238307 17.8952 0.418665C16.8902 0.834947 16.0313 1.5399 15.4269 2.44437C14.8226 3.34884 14.5 4.4122 14.5 5.5C14.5015 6.95825 15.0814 8.35635 16.1125 9.38748C17.1437 10.4186 18.5418 10.9985 20 11ZM20 1.83334C20.7252 1.83334 21.4341 2.04838 22.0371 2.45128C22.6401 2.85418 23.11 3.42683 23.3876 4.09683C23.6651 4.76683 23.7377 5.50407 23.5962 6.21533C23.4547 6.9266 23.1055 7.57993 22.5927 8.09273C22.0799 8.60552 21.4266 8.95473 20.7153 9.09621C20.0041 9.23769 19.2668 9.16508 18.5968 8.88756C17.9268 8.61004 17.3542 8.14007 16.9513 7.53709C16.5484 6.93411 16.3333 6.2252 16.3333 5.5C16.3333 4.52754 16.7196 3.59491 17.4073 2.90728C18.0949 2.21964 19.0275 1.83334 20 1.83334Z" fill="white"/>
<path d="M20 12.8335C17.8127 12.8359 15.7157 13.7059 14.169 15.2525C12.6224 16.7992 11.7524 18.8962 11.75 21.0835C11.75 21.3266 11.8466 21.5598 12.0185 21.7317C12.1904 21.9036 12.4236 22.0002 12.6667 22.0002C12.9098 22.0002 13.1429 21.9036 13.3148 21.7317C13.4868 21.5598 13.5833 21.3266 13.5833 21.0835C13.5833 19.3817 14.2594 17.7496 15.4627 16.5462C16.6661 15.3429 18.2982 14.6668 20 14.6668C21.7018 14.6668 23.3339 15.3429 24.5373 16.5462C25.7406 17.7496 26.4167 19.3817 26.4167 21.0835C26.4167 21.3266 26.5132 21.5598 26.6852 21.7317C26.8571 21.9036 27.0902 22.0002 27.3333 22.0002C27.5764 22.0002 27.8096 21.9036 27.9815 21.7317C28.1534 21.5598 28.25 21.3266 28.25 21.0835C28.2476 18.8962 27.3776 16.7992 25.8309 15.2525C24.2843 13.7059 22.1873 12.8359 20 12.8335Z" fill="white"/>
</g>
<path d="M7.73852 29.25V30.12H9.38852V29.25H7.73852ZM6.96852 25.68V34.82H8.01852V25.68H6.96852ZM1.25852 26.57V32.24H2.29852V26.57H1.25852ZM1.25852 31.67V32.55H2.00852C3.37852 32.55 4.80852 32.46 6.34852 32.14L6.22852 31.28C4.73852 31.58 3.33852 31.67 2.00852 31.67H1.25852ZM13.0877 26.33C11.6577 26.33 10.5977 27.23 10.5977 28.52C10.5977 29.82 11.6577 30.72 13.0877 30.72C14.5177 30.72 15.5577 29.82 15.5577 28.52C15.5577 27.23 14.5177 26.33 13.0877 26.33ZM13.0877 27.23C13.9177 27.23 14.5377 27.73 14.5377 28.52C14.5377 29.31 13.9177 29.82 13.0877 29.82C12.2477 29.82 11.6277 29.31 11.6277 28.52C11.6277 27.73 12.2477 27.23 13.0877 27.23ZM16.6077 25.68V34.84H17.6577V25.68H16.6077ZM10.3077 32.91C11.9177 32.91 14.1177 32.89 16.1377 32.5L16.0577 31.74C14.0877 32.03 11.8177 32.05 10.1777 32.05L10.3077 32.91ZM26.493 27.99V28.85H28.403V27.99H26.493ZM28.103 25.69V31.13H29.153V25.69H28.103ZM26.103 31.37C24.193 31.37 23.023 32.02 23.023 33.1C23.023 34.2 24.193 34.83 26.103 34.83C28.013 34.83 29.183 34.2 29.183 33.1C29.183 32.02 28.013 31.37 26.103 31.37ZM26.103 32.18C27.403 32.18 28.143 32.5 28.143 33.1C28.143 33.7 27.403 34.02 26.103 34.02C24.813 34.02 24.063 33.7 24.063 33.1C24.063 32.5 24.813 32.18 26.103 32.18ZM23.813 26.61V27.28C23.813 28.53 23.003 29.75 21.573 30.25L22.113 31.08C23.733 30.5 24.663 28.99 24.663 27.28V26.61H23.813ZM24.023 26.61V27.27C24.023 28.85 24.913 30.29 26.493 30.84L27.013 30.01C25.643 29.54 24.863 28.41 24.863 27.27V26.61H24.023ZM21.873 26.31V27.15H26.773V26.31H21.873ZM30.7823 32.85V33.71H39.0623V32.85H30.7823ZM34.3823 30.77V33.08H35.4223V30.77H34.3823ZM31.7023 26.31V31.02H38.1023V26.31H37.0623V27.84H32.7523V26.31H31.7023ZM32.7523 28.67H37.0623V30.17H32.7523V28.67Z" fill="white"/>
<defs>
<clipPath id="clip0_115_77">
<rect width="22" height="22" fill="white" transform="translate(9)"/>
</clipPath>
</defs>
</svg>
