<svg width="37" height="37" viewBox="0 0 37 37" fill="none" xmlns="http://www.w3.org/2000/svg">
<path d="M6.66156 25.69V32.84H7.71156V25.69H6.66156ZM7.31156 28.79V29.65H8.96156V28.79H7.31156ZM1.79156 33.8V34.65H8.03156V33.8H1.79156ZM1.79156 32.37V34.05H2.84156V32.37H1.79156ZM2.80156 30.12V31.41H3.85156V30.12H2.80156ZM0.601563 31.86C2.18156 31.85 4.35156 31.81 6.26156 31.45L6.18156 30.72C4.31156 31.01 2.08156 31.04 0.481563 31.04L0.601563 31.86ZM0.711563 26.51V27.28H5.93156V26.51H0.711563ZM3.32156 27.6C2.01156 27.6 1.15156 28.13 1.15156 29.01C1.15156 29.88 2.01156 30.42 3.32156 30.42C4.63156 30.42 5.49156 29.88 5.49156 29.01C5.49156 28.13 4.63156 27.6 3.32156 27.6ZM3.32156 28.32C4.05156 28.32 4.50156 28.57 4.50156 29.01C4.50156 29.44 4.05156 29.69 3.32156 29.69C2.59156 29.69 2.14156 29.44 2.14156 29.01C2.14156 28.57 2.59156 28.32 3.32156 28.32ZM2.80156 25.65V26.85H3.85156V25.65H2.80156ZM14.1408 27.27V28.11H16.4508V27.27H14.1408ZM14.0608 29.16V30.01H16.3908V29.16H14.0608ZM16.2808 25.69V31.07H17.3308V25.69H16.2808ZM13.3708 26.35V26.83C13.3708 28.43 12.1808 29.69 9.85078 30.33L10.2708 31.16C12.9608 30.39 14.4808 28.76 14.4808 26.35H13.3708ZM10.3408 26.35V27.19H14.0908V26.35H10.3408ZM14.3308 31.18C12.4808 31.18 11.2808 31.86 11.2808 32.98C11.2808 34.1 12.4808 34.79 14.3308 34.79C16.1808 34.79 17.3808 34.1 17.3808 32.98C17.3808 31.86 16.1808 31.18 14.3308 31.18ZM14.3308 31.99C15.5808 31.99 16.3508 32.35 16.3508 32.98C16.3508 33.61 15.5808 33.96 14.3308 33.96C13.0908 33.96 12.3108 33.61 12.3108 32.98C12.3108 32.35 13.0908 31.99 14.3308 31.99ZM23.63 27.2V28.05H25.93V27.2H23.63ZM25.48 25.69V30.37H26.53V25.69H25.48ZM20.58 30.8V31.62H25.49V32.34H20.6V34.39H21.63V33.11H26.53V30.8H20.58ZM20.6 33.89V34.72H26.83V33.89H20.6ZM21.15 25.98V26.75C21.15 28 20.36 29.13 18.92 29.59L19.46 30.42C21.08 29.87 22 28.45 22 26.75V25.98H21.15ZM21.34 25.98V26.75C21.34 28.34 22.25 29.69 23.81 30.22L24.35 29.41C22.98 28.97 22.19 27.89 22.19 26.75V25.98H21.34ZM33.0692 27.99V28.85H34.9792V27.99H33.0692ZM34.6792 25.69V31.13H35.7292V25.69H34.6792ZM32.6792 31.37C30.7692 31.37 29.5992 32.02 29.5992 33.1C29.5992 34.2 30.7692 34.83 32.6792 34.83C34.5892 34.83 35.7592 34.2 35.7592 33.1C35.7592 32.02 34.5892 31.37 32.6792 31.37ZM32.6792 32.18C33.9792 32.18 34.7192 32.5 34.7192 33.1C34.7192 33.7 33.9792 34.02 32.6792 34.02C31.3892 34.02 30.6392 33.7 30.6392 33.1C30.6392 32.5 31.3892 32.18 32.6792 32.18ZM30.3892 26.61V27.28C30.3892 28.53 29.5792 29.75 28.1492 30.25L28.6892 31.08C30.3092 30.5 31.2392 28.99 31.2392 27.28V26.61H30.3892ZM30.5992 26.61V27.27C30.5992 28.85 31.4892 30.29 33.0692 30.84L33.5892 30.01C32.2192 29.54 31.4392 28.41 31.4392 27.27V26.61H30.5992ZM28.4492 26.31V27.15H33.3492V26.31H28.4492Z" fill="white"/>
<g clip-path="url(#clip0_268_153)">
<path d="M16.9997 7.3335C16.2745 7.3335 15.5656 7.54854 14.9626 7.95144C14.3596 8.35434 13.8896 8.92699 13.6121 9.59699C13.3346 10.267 13.262 11.0042 13.4035 11.7155C13.5449 12.4268 13.8942 13.0801 14.407 13.5929C14.9197 14.1057 15.5731 14.4549 16.2843 14.5964C16.9956 14.7379 17.7329 14.6652 18.4029 14.3877C19.0728 14.1102 19.6455 13.6402 20.0484 13.0373C20.4513 12.4343 20.6663 11.7254 20.6663 11.0002C20.6663 10.0277 20.28 9.09507 19.5924 8.40744C18.9048 7.7198 17.9721 7.3335 16.9997 7.3335ZM16.9997 12.8335C16.6371 12.8335 16.2826 12.726 15.9811 12.5245C15.6796 12.3231 15.4447 12.0367 15.3059 11.7017C15.1671 11.3668 15.1308 10.9981 15.2016 10.6425C15.2723 10.2869 15.4469 9.9602 15.7033 9.7038C15.9597 9.4474 16.2864 9.2728 16.642 9.20206C16.9976 9.13132 17.3663 9.16762 17.7013 9.30638C18.0363 9.44514 18.3226 9.68013 18.524 9.98162C18.7255 10.2831 18.833 10.6376 18.833 11.0002C18.833 11.4864 18.6399 11.9527 18.296 12.2965C17.9522 12.6403 17.4859 12.8335 16.9997 12.8335Z" fill="white"/>
<path d="M25.52 12.7417L25.113 12.507C25.2962 11.5101 25.2962 10.4881 25.113 9.49117L25.52 9.2565C25.833 9.07593 26.1073 8.83548 26.3274 8.54889C26.5474 8.26229 26.7089 7.93516 26.8025 7.58617C26.8961 7.23717 26.9201 6.87315 26.8731 6.51489C26.826 6.15663 26.7089 5.81115 26.5283 5.49817C26.3477 5.18518 26.1073 4.91083 25.8207 4.69077C25.5341 4.47071 25.207 4.30926 24.858 4.21562C24.509 4.12199 24.145 4.09801 23.7867 4.14506C23.4284 4.19211 23.083 4.30927 22.77 4.48983L22.3621 4.72542C21.5916 4.06717 20.7062 3.55689 19.7505 3.22025V2.75C19.7505 2.02065 19.4607 1.32118 18.945 0.805456C18.4293 0.289731 17.7298 0 17.0005 0C16.2711 0 15.5716 0.289731 15.0559 0.805456C14.5402 1.32118 14.2505 2.02065 14.2505 2.75V3.22025C13.2947 3.5581 12.4097 4.06963 11.6398 4.72908L11.23 4.49167C10.598 4.12699 9.84687 4.02836 9.14205 4.21746C8.43723 4.40656 7.83639 4.8679 7.47172 5.5C7.10704 6.1321 7.00841 6.88317 7.19751 7.588C7.38661 8.29282 7.84795 8.89366 8.48005 9.25833L8.88705 9.493C8.70382 10.4899 8.70382 11.5119 8.88705 12.5088L8.48005 12.7435C7.84795 13.1082 7.38661 13.709 7.19751 14.4138C7.00841 15.1187 7.10704 15.8697 7.47172 16.5018C7.83639 17.1339 8.43723 17.5953 9.14205 17.7844C9.84687 17.9735 10.598 17.8748 11.23 17.5102L11.638 17.2746C12.4087 17.9329 13.2944 18.4432 14.2505 18.7797V19.25C14.2505 19.9793 14.5402 20.6788 15.0559 21.1945C15.5716 21.7103 16.2711 22 17.0005 22C17.7298 22 18.4293 21.7103 18.945 21.1945C19.4607 20.6788 19.7505 19.9793 19.7505 19.25V18.7797C20.7062 18.4419 21.5913 17.9304 22.3611 17.2709L22.7709 17.5074C23.403 17.8721 24.1541 17.9707 24.8589 17.7816C25.5637 17.5925 26.1645 17.1312 26.5292 16.4991C26.8939 15.867 26.9925 15.1159 26.8034 14.4111C26.6143 13.7063 26.153 13.1054 25.5209 12.7407L25.52 12.7417ZM23.1843 9.28033C23.4947 10.4051 23.4947 11.593 23.1843 12.7178C23.1301 12.9136 23.1425 13.1218 23.2194 13.3098C23.2964 13.4978 23.4337 13.6549 23.6096 13.7564L24.6033 14.3302C24.814 14.4518 24.9677 14.6521 25.0307 14.887C25.0937 15.1219 25.0608 15.3722 24.9393 15.5829C24.8177 15.7935 24.6174 15.9473 24.3825 16.0103C24.1476 16.0733 23.8973 16.0404 23.6866 15.9188L22.6911 15.3432C22.515 15.2412 22.31 15.2007 22.1084 15.2281C21.9067 15.2554 21.7199 15.3492 21.5774 15.4944C20.7615 16.3274 19.7336 16.9216 18.6046 17.2132C18.4076 17.2638 18.233 17.3786 18.1083 17.5394C17.9837 17.7002 17.9161 17.898 17.9162 18.1014V19.25C17.9162 19.4931 17.8196 19.7263 17.6477 19.8982C17.4758 20.0701 17.2427 20.1667 16.9995 20.1667C16.7564 20.1667 16.5233 20.0701 16.3514 19.8982C16.1795 19.7263 16.0829 19.4931 16.0829 19.25V18.1023C16.083 17.8989 16.0154 17.7012 15.8908 17.5403C15.7661 17.3795 15.5915 17.2647 15.3945 17.2141C14.2655 16.9214 13.2379 16.3258 12.4226 15.4917C12.2801 15.3464 12.0933 15.2527 11.8917 15.2253C11.69 15.1979 11.485 15.2384 11.3089 15.3404L10.3152 15.9152C10.2109 15.9763 10.0956 16.0162 9.9758 16.0326C9.85602 16.049 9.73419 16.0415 9.61732 16.0106C9.50044 15.9797 9.39083 15.926 9.2948 15.8525C9.19877 15.7791 9.11821 15.6874 9.05777 15.5827C8.99732 15.478 8.95818 15.3624 8.9426 15.2425C8.92702 15.1226 8.9353 15.0009 8.96697 14.8842C8.99865 14.7675 9.05309 14.6583 9.12715 14.5627C9.20122 14.4672 9.29346 14.3872 9.39855 14.3275L10.3922 13.7537C10.5682 13.6521 10.7054 13.4951 10.7824 13.3071C10.8594 13.1191 10.8718 12.9109 10.8175 12.7151C10.5071 11.5903 10.5071 10.4024 10.8175 9.27758C10.8708 9.08222 10.8578 8.87474 10.7807 8.68752C10.7036 8.50029 10.5667 8.34387 10.3913 8.24267L9.39763 7.66883C9.18697 7.54728 9.03323 7.34701 8.97023 7.1121C8.90722 6.87719 8.94012 6.62687 9.06167 6.41621C9.18323 6.20555 9.3835 6.05181 9.61841 5.9888C9.85332 5.9258 10.1036 5.95869 10.3143 6.08025L11.3098 6.65592C11.4854 6.75814 11.69 6.79911 11.8914 6.7724C12.0929 6.74568 12.2797 6.65279 12.4226 6.50833C13.2385 5.6754 14.2664 5.0811 15.3954 4.78958C15.593 4.73877 15.7681 4.62344 15.8928 4.46188C16.0175 4.30031 16.0847 4.10175 16.0838 3.89767V2.75C16.0838 2.50688 16.1804 2.27373 16.3523 2.10182C16.5242 1.92991 16.7574 1.83333 17.0005 1.83333C17.2436 1.83333 17.4767 1.92991 17.6486 2.10182C17.8206 2.27373 17.9171 2.50688 17.9171 2.75V3.89767C17.917 4.10113 17.9846 4.29884 18.1093 4.45966C18.2339 4.62047 18.4085 4.73525 18.6055 4.78592C19.7349 5.07847 20.7628 5.67406 21.5783 6.50833C21.7208 6.65359 21.9076 6.7473 22.1093 6.77468C22.3109 6.80207 22.516 6.76157 22.692 6.65958L23.6857 6.08483C23.79 6.02369 23.9054 5.98379 24.0251 5.96741C24.1449 5.95103 24.2667 5.95851 24.3836 5.98941C24.5005 6.02031 24.6101 6.07402 24.7061 6.14745C24.8022 6.22089 24.8827 6.31259 24.9432 6.41728C25.0036 6.52198 25.0428 6.63759 25.0583 6.75747C25.0739 6.87735 25.0656 6.99913 25.034 7.1158C25.0023 7.23247 24.9478 7.34172 24.8738 7.43726C24.7997 7.5328 24.7075 7.61275 24.6024 7.6725L23.6087 8.24633C23.4337 8.34781 23.2971 8.50435 23.2204 8.69155C23.1436 8.87875 23.1309 9.08609 23.1843 9.28125V9.28033Z" fill="white"/>
</g>
<defs>
<clipPath id="clip0_268_153">
<rect width="22" height="22" fill="white" transform="translate(6)"/>
</clipPath>
</defs>
</svg>
