<svg width="22" height="38" viewBox="0 0 22 38" fill="none" xmlns="http://www.w3.org/2000/svg">
<path d="M6.05 27.25V27.72C6.05 29.29 4.78 30.54 2.53 31.17L2.94 31.99C5.59 31.25 7.15 29.6 7.15 27.25H6.05ZM3.01 27.25V28.09H6.77V27.25H3.01ZM8.98 26.69V31.86H10.03V26.69H8.98ZM7.18 28.96V29.82H9.15V28.96H7.18ZM4.08 32.24V35.72H10.03V32.24H4.08ZM9 33.07V34.88H5.11V33.07H9ZM13.4492 27.23V28.37C13.4492 29.41 12.8292 30.58 11.5992 31.13L12.1592 31.95C13.5692 31.32 14.2692 29.83 14.2692 28.37V27.23H13.4492ZM13.6292 27.23V28.37C13.6292 29.81 14.3092 31.14 15.6792 31.71L16.2292 30.91C15.0492 30.42 14.4592 29.4 14.4592 28.37V27.23H13.6292ZM18.3992 26.7V32.23H19.3892V26.7H18.3992ZM17.0892 29V29.86H18.6892V29H17.0892ZM16.4492 26.85V32.18H17.4292V26.85H16.4492ZM13.1992 32.68V33.53H18.3492V35.83H19.3892V32.68H13.1992Z" fill="white"/>
<g clip-path="url(#clip0_115_78)">
<path d="M21.7315 20.4353L16.2599 14.9637C17.7509 13.1401 18.4841 10.8131 18.3076 8.46414C18.1311 6.11516 17.0585 3.92386 15.3117 2.34352C13.5648 0.763179 11.2774 -0.0853045 8.92255 -0.0264253C6.56768 0.0324538 4.32552 0.994191 2.65986 2.65986C0.994191 4.32552 0.0324538 6.56768 -0.0264253 8.92255C-0.0853045 11.2774 0.763179 13.5648 2.34352 15.3117C3.92386 17.0585 6.11516 18.1311 8.46414 18.3076C10.8131 18.4841 13.1401 17.7509 14.9637 16.2599L20.4353 21.7315C20.6082 21.8984 20.8397 21.9908 21.0801 21.9887C21.3204 21.9867 21.5503 21.8902 21.7203 21.7203C21.8902 21.5503 21.9867 21.3204 21.9887 21.0801C21.9908 20.8397 21.8984 20.6082 21.7315 20.4353ZM9.16671 16.5C7.71631 16.5 6.29849 16.07 5.09253 15.2642C3.88657 14.4584 2.94664 13.313 2.39159 11.9731C1.83655 10.6331 1.69133 9.15858 1.97429 7.73605C2.25724 6.31352 2.95568 5.00685 3.98126 3.98126C5.00685 2.95568 6.31352 2.25724 7.73605 1.97429C9.15858 1.69133 10.6331 1.83655 11.9731 2.39159C13.313 2.94664 14.4584 3.88657 15.2642 5.09253C16.07 6.29849 16.5 7.71631 16.5 9.16671C16.4979 11.111 15.7245 12.975 14.3497 14.3497C12.975 15.7245 11.111 16.4979 9.16671 16.5Z" fill="white"/>
</g>
<defs>
<clipPath id="clip0_115_78">
<rect width="22" height="22" fill="white"/>
</clipPath>
</defs>
</svg>
