<svg width="37" height="37" viewBox="0 0 37 37" fill="none" xmlns="http://www.w3.org/2000/svg">
<path d="M1.42156 26.54V27.39H7.26156V26.54H1.42156ZM0.561563 32.77V33.63H8.82156V32.77H0.561563ZM3.64156 29.56V33.2H4.69156V29.56H3.64156ZM6.87156 26.54V27.43C6.87156 28.53 6.87156 29.83 6.52156 31.61L7.57156 31.73C7.92156 29.84 7.92156 28.57 7.92156 27.43V26.54H6.87156ZM16.5008 25.69V31.06H17.4908V25.69H16.5008ZM15.1908 27.9V28.76H16.8008V27.9H15.1908ZM14.5008 25.86V31.02H15.4808V25.86H14.5008ZM11.2708 31.47V32.31H16.4508V34.83H17.4908V31.47H11.2708ZM12.6708 26.35V26.72C12.6708 28.34 11.7308 29.59 9.73078 30.37L10.2408 31.14C12.5708 30.19 13.7208 28.59 13.7208 26.35H12.6708ZM10.1308 26.35V27.19H13.0208V26.35H10.1308ZM22.62 27.9V28.75H24.22V27.9H22.62ZM25.7 25.69V32.54H26.69V25.69H25.7ZM23.89 25.86V32.27H24.88V25.86H23.89ZM20.65 33.8V34.65H26.95V33.8H20.65ZM20.65 31.72V34.3H21.7V31.72H20.65ZM20.72 26.32V27.59C20.72 28.68 20.12 29.9 18.91 30.49L19.48 31.29C20.86 30.63 21.55 29.09 21.55 27.59V26.32H20.72ZM20.92 26.32V27.59C20.92 29.06 21.54 30.45 22.85 31.06L23.43 30.26C22.29 29.73 21.73 28.66 21.73 27.59V26.32H20.92ZM34.6992 25.68V34.84H35.7392V25.68H34.6992ZM32.9492 29.03V29.89H34.8392V29.03H32.9492ZM28.5692 31.85V32.7H29.2792C30.9392 32.7 32.0792 32.66 33.3992 32.44L33.2992 31.6C32.0092 31.82 30.9092 31.85 29.2792 31.85H28.5692ZM28.5692 26.49V32.13H29.6092V27.35H32.7992V26.49H28.5692ZM29.3592 29.05V29.88H32.4392V29.05H29.3592Z" fill="white"/>
<g clip-path="url(#clip0_115_76)">
<path d="M23.5833 0C23.3402 0 23.1071 0.0965771 22.9352 0.268485C22.7632 0.440394 22.6667 0.673552 22.6667 0.916667C22.6667 3.61992 20.2989 4.58333 18.0833 4.58333H11.6667C10.6942 4.58333 9.76158 4.96964 9.07394 5.65728C8.38631 6.34491 8 7.27754 8 8.25V10.0833C8.002 10.6322 8.12784 11.1735 8.36814 11.6669C8.60843 12.1604 8.95699 12.5932 9.38783 12.9333L12.6622 20.2409C12.895 20.7644 13.2747 21.2092 13.7551 21.5214C14.2355 21.8336 14.7961 21.9998 15.3691 22C15.825 21.9997 16.2735 21.8854 16.6739 21.6675C17.0743 21.4496 17.4139 21.135 17.6617 20.7524C17.9095 20.3697 18.0577 19.9312 18.0927 19.4767C18.1278 19.0222 18.0486 18.5661 17.8624 18.15L15.8458 13.75H18.0833C20.2989 13.75 22.6667 14.7134 22.6667 17.4167C22.6667 17.6598 22.7632 17.8929 22.9352 18.0648C23.1071 18.2368 23.3402 18.3333 23.5833 18.3333C23.8264 18.3333 24.0596 18.2368 24.2315 18.0648C24.4034 17.8929 24.5 17.6598 24.5 17.4167V0.916667C24.5 0.673552 24.4034 0.440394 24.2315 0.268485C24.0596 0.0965771 23.8264 0 23.5833 0V0ZM16.1923 18.9007C16.253 19.0379 16.2785 19.188 16.2665 19.3375C16.2546 19.4869 16.2055 19.6311 16.1237 19.7568C16.042 19.8825 15.9302 19.9858 15.7984 20.0574C15.6666 20.129 15.519 20.1665 15.3691 20.1667C15.1504 20.1665 14.9364 20.1029 14.7532 19.9834C14.5699 19.864 14.4253 19.6939 14.3369 19.4938L11.7629 13.75H13.8291L16.1923 18.9007ZM22.6667 13.3833C21.357 12.3743 19.7355 11.8554 18.0833 11.9167H11.6667C11.1804 11.9167 10.7141 11.7235 10.3703 11.3797C10.0265 11.0359 9.83333 10.5696 9.83333 10.0833V8.25C9.83333 7.76377 10.0265 7.29745 10.3703 6.95364C10.7141 6.60982 11.1804 6.41667 11.6667 6.41667H18.0833C19.7349 6.47927 21.3564 5.96203 22.6667 4.95458V13.3833ZM29.9083 14.1643C29.8546 14.2721 29.7801 14.3682 29.6891 14.4472C29.5982 14.5262 29.4926 14.5865 29.3784 14.6246C29.2641 14.6627 29.1435 14.678 29.0233 14.6695C28.9032 14.661 28.7859 14.6289 28.6782 14.575L26.8448 13.6583C26.6272 13.5497 26.4617 13.359 26.3847 13.1283C26.3077 12.8976 26.3255 12.6458 26.4342 12.4282C26.5428 12.2106 26.7335 12.0451 26.9642 11.9681C27.1949 11.891 27.4467 11.9088 27.6643 12.0175L29.4977 12.9342C29.7141 13.0428 29.8788 13.2326 29.9558 13.4623C30.0327 13.6919 30.0157 13.9426 29.9083 14.1597V14.1643ZM26.4342 5.91433C26.3803 5.8066 26.3482 5.68932 26.3397 5.56918C26.3312 5.44903 26.3464 5.32839 26.3846 5.21415C26.4227 5.0999 26.483 4.99429 26.562 4.90336C26.6409 4.81242 26.7371 4.73794 26.8448 4.68417L28.6782 3.7675C28.8958 3.65883 29.1476 3.64104 29.3783 3.71806C29.609 3.79507 29.7997 3.96058 29.9083 4.17817C30.017 4.39575 30.0348 4.6476 29.9578 4.8783C29.8808 5.109 29.7153 5.29966 29.4977 5.40833L27.6643 6.325C27.5566 6.37886 27.4393 6.41096 27.3192 6.41947C27.199 6.42798 27.0784 6.41273 26.9641 6.37459C26.8499 6.33645 26.7443 6.27618 26.6534 6.1972C26.5624 6.11823 26.4879 6.02211 26.4342 5.91433ZM26.3333 9.16667C26.3333 8.92355 26.4299 8.69039 26.6018 8.51849C26.7737 8.34658 27.0069 8.25 27.25 8.25H29.0833C29.3265 8.25 29.5596 8.34658 29.7315 8.51849C29.9034 8.69039 30 8.92355 30 9.16667C30 9.40978 29.9034 9.64294 29.7315 9.81485C29.5596 9.98676 29.3265 10.0833 29.0833 10.0833H27.25C27.0069 10.0833 26.7737 9.98676 26.6018 9.81485C26.4299 9.64294 26.3333 9.40978 26.3333 9.16667Z" fill="white"/>
</g>
<defs>
<clipPath id="clip0_115_76">
<rect width="22" height="22" fill="white" transform="translate(8)"/>
</clipPath>
</defs>
</svg>
