<svg width="125" height="125" viewBox="0 0 125 125" fill="none" xmlns="http://www.w3.org/2000/svg">
<g filter="url(#filter0_d_113_47)">
<rect x="3" y="1" width="115" height="115" rx="20" fill="#ECECEC"/>
</g>
<path d="M28.54 25.445V33.575H30.535V25.445H28.54ZM29.74 28.775V30.425H32.38V28.775H29.74ZM21.505 34.115V39.185H30.535V34.115H28.555V35.165H23.47V34.115H21.505ZM23.47 36.665H28.555V37.625H23.47V36.665ZM19.6 26.645V28.22H27.775V26.645H19.6ZM23.695 28.595C21.67 28.595 20.275 29.585 20.275 31.055C20.275 32.525 21.67 33.515 23.695 33.515C25.705 33.515 27.1 32.525 27.1 31.055C27.1 29.585 25.705 28.595 23.695 28.595ZM23.695 30.05C24.58 30.05 25.195 30.41 25.195 31.055C25.195 31.715 24.58 32.06 23.695 32.06C22.795 32.06 22.195 31.715 22.195 31.055C22.195 30.41 22.795 30.05 23.695 30.05ZM22.69 25.34V27.53H24.685V25.34H22.69ZM38.6788 26.315V27.305C38.6788 29.435 36.9538 31.235 33.5488 32.12L34.2988 33.68C38.4538 32.585 40.7638 30.05 40.7638 26.315H38.6788ZM34.3288 26.315V27.905H39.9688V26.315H34.3288ZM35.5588 34.28V35.84H43.0288V39.29H45.0238V34.28H35.5588ZM43.0288 25.445V33.695H45.0238V25.445H43.0288ZM40.1038 27.68V29.255H43.3588V27.68H40.1038ZM39.9688 30.635V32.225H43.2388V30.635H39.9688ZM50.3177 27.635V29.195C50.3177 31.475 49.1927 34.07 46.8977 35.15L48.0227 36.725C50.5727 35.525 51.8927 32.33 51.8927 29.195V27.635H50.3177ZM50.7377 27.635V29.195C50.7377 32.15 52.0277 35.195 54.5777 36.38L55.6727 34.805C53.3927 33.755 52.3127 31.295 52.3127 29.195V27.635H50.7377ZM47.4377 26.78V28.415H55.0577V26.78H47.4377ZM56.0777 25.445V39.335H58.0877V25.445H56.0777ZM57.6377 30.74V32.39H60.0977V30.74H57.6377ZM60.5915 40.73H62.0615L65.7965 25.91H64.3415L60.5915 40.73ZM28.54 47.445V54.885H30.535V47.445H28.54ZM29.98 50.43V52.05H32.38V50.43H29.98ZM20.125 52.965V54.57H21.28C24.37 54.57 25.96 54.495 27.655 54.12L27.46 52.545C25.795 52.89 24.295 52.965 21.28 52.965H20.125ZM20.125 48.27V54.03H22.105V49.86H26.29V48.27H20.125ZM21.46 55.56V61.17H30.535V55.56H28.555V56.82H23.44V55.56H21.46ZM23.44 58.365H28.555V59.58H23.44V58.365ZM42.3388 47.445V57.54H44.3338V47.445H42.3388ZM43.7638 51.42V53.055H46.1788V51.42H43.7638ZM35.3788 59.505V61.095H44.8288V59.505H35.3788ZM35.3788 56.49V60.21H37.3738V56.49H35.3788ZM37.2688 48.33C35.1388 48.33 33.4888 49.815 33.4888 51.87C33.4888 53.91 35.1388 55.395 37.2688 55.395C39.3988 55.395 41.0488 53.91 41.0488 51.87C41.0488 49.815 39.3988 48.33 37.2688 48.33ZM37.2688 50.07C38.3038 50.07 39.0988 50.73 39.0988 51.87C39.0988 52.995 38.3038 53.655 37.2688 53.655C36.2488 53.655 35.4388 52.995 35.4388 51.87C35.4388 50.73 36.2488 50.07 37.2688 50.07ZM47.6027 48.06V54.135H54.2777V48.06H52.2977V49.695H49.5827V48.06H47.6027ZM49.5827 51.195H52.2977V52.575H49.5827V51.195ZM56.1377 47.445V54.495H58.1327V47.445H56.1377ZM57.3227 50.115V51.735H59.9627V50.115H57.3227ZM48.9527 55.035V56.565H56.1677V57.39H48.9827V60.465H50.9627V58.815H58.1327V55.035H48.9527ZM48.9827 59.7V61.245H58.5377V59.7H48.9827ZM64.0865 55.005V58.74H66.0815V55.005H64.0865ZM68.4515 55.02V58.755H70.4315V55.02H68.4515ZM61.0115 58.2V59.82H73.5815V58.2H61.0115ZM61.9715 48.54V50.13H72.5465V48.54H61.9715ZM62.0315 54.03V55.605H72.5015V54.03H62.0315ZM63.8615 49.86V54.255H65.8565V49.86H63.8615ZM68.6765 49.86V54.255H70.6565V49.86H68.6765Z" fill="black"/>
<path d="M62.0996 77.8587V74.4649C62.0996 74.0327 62.2777 73.6183 62.5946 73.3127C62.9115 73.0071 63.3415 72.8354 63.7897 72.8354H99.3097C99.7579 72.8354 100.188 73.0071 100.505 73.3127C100.822 73.6183 101 74.0327 101 74.4649V95.6762C101 96.1083 100.822 96.5227 100.505 96.8283C100.188 97.1339 99.7579 97.3056 99.3097 97.3056H66.9996" stroke="#7E7E7E" stroke-width="2" stroke-linecap="round" stroke-linejoin="round"/>
<path d="M72.0804 94.731C77.5425 94.731 81.9704 90.4618 81.9704 85.1956C81.9704 79.9293 77.5425 75.6602 72.0804 75.6602C66.6183 75.6602 62.1904 79.9293 62.1904 85.1956C62.1904 90.4618 66.6183 94.731 72.0804 94.731Z" stroke="#7E7E7E" stroke-width="2" stroke-miterlimit="10"/>
<path d="M100.92 91.3179H83.5" stroke="#7E7E7E" stroke-width="2" stroke-linecap="round" stroke-linejoin="round"/>
<path d="M79.2695 97.1802V103.707" stroke="#7E7E7E" stroke-width="2" stroke-miterlimit="10"/>
<path d="M83.5 97.2671V103.785" stroke="#7E7E7E" stroke-width="2" stroke-miterlimit="10"/>
<path d="M64.4102 91.4819L61.7002 94.0851" stroke="#7E7E7E" stroke-width="2" stroke-miterlimit="10"/>
<path d="M65.7598 92.7837L63.0498 95.3869" stroke="#7E7E7E" stroke-width="2" stroke-miterlimit="10"/>
<path d="M63.171 95.3507L61.7426 93.9735C61.4107 93.6535 60.8725 93.6535 60.5406 93.9735L56.2555 98.105C55.9235 98.425 55.9235 98.9439 56.2555 99.2639L57.6838 100.641C58.0158 100.961 58.554 100.961 58.8859 100.641L63.171 96.5096C63.5029 96.1896 63.5029 95.6707 63.171 95.3507Z" stroke="#7E7E7E" stroke-width="2" stroke-miterlimit="10"/>
<path d="M90.2598 78.2731L92.6298 80.7124L97.1998 76.3159" stroke="#7E7E7E" stroke-width="2" stroke-linecap="round" stroke-linejoin="round"/>
<path d="M66.9697 85.2726L70.7497 88.6279L78.0397 82.5923" stroke="#7E7E7E" stroke-width="2" stroke-linecap="round" stroke-linejoin="round"/>
<path d="M91.2695 84.3857L96.0895 89.0329" stroke="#7E7E7E" stroke-width="2" stroke-linecap="round" stroke-linejoin="round"/>
<path d="M91.2305 89.0329L96.0505 84.3857" stroke="#7E7E7E" stroke-width="2" stroke-linecap="round" stroke-linejoin="round"/>
<defs>
<filter id="filter0_d_113_47" x="0" y="0" width="125" height="125" filterUnits="userSpaceOnUse" color-interpolation-filters="sRGB">
<feFlood flood-opacity="0" result="BackgroundImageFix"/>
<feColorMatrix in="SourceAlpha" type="matrix" values="0 0 0 0 0 0 0 0 0 0 0 0 0 0 0 0 0 0 127 0" result="hardAlpha"/>
<feMorphology radius="2" operator="erode" in="SourceAlpha" result="effect1_dropShadow_113_47"/>
<feOffset dx="2" dy="4"/>
<feGaussianBlur stdDeviation="3.5"/>
<feComposite in2="hardAlpha" operator="out"/>
<feColorMatrix type="matrix" values="0 0 0 0 0 0 0 0 0 0 0 0 0 0 0 0 0 0 0.25 0"/>
<feBlend mode="normal" in2="BackgroundImageFix" result="effect1_dropShadow_113_47"/>
<feBlend mode="normal" in="SourceGraphic" in2="effect1_dropShadow_113_47" result="shape"/>
</filter>
</defs>
</svg>
