<svg width="123" height="123" viewBox="0 0 123 123" fill="none" xmlns="http://www.w3.org/2000/svg">
<g filter="url(#filter0_d_113_49)">
<rect x="2" width="115" height="115" rx="20" fill="#ECECEC"/>
</g>
<path d="M21.99 25.51V27.535C21.99 30.235 20.85 32.905 18.435 33.955L19.62 35.605C22.38 34.33 23.61 31.105 23.61 27.535V25.51H21.99ZM22.38 25.51V27.535C22.38 30.955 23.61 34.045 26.295 35.275L27.465 33.67C25.095 32.65 24 30.1 24 27.535V25.51H22.38ZM28.125 24.43V38.365H30.135V24.43H28.125ZM42.0288 24.445V32.83H44.0238V24.445H42.0288ZM40.2888 28.51V30.13H42.8388V28.51H40.2888ZM34.7688 33.415V38.185H44.0238V33.415H34.7688ZM42.0738 34.99V36.61H36.7338V34.99H42.0738ZM32.4438 25.645V27.22H40.5588V25.645H32.4438ZM36.5088 27.67C34.5738 27.67 33.1788 28.705 33.1788 30.175C33.1788 31.66 34.5738 32.665 36.5088 32.665C38.4438 32.665 39.8238 31.66 39.8238 30.175C39.8238 28.705 38.4438 27.67 36.5088 27.67ZM36.5088 29.155C37.3488 29.155 37.9188 29.5 37.9188 30.175C37.9188 30.85 37.3488 31.21 36.5088 31.21C35.6538 31.21 35.0838 30.85 35.0838 30.175C35.0838 29.5 35.6538 29.155 36.5088 29.155ZM35.5038 24.325V26.77H37.4988V24.325H35.5038ZM50.1127 24.85C47.9977 24.85 46.4077 26.17 46.4077 28.03C46.4077 29.875 47.9977 31.195 50.1127 31.195C52.2277 31.195 53.8177 29.875 53.8177 28.03C53.8177 26.17 52.2277 24.85 50.1127 24.85ZM50.1127 26.47C51.1327 26.47 51.8827 27.04 51.8827 28.03C51.8827 29.02 51.1327 29.59 50.1127 29.59C49.0927 29.59 48.3277 29.02 48.3277 28.03C48.3277 27.04 49.0927 26.47 50.1127 26.47ZM55.7377 24.445V31.39H57.7477V24.445H55.7377ZM48.4777 31.96V33.505H55.7677V34.33H48.5077V37.45H50.4577V35.77H57.7477V31.96H48.4777ZM48.5077 36.64V38.185H58.0927V36.64H48.5077ZM67.5265 27.805V29.425H70.1665V27.805H67.5265ZM69.6265 24.445V32.695H71.6215V24.445H69.6265ZM66.9115 32.995C63.9715 32.995 62.1565 34 62.1565 35.68C62.1565 37.375 63.9715 38.35 66.9115 38.35C69.8515 38.35 71.6665 37.375 71.6665 35.68C71.6665 34 69.8515 32.995 66.9115 32.995ZM66.9115 34.51C68.7265 34.51 69.6865 34.885 69.6865 35.68C69.6865 36.46 68.7265 36.835 66.9115 36.835C65.1115 36.835 64.1515 36.46 64.1515 35.68C64.1515 34.885 65.1115 34.51 66.9115 34.51ZM63.2065 25.84V26.71C63.2065 28.495 62.2165 30.34 59.9215 31.12L60.9415 32.695C63.5965 31.795 64.8265 29.365 64.8265 26.71V25.84H63.2065ZM63.6265 25.84V26.71C63.6265 29.185 64.8115 31.495 67.3915 32.35L68.3665 30.775C66.1765 30.04 65.2315 28.345 65.2315 26.71V25.84H63.6265ZM60.4615 25.285V26.875H67.9315V25.285H60.4615ZM27.54 46.445V56.54H29.535V46.445H27.54ZM28.965 50.42V52.055H31.38V50.42H28.965ZM20.58 58.505V60.095H30.03V58.505H20.58ZM20.58 55.49V59.21H22.575V55.49H20.58ZM22.47 47.33C20.34 47.33 18.69 48.815 18.69 50.87C18.69 52.91 20.34 54.395 22.47 54.395C24.6 54.395 26.25 52.91 26.25 50.87C26.25 48.815 24.6 47.33 22.47 47.33ZM22.47 49.07C23.505 49.07 24.3 49.73 24.3 50.87C24.3 51.995 23.505 52.655 22.47 52.655C21.45 52.655 20.64 51.995 20.64 50.87C20.64 49.73 21.45 49.07 22.47 49.07ZM42.3888 46.445V60.335H44.2938V46.445H42.3888ZM40.5738 51.8V53.39H42.8838V51.8H40.5738ZM39.2838 46.685V59.675H41.1438V46.685H39.2838ZM32.9388 47.975V56H34.9338V47.975H32.9388ZM32.9388 55.25V56.96H33.8988C35.3088 56.96 36.8988 56.885 38.7138 56.555L38.5188 54.845C36.7938 55.175 35.2338 55.25 33.8988 55.25H32.9388Z" fill="black"/>
<path d="M61.1299 77.1187H100.04" stroke="#7E7E7E" stroke-width="2.08" stroke-miterlimit="10"/>
<path d="M97.4501 69.3961H90.4501V71.4305C90.3636 71.7506 90.1694 72.034 89.8979 72.2363C89.6265 72.4386 89.2932 72.5484 88.9501 72.5484C88.607 72.5484 88.2735 72.4386 88.0021 72.2363C87.7306 72.034 87.5365 71.7506 87.4501 71.4305V69.3961H73.4501V71.4305C73.357 71.7447 73.1602 72.0212 72.8895 72.2181C72.6189 72.4149 72.2891 72.5214 71.9501 72.5214C71.6111 72.5214 71.2813 72.4149 71.0106 72.2181C70.74 72.0212 70.5432 71.7447 70.4501 71.4305V69.3961H63.67C63.0635 69.3324 62.4551 69.4977 61.9722 69.8572C61.4893 70.2167 61.1696 70.7425 61.0801 71.3244V96.9129C61.1696 97.4947 61.4893 98.0206 61.9722 98.3801C62.4551 98.7396 63.0635 98.9049 63.67 98.8412H97.49C98.0965 98.9049 98.7051 98.7396 99.188 98.3801C99.6709 98.0206 99.9906 97.4947 100.08 96.9129V71.363C100 70.7666 99.6787 70.2249 99.1859 69.8564C98.6931 69.4878 98.069 69.3223 97.4501 69.3961Z" stroke="#7E7E7E" stroke-width="2.08" stroke-miterlimit="10"/>
<path d="M73.4502 69.3961V67.1979C73.3571 66.8836 73.1603 66.6071 72.8896 66.4103C72.619 66.2134 72.2892 66.1069 71.9502 66.1069C71.6112 66.1069 71.2814 66.2134 71.0107 66.4103C70.7401 66.6071 70.5433 66.8836 70.4502 67.1979V69.3961" stroke="#7E7E7E" stroke-width="2.08" stroke-miterlimit="10"/>
<path d="M90.4502 69.3961V67.1979C90.3571 66.8836 90.1603 66.6071 89.8896 66.4103C89.619 66.2134 89.2892 66.1069 88.9502 66.1069C88.6112 66.1069 88.2814 66.2134 88.0107 66.4103C87.7401 66.6071 87.5433 66.8836 87.4502 67.1979V69.3961" stroke="#7E7E7E" stroke-width="2.08" stroke-miterlimit="10"/>
<path d="M77.3999 93.0563H74.8599V84.4947H73.21V82.4507H77.3999V93.0563Z" fill="black" fill-opacity="0.51"/>
<path d="M87.87 82.4507V84.244L84.4 93.0949H81.7101L85.12 84.5332H80.79V82.4507H87.87Z" fill="black" fill-opacity="0.51"/>
<defs>
<filter id="filter0_d_113_49" x="0" y="0" width="123" height="123" filterUnits="userSpaceOnUse" color-interpolation-filters="sRGB">
<feFlood flood-opacity="0" result="BackgroundImageFix"/>
<feColorMatrix in="SourceAlpha" type="matrix" values="0 0 0 0 0 0 0 0 0 0 0 0 0 0 0 0 0 0 127 0" result="hardAlpha"/>
<feMorphology radius="3" operator="erode" in="SourceAlpha" result="effect1_dropShadow_113_49"/>
<feOffset dx="2" dy="4"/>
<feGaussianBlur stdDeviation="3.5"/>
<feComposite in2="hardAlpha" operator="out"/>
<feColorMatrix type="matrix" values="0 0 0 0 0 0 0 0 0 0 0 0 0 0 0 0 0 0 0.25 0"/>
<feBlend mode="normal" in2="BackgroundImageFix" result="effect1_dropShadow_113_49"/>
<feBlend mode="normal" in="SourceGraphic" in2="effect1_dropShadow_113_49" result="shape"/>
</filter>
</defs>
</svg>
