<svg width="123" height="123" viewBox="0 0 123 123" fill="none" xmlns="http://www.w3.org/2000/svg">
<g filter="url(#filter0_d_113_48)">
<rect x="2" width="115" height="115" rx="20" fill="#ECECEC"/>
</g>
<path d="M82.9399 94.0066H57.88C57.3831 94.0066 56.9064 93.817 56.5541 93.4791C56.2018 93.1413 56.0026 92.6827 56 92.2037V68.717C56.0026 68.238 56.2018 67.7794 56.5541 67.4415C56.9064 67.1037 57.3831 66.9141 57.88 66.9141H97.22C97.7159 66.9141 98.1915 67.104 98.5422 67.4421C98.8929 67.7802 99.09 68.2388 99.09 68.717V92.2037C99.09 92.6818 98.8929 93.1404 98.5422 93.4785C98.1915 93.8166 97.7159 94.0066 97.22 94.0066H94.65" stroke="#7E7E7E" stroke-width="2" stroke-linecap="round" stroke-linejoin="round"/>
<path d="M88.8798 89.9377C91.5694 89.9377 93.7498 87.8355 93.7498 85.2423C93.7498 82.6491 91.5694 80.5469 88.8798 80.5469C86.1901 80.5469 84.0098 82.6491 84.0098 85.2423C84.0098 87.8355 86.1901 89.9377 88.8798 89.9377Z" stroke="#7E7E7E" stroke-width="2" stroke-linecap="round" stroke-linejoin="round"/>
<path d="M62.6504 73.7593H78.0104" stroke="#7E7E7E" stroke-width="2" stroke-linecap="round" stroke-linejoin="round"/>
<path d="M62.6504 78.8599H78.0104" stroke="#7E7E7E" stroke-width="2" stroke-linecap="round" stroke-linejoin="round"/>
<path d="M62.6504 83.7285H78.0104" stroke="#7E7E7E" stroke-width="2" stroke-linecap="round" stroke-linejoin="round"/>
<path d="M92.0604 88.8579V99.6949L88.8804 97.6798L85.6904 99.6949V88.8579" stroke="#7E7E7E" stroke-width="2" stroke-linecap="round" stroke-linejoin="round"/>
<path d="M21.7229 30.635V32.195C21.7229 34.475 20.5979 37.07 18.3029 38.15L19.4279 39.725C21.9779 38.525 23.2979 35.33 23.2979 32.195V30.635H21.7229ZM22.1429 30.635V32.195C22.1429 35.15 23.4329 38.195 25.9829 39.38L27.0779 37.805C24.7979 36.755 23.7179 34.295 23.7179 32.195V30.635H22.1429ZM18.8429 29.78V31.415H26.4629V29.78H18.8429ZM27.4829 28.445V42.335H29.4929V28.445H27.4829ZM29.0429 33.74V35.39H31.5029V33.74H29.0429ZM37.6818 29.315V30.305C37.6818 32.435 35.9568 34.235 32.5518 35.12L33.3018 36.68C37.4568 35.585 39.7668 33.05 39.7668 29.315H37.6818ZM33.3318 29.315V30.905H38.9718V29.315H33.3318ZM34.5618 37.28V38.84H42.0318V42.29H44.0268V37.28H34.5618ZM42.0318 28.445V36.695H44.0268V28.445H42.0318ZM39.1068 30.68V32.255H42.3618V30.68H39.1068ZM38.9718 33.635V35.225H42.2418V33.635H38.9718ZM46.2006 34.85V36.425H58.7556V34.85H46.2006ZM52.4556 37.19C49.4556 37.19 47.6256 38.135 47.6256 39.77C47.6256 41.405 49.4556 42.335 52.4556 42.335C55.4556 42.335 57.2706 41.405 57.2706 39.77C57.2706 38.135 55.4556 37.19 52.4556 37.19ZM52.4556 38.735C54.3156 38.735 55.2606 39.05 55.2606 39.77C55.2606 40.475 54.3156 40.805 52.4556 40.805C50.5956 40.805 49.6506 40.475 49.6506 39.77C49.6506 39.05 50.5956 38.735 52.4556 38.735ZM51.1056 29.87V30.215C51.1056 31.295 49.7706 32.51 46.7256 32.78L47.4156 34.325C51.0006 34.01 52.8756 32.285 52.8756 30.215V29.87H51.1056ZM52.0806 29.87V30.215C52.0806 32.3 53.9706 34.01 57.5406 34.325L58.2306 32.78C55.1706 32.51 53.8506 31.295 53.8506 30.215V29.87H52.0806ZM47.3406 29.09V30.665H57.6306V29.09H47.3406ZM69.5394 28.46V38.585H71.5494V28.46H69.5394ZM62.2944 40.505V42.095H71.8944V40.505H62.2944ZM62.2944 37.61V41.33H64.2894V37.61H62.2944ZM63.2544 29.21V30.56C63.2544 32.405 62.2794 34.34 59.9544 35.135L60.9594 36.725C63.6594 35.78 64.9044 33.275 64.9044 30.56V29.21H63.2544ZM63.6594 29.21V30.56C63.6594 33.245 64.8744 35.6 67.4994 36.485L68.5194 34.895C66.2394 34.16 65.2944 32.375 65.2944 30.56V29.21H63.6594ZM76.9182 30.875V31.385C76.9182 32.96 75.9432 34.55 73.7082 35.18L74.6382 36.74C77.2932 35.975 78.5232 33.8 78.5232 31.385V30.875H76.9182ZM77.2932 30.875V31.385C77.2932 33.665 78.5682 35.69 81.2382 36.395L82.1382 34.85C79.9032 34.265 78.9132 32.81 78.9132 31.385V30.875H77.2932ZM74.1882 29.885V31.445H81.6432V29.885H74.1882ZM76.9182 28.4V30.5H78.9132V28.4H76.9182ZM81.2532 32.15V33.755H83.9082V32.15H81.2532ZM83.4282 28.445V36.83H85.4232V28.445H83.4282ZM80.7132 37.07C77.7732 37.07 75.9582 38.03 75.9582 39.695C75.9582 41.36 77.7732 42.335 80.7132 42.335C83.6532 42.335 85.4682 41.36 85.4682 39.695C85.4682 38.03 83.6532 37.07 80.7132 37.07ZM80.7132 38.585C82.5432 38.585 83.4882 38.945 83.4882 39.695C83.4882 40.445 82.5432 40.82 80.7132 40.82C78.8982 40.82 77.9532 40.445 77.9532 39.695C77.9532 38.945 78.8982 38.585 80.7132 38.585Z" fill="black"/>
<defs>
<filter id="filter0_d_113_48" x="0" y="0" width="123" height="123" filterUnits="userSpaceOnUse" color-interpolation-filters="sRGB">
<feFlood flood-opacity="0" result="BackgroundImageFix"/>
<feColorMatrix in="SourceAlpha" type="matrix" values="0 0 0 0 0 0 0 0 0 0 0 0 0 0 0 0 0 0 127 0" result="hardAlpha"/>
<feMorphology radius="3" operator="erode" in="SourceAlpha" result="effect1_dropShadow_113_48"/>
<feOffset dx="2" dy="4"/>
<feGaussianBlur stdDeviation="3.5"/>
<feComposite in2="hardAlpha" operator="out"/>
<feColorMatrix type="matrix" values="0 0 0 0 0 0 0 0 0 0 0 0 0 0 0 0 0 0 0.25 0"/>
<feBlend mode="normal" in2="BackgroundImageFix" result="effect1_dropShadow_113_48"/>
<feBlend mode="normal" in="SourceGraphic" in2="effect1_dropShadow_113_48" result="shape"/>
</filter>
</defs>
</svg>
