<svg width="47" height="46" viewBox="0 0 47 46" fill="none" xmlns="http://www.w3.org/2000/svg">
<path d="M25.5592 45.2867C36.4704 45.2867 45.3157 36.4102 45.3157 25.4605C45.3157 14.5108 36.4704 5.63428 25.5592 5.63428C14.648 5.63428 5.80273 14.5108 5.80273 25.4605C5.80273 36.4102 14.648 45.2867 25.5592 45.2867Z" fill="#A7C8DC"/>
<path d="M21.7659 43.7332C18.2051 43.7192 14.702 42.8297 11.5631 41.1425C8.42412 39.4553 5.74506 37.0218 3.76029 34.0549C1.77552 31.0881 0.54553 27.6783 0.177942 24.124C-0.189646 20.5697 0.316372 16.9791 1.65172 13.6665C2.98707 10.3539 5.11105 7.42013 7.83781 5.12199C10.5646 2.82385 13.811 1.23134 17.2931 0.48381C20.7751 -0.263719 24.3867 -0.143485 27.8117 0.833989C31.2368 1.81146 34.3709 3.61639 36.9399 6.09084C37.0821 6.2324 37.195 6.40081 37.272 6.58637C37.3491 6.77194 37.3887 6.97097 37.3887 7.17199C37.3887 7.37301 37.3491 7.57204 37.272 7.7576C37.195 7.94316 37.0821 8.11158 36.9399 8.25314C36.7988 8.39587 36.631 8.50915 36.4461 8.58646C36.2612 8.66377 36.0629 8.70357 35.8626 8.70357C35.6622 8.70357 35.4639 8.66377 35.279 8.58646C35.0941 8.50915 34.9263 8.39587 34.7852 8.25314C31.6656 5.26516 27.6139 3.44936 23.3145 3.11249C19.0151 2.77563 14.7317 3.93836 11.1878 6.40425C7.64385 8.87014 5.05672 12.488 3.86344 16.6467C2.67016 20.8054 2.94388 25.25 4.63836 29.2296C6.33283 33.2092 9.34419 36.4799 13.1637 38.4891C16.9832 40.4983 21.3767 41.1229 25.6021 40.2573C29.8274 39.3917 33.6255 37.0891 36.3547 33.7383C39.0839 30.3876 40.577 26.1942 40.5817 21.8665C40.5817 21.4627 40.7415 21.0754 41.0261 20.7898C41.3107 20.5042 41.6966 20.3438 42.099 20.3438C42.5015 20.3438 42.8874 20.5042 43.172 20.7898C43.4566 21.0754 43.6164 21.4627 43.6164 21.8665C43.6165 24.7432 43.0508 27.5917 41.952 30.2487C40.8532 32.9056 39.2427 35.3189 37.2129 37.3502C35.1831 39.3815 32.7739 40.9909 30.1232 42.0862C27.4725 43.1816 24.6325 43.7413 21.7659 43.7332V43.7332Z" fill="#231815"/>
<path d="M21.4932 32.4955H20.9166C19.963 32.3363 19.0516 31.9843 18.2377 31.4608C17.4239 30.9372 16.7246 30.2531 16.1823 29.45L9.11128 20.7703C8.98574 20.6143 8.89205 20.4351 8.83554 20.2427C8.77904 20.0504 8.76084 19.8488 8.78197 19.6494C8.80311 19.4501 8.86317 19.2568 8.95873 19.0807C9.05428 18.9047 9.18346 18.7492 9.33889 18.6232C9.49432 18.4972 9.67295 18.4032 9.86459 18.3465C10.0562 18.2898 10.2571 18.2715 10.4558 18.2927C10.6545 18.314 10.847 18.3742 11.0225 18.4701C11.198 18.566 11.3529 18.6956 11.4784 18.8516L18.6102 27.7445C19.2353 28.6308 20.1845 29.233 21.2504 29.4195C21.9003 29.4171 22.5416 29.2712 23.129 28.9923C23.7164 28.7133 24.2355 28.3081 24.6494 27.8054C29.7479 22.8108 43.5562 7.94873 43.6776 7.79646C43.9663 7.51551 44.3527 7.3584 44.7549 7.3584C45.1571 7.3584 45.5435 7.51551 45.8323 7.79646C45.9745 7.93802 46.0874 8.10643 46.1644 8.29199C46.2414 8.47756 46.2811 8.67659 46.2811 8.87761C46.2811 9.07863 46.2414 9.27766 46.1644 9.46322C46.0874 9.64878 45.9745 9.8172 45.8323 9.95876C45.8323 10.111 31.8722 25.034 26.7131 30.0591C25.3616 31.5306 23.4854 32.4063 21.4932 32.4955V32.4955Z" fill="#231815"/>
</svg>
