<svg width="36" height="45" viewBox="0 0 36 45" fill="none" xmlns="http://www.w3.org/2000/svg">
<path d="M21.6563 15.4101C21.6563 9.6745 17.023 5.0249 11.3076 5.0249C5.59223 5.0249 0.958984 9.6745 0.958984 15.4101C0.958984 21.1456 5.59223 25.7952 11.3076 25.7952C17.023 25.7952 21.6563 21.1456 21.6563 15.4101Z" fill="#A7C8DC"/>
<path d="M14.4936 44.6774C14.2943 44.6735 14.0978 44.6301 13.9152 44.5499C13.7326 44.4697 13.5676 44.3542 13.4295 44.21C13.2914 44.0657 13.183 43.8956 13.1104 43.7093C13.0378 43.523 13.0026 43.3242 13.0066 43.1242C12.6364 40.9949 11.9295 38.9386 10.9126 37.0332L3.59872 32.9522C2.81222 32.6149 2.17348 32.0041 1.79992 31.2319C1.42636 30.4598 1.34309 29.5783 1.56542 28.7495C1.92635 27.8976 2.57332 27.1996 3.39388 26.7767C4.21444 26.3538 5.15671 26.2329 6.05691 26.4349C7.00781 26.5567 8.768 26.9221 11.3375 27.5312V14.9838C11.3375 13.7722 11.8171 12.6102 12.6708 11.7535C13.5245 10.8968 14.6823 10.4155 15.8896 10.4155C17.097 10.4155 18.2548 10.8968 19.1085 11.7535C19.9622 12.6102 20.4418 13.7722 20.4418 14.9838V23.298H26.5114C28.7762 23.2407 30.9713 24.0869 32.6154 25.6511C34.2595 27.2154 35.2184 29.37 35.282 31.6427V32.3127C35.3267 34.2718 34.8839 36.2112 33.9936 37.9554C33.1034 39.6996 31.7939 41.1935 30.1835 42.3019C29.5159 42.911 28.8482 43.5201 28.2109 44.2206C28.0698 44.3633 27.902 44.4766 27.7171 44.5539C27.5322 44.6312 27.3339 44.671 27.1335 44.671C26.9332 44.671 26.7349 44.6312 26.55 44.5539C26.3651 44.4766 26.1973 44.3633 26.0562 44.2206C25.9149 44.0817 25.8026 43.9158 25.726 43.7328C25.6493 43.5497 25.6099 43.3532 25.6099 43.1547C25.6099 42.9561 25.6493 42.7596 25.726 42.5766C25.8026 42.3935 25.9149 42.2277 26.0562 42.0888C26.7542 41.3274 27.5129 40.6574 28.2109 40.0178C29.4805 39.1788 30.5205 38.0342 31.2362 36.6883C31.9518 35.3424 32.3203 33.8381 32.3079 32.3127V31.6122C32.2448 30.1472 31.6057 28.7669 30.5307 27.7737C29.4556 26.7805 28.0322 26.2553 26.5721 26.313H17.4677V14.9838C17.4367 14.6174 17.2634 14.2779 16.9852 14.0386C16.707 13.7993 16.3462 13.6794 15.9807 13.7047C15.8013 13.6923 15.6212 13.7155 15.4507 13.7732C15.2803 13.8308 15.1229 13.9217 14.9875 14.0405C14.8522 14.1594 14.7415 14.3039 14.662 14.4657C14.5824 14.6276 14.5355 14.8037 14.524 14.9838V31.4599L12.6424 31.0031C9.2131 30.1808 6.84595 29.6631 5.78378 29.5413C4.7216 29.4195 4.63056 29.724 4.60021 29.8154C4.56986 29.9067 4.60021 30.0895 5.23751 30.3636L12.6424 34.4445C14.524 35.4496 16.1931 41.9974 16.1628 43.1851C16.1596 43.396 16.1129 43.6039 16.0254 43.7957C15.938 43.9875 15.8118 44.159 15.6549 44.2993C15.498 44.4396 15.3137 44.5457 15.1138 44.6108C14.9139 44.6758 14.7027 44.6985 14.4936 44.6774V44.6774Z" fill="#040000"/>
<path d="M7.3013 14.2832H1.83868C1.00065 14.2832 0.321289 14.965 0.321289 15.806C0.321289 16.647 1.00065 17.3287 1.83868 17.3287H7.3013C8.13934 17.3287 8.8187 16.647 8.8187 15.806C8.8187 14.965 8.13934 14.2832 7.3013 14.2832Z" fill="#040000"/>
<path d="M10.2003 8.38761L6.33761 4.51132C5.74503 3.91665 4.78427 3.91665 4.19169 4.51132C3.59911 5.10599 3.59911 6.07014 4.19169 6.66481L8.05435 10.5411C8.64693 11.1358 9.60769 11.1358 10.2003 10.5411C10.7929 9.94643 10.7929 8.98228 10.2003 8.38761Z" fill="#040000"/>
<path d="M23.7411 10.5492L27.6038 6.67294C28.1964 6.07827 28.1964 5.11412 27.6038 4.51944C27.0112 3.92477 26.0505 3.92477 25.4579 4.51944L21.5952 8.39573C21.0026 8.9904 21.0026 9.95456 21.5952 10.5492C22.1878 11.1439 23.1486 11.1439 23.7411 10.5492Z" fill="#040000"/>
<path d="M17.3467 7.00465V1.52275C17.3467 0.681759 16.6673 0 15.8293 0C14.9913 0 14.3119 0.681759 14.3119 1.52275V7.00465C14.3119 7.84565 14.9913 8.52741 15.8293 8.52741C16.6673 8.52741 17.3467 7.84565 17.3467 7.00465Z" fill="#040000"/>
</svg>
