<svg width="36" height="38" viewBox="0 0 36 38" fill="none" xmlns="http://www.w3.org/2000/svg">
<path d="M24.8034 18.0903C29.7813 18.0903 33.8167 14.0406 33.8167 9.04515C33.8167 4.04965 29.7813 0 24.8034 0C19.8254 0 15.79 4.04965 15.79 9.04515C15.79 14.0406 19.8254 18.0903 24.8034 18.0903Z" fill="#A7C8DC"/>
<path d="M12.9985 10.7205C13.006 9.3523 13.3474 8.00682 13.9928 6.80166C14.6382 5.5965 15.5681 4.56837 16.7009 3.80718C15.4535 2.9708 14.0031 2.49006 12.5046 2.41625C11.0062 2.34244 9.51583 2.67834 8.19273 3.3881C6.86963 4.09785 5.76341 5.15483 4.99213 6.44621C4.22085 7.73759 3.81348 9.2149 3.81348 10.7205C3.81348 12.226 4.22085 13.7034 4.99213 14.9947C5.76341 16.2861 6.86963 17.3431 8.19273 18.0528C9.51583 18.7626 11.0062 19.0985 12.5046 19.0247C14.0031 18.9509 15.4535 18.4701 16.7009 17.6338C15.5643 16.8764 14.6316 15.8492 13.9857 14.6431C13.3398 13.4371 13.0007 12.0896 12.9985 10.7205V10.7205Z" fill="#231815"/>
<path d="M16.0028 20.8921H10.4187C9.12748 20.8881 7.84809 21.1394 6.6536 21.6316C5.45911 22.1238 4.37292 22.8472 3.45705 23.7607C2.54118 24.6741 1.81356 25.7597 1.31574 26.9553C0.817916 28.151 0.559643 29.4333 0.555664 30.7291V32.861C0.555649 33.3994 0.661833 33.9326 0.868095 34.4297C1.07436 34.9269 1.37662 35.3781 1.75746 35.7575C2.1383 36.1368 2.59019 36.4368 3.08708 36.6401C3.58398 36.8433 4.11605 36.9459 4.65263 36.9419H9.32621C9.32621 36.1196 9.32621 34.9319 9.32621 33.4701C9.28129 32.1172 9.34217 30.7629 9.5083 29.4195C9.83964 27.3736 10.721 25.4571 12.0575 23.8767C13.1275 22.5918 14.4773 21.5707 16.0028 20.8921V20.8921Z" fill="#231815"/>
<path d="M25.1071 20.8616H20.737C18.1292 20.8616 15.6282 21.9013 13.7842 23.7518C11.9402 25.6023 10.9043 28.1121 10.9043 30.7291V34.0182C10.9043 34.8259 11.224 35.6006 11.7932 36.1717C12.3623 36.7428 13.1342 37.0637 13.9391 37.0637H32.1478C33.0332 37.0637 33.8823 36.7108 34.5084 36.0825C35.1344 35.4542 35.4861 34.6022 35.4861 33.7137V31.1554C35.5071 29.7875 35.252 28.4294 34.7363 27.163C34.2206 25.8966 33.4549 24.7479 32.4852 23.7862C31.5156 22.8245 30.362 22.0697 29.0941 21.5671C27.8261 21.0645 26.4699 20.8245 25.1071 20.8616Z" fill="#231815"/>
<path d="M21.4954 18.9124C23.2394 19.2563 25.0475 19.0282 26.6524 18.2618C28.2574 17.4954 29.5742 16.2313 30.4084 14.6563C31.2426 13.0813 31.55 11.2788 31.2851 9.51502C31.0201 7.75126 30.197 6.11975 28.9373 4.86144C27.6776 3.60314 26.048 2.78474 24.2892 2.52712C22.5304 2.26951 20.7357 2.58633 19.1701 3.4308C17.6046 4.27528 16.3511 5.60262 15.5949 7.21681C14.8387 8.831 14.6198 10.6465 14.9706 12.395C15.294 14.0072 16.0865 15.4868 17.2479 16.6469C18.4093 17.807 19.8875 18.5954 21.4954 18.9124V18.9124Z" fill="#231815"/>
</svg>
