<svg width="42" height="33" viewBox="0 0 42 33" fill="none" xmlns="http://www.w3.org/2000/svg">
<path d="M8.68235 30.5159C9.48706 30.1271 10.1845 29.5462 10.7136 28.8241C11.2427 28.102 11.5872 27.2608 11.7171 26.374L14.1146 10.2938H30.988C30.0295 9.67295 28.9119 9.34495 27.7712 9.34966H11.7171C10.1074 9.34966 8.56357 9.99139 7.4253 11.1337C6.28703 12.276 5.64757 13.8252 5.64757 15.4407V25.1254C5.62709 26.2141 5.8978 27.2884 6.43155 28.2364C6.96529 29.1845 7.74254 29.9716 8.68235 30.5159V30.5159Z" fill="#A7C8DC"/>
<path d="M7.28669 32.6782C5.16701 32.4775 3.21315 31.4415 1.85349 29.7973C0.493833 28.1531 -0.160658 26.0349 0.0335481 23.9072V3.68507C0.0414787 2.71019 0.430915 1.7775 1.11785 1.08814C1.80479 0.398773 2.73422 0.00796762 3.70566 9.04639e-06H12.1727C13.2749 -0.00211492 14.3455 0.369826 15.2105 1.0554C16.0755 1.74098 16.684 2.69992 16.9373 3.77643H30.078C31.3746 3.87781 32.5792 4.48752 33.4312 5.47359C34.2831 6.45966 34.7139 7.74275 34.6302 9.04515C34.6302 9.44901 34.4703 9.83632 34.1857 10.1219C33.9012 10.4075 33.5152 10.5679 33.1128 10.5679C32.7103 10.5679 32.3244 10.4075 32.0398 10.1219C31.7552 9.83632 31.5954 9.44901 31.5954 9.04515C31.5954 7.85741 30.8974 6.82193 30.078 6.82193H14.3578L14.0239 4.65963C13.9586 4.21291 13.736 3.80446 13.3964 3.50834C13.0567 3.21221 12.6226 3.04801 12.1727 3.04551H3.736C3.56936 3.05295 3.41152 3.12272 3.29358 3.24109C3.17563 3.35945 3.10611 3.51784 3.09869 3.68507V23.9072C3.09869 26.9527 5.01061 29.5109 7.31705 29.5109C7.71949 29.5109 8.10544 29.6714 8.39001 29.9569C8.67458 30.2425 8.83444 30.6298 8.83444 31.0337C8.8515 31.2462 8.82387 31.46 8.75336 31.6612C8.68285 31.8624 8.57102 32.0464 8.42511 32.2015C8.2792 32.3565 8.10249 32.4791 7.90638 32.5612C7.71027 32.6433 7.49914 32.6832 7.28669 32.6782V32.6782Z" fill="#040000"/>
<path d="M33.447 32.7391H7.16568C6.94636 32.7315 6.7309 32.679 6.53257 32.5847C6.33425 32.4904 6.15724 32.3564 6.01245 32.1909C5.87486 32.0227 5.77406 31.8273 5.71655 31.6174C5.65904 31.4075 5.6461 31.1879 5.67862 30.9727C5.725 30.6386 5.8674 30.3253 6.08837 30.0711C6.30934 29.8169 6.59934 29.6328 6.9229 29.5413C7.71574 29.3635 8.43382 28.9425 8.97759 28.3368C9.52137 27.7311 9.86389 26.9706 9.95769 26.1608L12.3552 10.0501C12.4191 9.69245 12.6059 9.3686 12.8831 9.13489C13.1604 8.90118 13.5105 8.77242 13.8726 8.771H37.5136C38.1297 8.77234 38.7383 8.90623 39.2985 9.16366C39.8587 9.42109 40.3573 9.79606 40.7608 10.2633C41.2239 10.796 41.5667 11.4229 41.7658 12.101C41.9648 12.7791 42.0154 13.4924 41.914 14.192L40.0628 26.6176C39.8806 28.2669 39.1108 29.7946 37.8951 30.9194C36.6795 32.0442 35.0998 32.6905 33.447 32.7391ZM11.8696 29.6936H33.447C34.3768 29.6455 35.2579 29.2612 35.9273 28.6118C36.5968 27.9624 37.0093 27.0918 37.0887 26.1608L38.8792 13.7352C38.9278 13.4774 38.9175 13.212 38.8492 12.9588C38.7809 12.7056 38.6563 12.4712 38.4847 12.2733C38.3717 12.1317 38.2286 12.0171 38.0658 11.9381C37.9031 11.8591 37.7247 11.8175 37.5439 11.8165H15.2686L13.0532 26.6176C12.8973 27.72 12.4924 28.7721 11.8696 29.6936V29.6936Z" fill="#040000"/>
</svg>
