<svg width="42" height="43" viewBox="0 0 42 43" fill="none" xmlns="http://www.w3.org/2000/svg">
<path d="M31.2604 42.0465C36.6741 42.0465 41.0628 37.6423 41.0628 32.2095C41.0628 26.7767 36.6741 22.3726 31.2604 22.3726C25.8467 22.3726 21.458 26.7767 21.458 32.2095C21.458 37.6423 25.8467 42.0465 31.2604 42.0465Z" fill="#A7C8DC"/>
<path d="M32.019 29.134L29.227 31.9358C29.077 32.0904 28.9694 32.2813 28.9148 32.49C28.8602 32.6987 28.8604 32.918 28.9155 33.1266C28.9705 33.3352 29.0784 33.5259 29.2287 33.6802C29.3791 33.8344 29.5667 33.947 29.7732 34.0068L33.5971 35.0423C33.807 35.097 34.0275 35.0958 34.2367 35.0387C34.446 34.9816 34.6367 34.8706 34.7901 34.7167C34.9434 34.5629 35.054 34.3714 35.1109 34.1614C35.1678 33.9514 35.1691 33.7301 35.1145 33.5195L34.0826 29.6822C34.023 29.4749 33.9109 29.2866 33.7572 29.1358C33.6035 28.9849 33.4134 28.8766 33.2056 28.8214C32.9977 28.7661 32.7792 28.7659 32.5712 28.8207C32.3633 28.8755 32.173 28.9834 32.019 29.134V29.134Z" fill="#231815"/>
<path d="M4.15944 31.0523C3.64604 30.5283 3.35835 29.8229 3.35835 29.088C3.35835 28.3531 3.64604 27.6477 4.15944 27.1236L6.31414 24.9613L9.19719 28.0068L10.9574 26.2405L8.07432 23.195L10.7146 20.5454L13.5976 23.4386L14.6598 22.3422L9.43998 17.1953L1.70126 24.9309C0.611559 26.032 0 27.5209 0 29.0728C0 30.6246 0.611559 32.1135 1.70126 33.2147V33.2147C2.26603 33.7902 2.93922 34.2472 3.68166 34.5592C4.4241 34.8711 5.22094 35.0318 6.02584 35.0318C6.83073 35.0318 7.62758 34.8711 8.37002 34.5592C9.11246 34.2472 9.78565 33.7902 10.3504 33.2147L17.8767 25.6618L15.6006 23.3777L7.98328 31.0523C7.46554 31.5406 6.78181 31.8124 6.07136 31.8124C5.3609 31.8124 4.67718 31.5406 4.15944 31.0523V31.0523Z" fill="#231815"/>
<path d="M33.7186 1.90664C33.1231 1.3026 32.4141 0.823061 31.6328 0.495787C30.8514 0.168513 30.0131 0 29.1664 0C28.3197 0 27.4814 0.168513 26.7 0.495787C25.9186 0.823061 25.2097 1.3026 24.6142 1.90664L18.1804 8.42402L17.877 8.72857L23.0057 13.8755L24.0679 12.8095L21.2152 9.94677L23.8555 7.29718L26.7082 10.16L28.438 8.39356L25.6157 5.62216L27.2241 3.97759C27.7463 3.46238 28.4493 3.17366 29.1816 3.17366C29.9138 3.17366 30.6168 3.46238 31.139 3.97759V3.97759C31.6524 4.5016 31.9401 5.20706 31.9401 5.94193C31.9401 6.67681 31.6524 7.38226 31.139 7.90628L24.0376 14.9109L26.3137 17.1951L33.7186 9.76404C34.7527 8.71986 35.3331 7.3075 35.3331 5.83534C35.3331 4.36319 34.7527 2.95083 33.7186 1.90664V1.90664Z" fill="#231815"/>
<path d="M30.0461 23.4079L9.65233 2.9117C8.86241 2.30239 7.87951 2.00039 6.88506 2.06144C5.89061 2.1225 4.95173 2.54248 4.2417 3.24388C3.53168 3.94527 3.09844 4.88074 3.02195 5.87761C2.94546 6.87449 3.23088 7.86549 3.82553 8.6677L24.2193 29.1335C24.593 29.5554 25.0486 29.8962 25.5582 30.135C26.0679 30.3738 26.6208 30.5056 27.183 30.5222C27.7452 30.5388 28.3048 30.4399 28.8276 30.2316C29.3503 30.0233 29.8251 29.7099 30.2229 29.3108C30.6206 28.9117 30.9328 28.4352 31.1404 27.9106C31.3479 27.386 31.4465 26.8244 31.4299 26.2602C31.4134 25.696 31.2821 25.1412 31.0441 24.6297C30.8062 24.1183 30.4666 23.6611 30.0461 23.2861V23.4079ZM27.4059 26.4534C27.2753 26.5926 27.1178 26.7036 26.943 26.7794C26.7681 26.8552 26.5797 26.8943 26.3892 26.8943C26.1987 26.8943 26.0103 26.8552 25.8355 26.7794C25.6606 26.7036 25.5031 26.5926 25.3726 26.4534L6.46581 7.63223C6.33429 7.49825 6.23035 7.33959 6.15994 7.1653C6.08953 6.99101 6.05401 6.80451 6.05542 6.61645C6.05683 6.42838 6.09514 6.24244 6.16815 6.06924C6.24117 5.89603 6.34747 5.73895 6.48098 5.60697C6.61449 5.47499 6.77259 5.37069 6.94627 5.30003C7.11994 5.22937 7.30579 5.19373 7.49319 5.19514C7.68059 5.19655 7.86588 5.235 8.03847 5.30827C8.21107 5.38155 8.3676 5.48822 8.49912 5.6222L27.4059 24.5957C27.66 24.8621 27.8018 25.2167 27.8018 25.5855C27.8018 25.9543 27.66 26.3088 27.4059 26.5753V26.4534Z" fill="black"/>
</svg>
