<svg width="41" height="41" viewBox="0 0 41 41" fill="none" xmlns="http://www.w3.org/2000/svg">
<path d="M40.3047 19.7958C40.3047 14.0602 35.6714 9.41064 29.956 9.41064C24.2406 9.41064 19.6074 14.0602 19.6074 19.7958C19.6074 25.5314 24.2406 30.181 29.956 30.181C35.6714 30.181 40.3047 25.5314 40.3047 19.7958Z" fill="#A7C8DC"/>
<path d="M24.0988 30.455C21.0976 30.455 18.1639 29.5619 15.6686 27.8887C13.1732 26.2155 11.2283 23.8373 10.0799 21.0548C8.93138 18.2724 8.63088 15.2106 9.21637 12.2568C9.80186 9.30293 11.247 6.58965 13.3692 4.46004C15.4913 2.33044 18.195 0.880156 21.1385 0.292599C24.0819 -0.294958 27.1329 0.00659784 29.9056 1.15913C32.6783 2.31167 35.0481 4.26341 36.7154 6.76756C38.3828 9.27171 39.2727 12.2158 39.2727 15.2275C39.2727 17.2272 38.8802 19.2073 38.1177 21.0548C37.3551 22.9023 36.2374 24.581 34.8284 25.995C33.4193 27.409 31.7466 28.5306 29.9056 29.2959C28.0646 30.0611 26.0914 30.455 24.0988 30.455V30.455ZM24.0988 3.04551C21.6979 3.04551 19.3509 3.75997 17.3546 5.09855C15.3583 6.43712 13.8024 8.33969 12.8836 10.5657C11.9648 12.7916 11.7244 15.241 12.1928 17.6041C12.6612 19.9672 13.8174 22.1378 15.5151 23.8415C17.2128 25.5452 19.3758 26.7054 21.7305 27.1754C24.0853 27.6455 26.5261 27.4042 28.7442 26.4822C30.9624 25.5602 32.8582 23.9988 34.1921 21.9955C35.526 19.9922 36.2379 17.6369 36.2379 15.2275C36.1901 12.0284 34.8901 8.97662 32.6187 6.73142C30.3473 4.48622 27.287 3.22788 24.0988 3.22824V3.04551Z" fill="#040000"/>
<path d="M15.7537 16.872C15.3513 16.872 14.9653 16.7116 14.6808 16.426C14.3962 16.1405 14.2363 15.7531 14.2363 15.3493C14.2444 12.6891 15.303 10.1406 17.1803 8.26244C19.0576 6.38425 21.6003 5.32958 24.2511 5.32959C24.6536 5.32959 25.0395 5.49002 25.3241 5.77559C25.6087 6.06116 25.7685 6.44848 25.7685 6.85234C25.7608 7.25376 25.5984 7.63656 25.3155 7.92046C25.0326 8.20436 24.6512 8.3673 24.2511 8.37509C23.332 8.37508 22.4218 8.55727 21.573 8.91119C20.7241 9.26511 19.9533 9.78379 19.3048 10.4375C18.6562 11.0911 18.1427 11.8669 17.7937 12.7203C17.4447 13.5736 17.2671 14.4878 17.2711 15.4102C17.2554 15.8034 17.0887 16.1753 16.8058 16.4478C16.5229 16.7203 16.1459 16.8724 15.7537 16.872V16.872Z" fill="#040000"/>
<path d="M3.46243 38.3429C3.26342 38.3453 3.06611 38.306 2.88318 38.2273C2.70024 38.1486 2.53575 38.0324 2.40026 37.8861C2.2551 37.7494 2.13941 37.5842 2.06032 37.4009C1.98123 37.2176 1.94043 37.0199 1.94043 36.8202C1.94043 36.6204 1.98123 36.4227 2.06032 36.2394C2.13941 36.0561 2.2551 35.8909 2.40026 35.7542L13.2952 24.8209C13.5809 24.5341 13.9684 24.373 14.3725 24.373C14.7766 24.373 15.1641 24.5341 15.4499 24.8209C15.7356 25.1076 15.8961 25.4965 15.8961 25.902C15.8961 26.3075 15.7356 26.6964 15.4499 26.9832L4.55496 37.8861C4.41605 38.0363 4.24661 38.1548 4.05813 38.2336C3.86965 38.3124 3.66651 38.3497 3.46243 38.3429V38.3429Z" fill="#040000"/>
<path d="M3.0372 40.3226C2.63567 40.3209 2.23845 40.2393 1.86859 40.0825C1.49872 39.9256 1.16357 39.6967 0.8825 39.4089C0.317267 38.8383 0 38.0664 0 37.2619C0 36.4573 0.317267 35.6854 0.8825 35.1148L8.01425 27.9274C8.58571 27.3539 9.36078 27.0317 10.1689 27.0317C10.9771 27.0317 11.7522 27.3539 12.3236 27.9274C12.8951 28.5009 13.2161 29.2787 13.2161 30.0897C13.2161 30.9007 12.8951 31.6785 12.3236 32.252L5.16154 39.4089C4.60123 39.9828 3.83768 40.3111 3.0372 40.3226Z" fill="#040000"/>
</svg>
