<svg width="47" height="46" viewBox="0 0 47 46" fill="none" xmlns="http://www.w3.org/2000/svg">
<path d="M26.3092 45.2862C37.2204 45.2862 46.0657 36.4097 46.0657 25.46C46.0657 14.5103 37.2204 5.63379 26.3092 5.63379C15.398 5.63379 6.55273 14.5103 6.55273 25.46C6.55273 36.4097 15.398 45.2862 26.3092 45.2862Z" fill="#A7C8DC"/>
<path d="M12.9571 18.4862L11.8949 15.2275H15.4456L16.265 18.4862H19.5729L20.453 15.2275H23.4878L24.3982 18.4862H27.6758L28.4649 15.2275H32.228L31.3176 18.4862H33.1384V20.6181H30.7106L29.0718 26.7091C28.9022 27.28 28.5538 27.7809 28.0782 28.1374C27.6026 28.494 27.0252 28.6873 26.4315 28.6887V28.6887C25.8445 28.6925 25.2723 28.5044 24.8014 28.1527C24.3304 27.801 23.9865 27.3049 23.8216 26.7395L22.1828 21.0444L20.6654 26.6786C20.5104 27.2604 20.1667 27.7738 19.6886 28.1378C19.2105 28.5017 18.6252 28.6956 18.0252 28.6887V28.6887C17.433 28.6992 16.8538 28.5141 16.3767 28.162C15.8997 27.8098 15.5512 27.31 15.3849 26.7395L13.6551 20.6485H11.3486V18.5167L12.9571 18.4862ZM17.9645 24.425L18.966 20.6181H16.8113L17.9645 24.425ZM26.4012 24.425L27.2813 20.6181H25.0962L26.1888 24.425H26.4012Z" fill="#231815"/>
<path d="M22.2126 43.7331C18.655 43.7139 15.1563 42.8208 12.0219 41.1319C8.8875 39.443 6.21288 37.0095 4.23164 34.0442C2.25041 31.0789 1.02282 27.6718 0.656111 24.1207C0.289401 20.5695 0.794718 16.9822 2.12793 13.6722C3.46115 10.3622 5.58171 7.4301 8.30437 5.13207C11.027 2.83404 14.269 1.23997 17.7471 0.489094C21.2251 -0.261782 24.8335 -0.146621 28.257 0.824519C31.6805 1.79566 34.8149 3.59324 37.3866 6.06023C37.5321 6.19821 37.649 6.36359 37.7308 6.54693C37.8126 6.73027 37.8575 6.92798 37.8632 7.12877C37.8688 7.32956 37.835 7.52949 37.7636 7.71716C37.6923 7.90483 37.5848 8.07656 37.4473 8.22254C37.3098 8.36852 37.145 8.48589 36.9623 8.56795C36.7796 8.65002 36.5826 8.69516 36.3825 8.70082C36.1824 8.70648 35.9832 8.67253 35.7962 8.60092C35.6092 8.52931 35.438 8.42143 35.2926 8.28345C31.7838 4.89024 27.0851 3.01943 22.2126 3.07564C18.5045 3.06964 14.8779 4.16684 11.791 6.2286C8.70408 8.29035 6.29547 11.2241 4.86953 14.6592C3.44359 18.0942 3.06431 21.8763 3.77964 25.5276C4.49497 29.1789 6.2728 32.5355 8.88845 35.1731C11.5041 37.8107 14.8402 39.6111 18.4751 40.3467C22.11 41.0822 25.8807 40.7199 29.3105 39.3057C32.7404 37.8914 35.6755 35.4885 37.7449 32.4008C39.8144 29.313 40.9253 25.6789 40.9373 21.9577C40.9451 21.5563 41.1074 21.1735 41.3903 20.8896C41.6732 20.6057 42.0547 20.4428 42.4547 20.435C42.8571 20.435 43.2431 20.5954 43.5276 20.881C43.8122 21.1666 43.9721 21.5539 43.9721 21.9577C43.948 27.736 41.6459 33.2699 37.5687 37.3501C33.4914 41.4303 27.9706 43.7251 22.2126 43.7331V43.7331Z" fill="#231815"/>
</svg>
