<svg width="39" height="47" viewBox="0 0 39 47" fill="none" xmlns="http://www.w3.org/2000/svg">
<path d="M31.1369 6.09082H12.5639C9.16152 6.09082 6.40332 8.85876 6.40332 12.2732V38.099C6.40332 41.5135 9.16152 44.2814 12.5639 44.2814H31.1369C34.5393 44.2814 37.2975 41.5135 37.2975 38.099V12.2732C37.2975 8.85876 34.5393 6.09082 31.1369 6.09082Z" fill="#A7C8DC"/>
<path d="M25.9171 42.3629H9.10437C6.68974 42.3629 4.374 41.4003 2.6666 39.6869C0.959201 37.9735 0 35.6496 0 33.2264V9.1365C0 6.71335 0.959201 4.38945 2.6666 2.67602C4.374 0.962593 6.68974 0 9.10437 0L25.9171 0C28.3317 0 30.6475 0.962593 32.3549 2.67602C34.0623 4.38945 35.0215 6.71335 35.0215 9.1365V33.0437H31.9867V9.1365C31.9867 7.52107 31.3472 5.9718 30.209 4.82952C29.0707 3.68723 27.5269 3.0455 25.9171 3.0455H9.10437C7.49462 3.0455 5.95079 3.68723 4.81253 4.82952C3.67426 5.9718 3.03479 7.52107 3.03479 9.1365V33.0437C3.03479 34.6591 3.67426 36.2084 4.81253 37.3507C5.95079 38.493 7.49462 39.1347 9.10437 39.1347H25.9171V42.3629Z" fill="#040000"/>
<path d="M25.0976 13.2779H9.92365C9.52121 13.2779 9.13525 13.1175 8.85068 12.8319C8.56612 12.5464 8.40625 12.159 8.40625 11.7552C8.40625 11.3513 8.56612 10.964 8.85068 10.6784C9.13525 10.3929 9.52121 10.2324 9.92365 10.2324H25.0976C25.5 10.2324 25.886 10.3929 26.1706 10.6784C26.4551 10.964 26.615 11.3513 26.615 11.7552C26.615 12.159 26.4551 12.5464 26.1706 12.8319C25.886 13.1175 25.5 13.2779 25.0976 13.2779Z" fill="#040000"/>
<path d="M25.0976 19.4913H9.92365C9.52121 19.4913 9.13525 19.3309 8.85068 19.0453C8.56612 18.7597 8.40625 18.3724 8.40625 17.9686C8.40625 17.5647 8.56612 17.1774 8.85068 16.8918C9.13525 16.6062 9.52121 16.4458 9.92365 16.4458H25.0976C25.5 16.4458 25.886 16.6062 26.1706 16.8918C26.4551 17.1774 26.615 17.5647 26.615 17.9686C26.615 18.3724 26.4551 18.7597 26.1706 19.0453C25.886 19.3309 25.5 19.4913 25.0976 19.4913Z" fill="#040000"/>
<path d="M25.0976 26.0694H9.92365C9.52121 26.0694 9.13525 25.909 8.85068 25.6234C8.56612 25.3379 8.40625 24.9505 8.40625 24.5467C8.40625 24.1428 8.56612 23.7555 8.85068 23.4699C9.13525 23.1844 9.52121 23.0239 9.92365 23.0239H25.0976C25.5 23.0239 25.886 23.1844 26.1706 23.4699C26.4551 23.7555 26.615 24.1428 26.615 24.5467C26.615 24.9505 26.4551 25.3379 26.1706 25.6234C25.886 25.909 25.5 26.0694 25.0976 26.0694Z" fill="#040000"/>
<path d="M30.1961 29.4502C28.4795 29.4502 26.8014 29.961 25.374 30.9181C23.9467 31.8752 22.8342 33.2355 22.1773 34.8271C21.5204 36.4187 21.3485 38.17 21.6834 39.8596C22.0183 41.5492 22.8449 43.1012 24.0588 44.3193C25.2726 45.5375 26.8192 46.367 28.5028 46.7031C30.1865 47.0392 31.9316 46.8667 33.5176 46.2074C35.1036 45.5482 36.4591 44.4318 37.4129 42.9994C38.3666 41.567 38.8756 39.883 38.8756 38.1603C38.8676 35.8527 37.9506 33.6419 36.3246 32.0102C34.6986 30.3785 32.4956 29.4582 30.1961 29.4502V29.4502ZM31.6225 42.6372C31.6225 42.9441 31.501 43.2385 31.2847 43.4555C31.0684 43.6726 30.7751 43.7945 30.4692 43.7945H30.014C29.7082 43.7945 29.4148 43.6726 29.1986 43.4555C28.9823 43.2385 28.8608 42.9441 28.8608 42.6372V38.6781C28.8607 38.3683 28.9812 38.0707 29.1967 37.8488C29.4121 37.6269 29.7054 37.4983 30.014 37.4903H30.4692C30.7778 37.4983 31.0712 37.6269 31.2866 37.8488C31.502 38.0707 31.6226 38.3683 31.6225 38.6781V42.6372ZM31.6225 34.5057C31.6225 34.8127 31.501 35.107 31.2847 35.3241C31.0684 35.5411 30.7751 35.663 30.4692 35.663H30.014C29.7082 35.663 29.4148 35.5411 29.1986 35.3241C28.9823 35.107 28.8608 34.8127 28.8608 34.5057V34.0489C28.8608 33.8969 28.8906 33.7464 28.9486 33.606C29.0065 33.4656 29.0915 33.338 29.1986 33.2306C29.3057 33.1231 29.4328 33.0379 29.5727 32.9797C29.7126 32.9215 29.8626 32.8916 30.014 32.8916H30.4692C30.6207 32.8916 30.7706 32.9215 30.9106 32.9797C31.0505 33.0379 31.1776 33.1231 31.2847 33.2306C31.3918 33.338 31.4767 33.4656 31.5347 33.606C31.5926 33.7464 31.6225 33.8969 31.6225 34.0489V34.5057Z" fill="#040000"/>
</svg>
